<svg width="34" height="33" viewBox="0 0 34 33" fill="none" xmlns="http://www.w3.org/2000/svg">
<path d="M33.7682 17.5194C33.7763 17.457 33.7763 17.3938 33.7682 17.3314C33.7843 17.0337 33.8003 16.7517 33.8003 16.454C33.8059 12.7414 32.5022 9.13997 30.1083 6.25476C30.0525 6.1521 29.9761 6.0615 29.8836 5.98842C28.1138 3.92365 25.847 2.3195 23.2861 1.31962L23.1095 1.25695C19.2474 -0.205483 14.9646 -0.205483 11.1024 1.25695L10.9259 1.31962C8.36499 2.3195 6.09817 3.92365 4.32839 5.98842C4.23585 6.0615 4.1594 6.1521 4.10366 6.25476C1.7097 9.13997 0.406029 12.7414 0.411639 16.454C0.411639 16.7517 0.427691 17.0337 0.443744 17.3314C0.435686 17.3938 0.435686 17.457 0.443744 17.5194C0.628875 20.2115 1.49476 22.8168 2.96395 25.1023C3.01332 25.1967 3.07249 25.286 3.14052 25.3686C5.39678 28.7297 8.84276 31.1615 12.82 32.1995H12.8682C15.6465 32.9097 18.5654 32.9097 21.3438 32.1995H21.3919C25.3692 31.1615 28.8152 28.7297 31.0714 25.3686C31.1395 25.286 31.1986 25.1967 31.248 25.1023C32.7172 22.8168 33.5831 20.2115 33.7682 17.5194ZM7.55489 14.7463L9.67378 15.42L11.7124 21.5615L10.4122 23.3162H4.85811C3.87712 21.6688 3.26441 19.8374 3.06026 17.9424L7.55489 14.7463ZM26.6571 14.7463L31.1517 17.9424C30.9475 19.8374 30.3348 21.6688 29.3538 23.3162H23.7998L22.4995 21.5615L24.5382 15.42L26.6571 14.7463ZM27.572 7.21045L25.8544 12.3649L23.7355 13.0386L18.3902 9.23151V7.06945L22.8848 3.87336C24.6693 4.65321 26.2662 5.7901 27.572 7.21045ZM11.3272 3.87336L15.8218 7.06945V9.23151L10.4764 13.0386L8.3575 12.3649L6.63991 7.21045C7.94575 5.7901 9.54262 4.65321 11.3272 3.87336ZM14.2166 29.9434L12.499 24.7889L13.7992 23.0342H20.4127L21.713 24.7889L19.9954 29.9434C18.0906 30.3404 16.1214 30.3404 14.2166 29.9434Z" fill="black" fill-opacity="0.8"/>
</svg>
