<svg width="21" height="21" viewBox="0 0 21 21" fill="none" xmlns="http://www.w3.org/2000/svg">
<path d="M19.0314 10.5C19.0271 12.5843 18.2622 14.5954 16.8802 16.1556C15.4981 17.7159 13.5941 18.718 11.5255 18.9738C11.4793 18.9783 11.4327 18.9733 11.3886 18.9589C11.3445 18.9446 11.3038 18.9213 11.2692 18.8905C11.2345 18.8596 11.2066 18.822 11.1872 18.7799C11.1678 18.7377 11.1573 18.692 11.1564 18.6457V12.4687H13.1251C13.2149 12.4689 13.3037 12.4507 13.3861 12.4151C13.4685 12.3796 13.5428 12.3276 13.6043 12.2622C13.6658 12.1969 13.7132 12.1196 13.7437 12.0352C13.7741 11.9508 13.787 11.861 13.7814 11.7715C13.7668 11.6018 13.6885 11.4439 13.5621 11.3297C13.4358 11.2155 13.2708 11.1535 13.1005 11.1562H11.1564V9.18747C11.1564 8.83937 11.2946 8.50553 11.5408 8.25939C11.7869 8.01325 12.1208 7.87497 12.4689 7.87497H13.7814C13.8711 7.87514 13.9599 7.85691 14.0423 7.82139C14.1248 7.78588 14.199 7.73384 14.2605 7.66849C14.322 7.60314 14.3695 7.52587 14.3999 7.44145C14.4304 7.35703 14.4432 7.26727 14.4376 7.1777C14.4231 7.00801 14.3447 6.85014 14.2184 6.73595C14.092 6.62177 13.927 6.55977 13.7568 6.56247H12.4689C11.7727 6.56247 11.105 6.83903 10.6127 7.33131C10.1204 7.82359 9.84386 8.49127 9.84386 9.18747V11.1562H7.87511C7.78537 11.156 7.69654 11.1743 7.61413 11.2098C7.53171 11.2453 7.45745 11.2973 7.39595 11.3627C7.33444 11.428 7.28699 11.5053 7.25653 11.5897C7.22607 11.6741 7.21325 11.7639 7.21886 11.8535C7.23338 12.0232 7.31173 12.181 7.43809 12.2952C7.56446 12.4094 7.72943 12.4714 7.89972 12.4687H9.84386V18.6457C9.84409 18.6917 9.83465 18.7372 9.81615 18.7793C9.79765 18.8214 9.7705 18.8592 9.73646 18.8901C9.70243 18.921 9.66227 18.9445 9.61859 18.9589C9.57491 18.9733 9.52869 18.9784 9.48292 18.9738C5.15167 18.4488 1.8048 14.6836 1.97707 10.18C2.07377 7.956 3.03597 5.85784 4.65828 4.33344C6.2806 2.80903 8.43452 1.97913 10.6603 2.02088C12.886 2.06263 15.0073 2.97273 16.5713 4.55691C18.1353 6.14109 19.0181 8.27386 19.0314 10.5Z" fill="black" fill-opacity="0.7"/>
</svg>
