<svg width="58" height="59" viewBox="0 0 58 59" fill="none" xmlns="http://www.w3.org/2000/svg">
<path d="M57.6679 31.2557C57.6819 31.1452 57.6819 31.0334 57.6679 30.9229C57.6957 30.3959 57.7234 29.8967 57.7234 29.3697C57.7331 22.7975 55.4807 16.4221 51.3445 11.3147C51.2482 11.1329 51.1161 10.9726 50.9562 10.8432C47.8985 7.18806 43.982 4.34835 39.5574 2.57833L39.2523 2.46739C32.5795 -0.121455 25.1798 -0.121455 18.507 2.46739L18.2019 2.57833C13.7774 4.34835 9.86086 7.18806 6.80311 10.8432C6.64322 10.9726 6.51114 11.1329 6.41483 11.3147C2.27866 16.4221 0.0262277 22.7975 0.0359198 29.3697C0.0359198 29.8967 0.0636544 30.3959 0.0913888 30.9229C0.077467 31.0334 0.077467 31.1452 0.0913888 31.2557C0.41125 36.0212 1.90729 40.6332 4.44569 44.6791C4.531 44.8463 4.63322 45.0043 4.75076 45.1506C8.64903 51.1004 14.6029 55.4053 21.4746 57.2428H21.5578C26.3581 58.5 31.4012 58.5 36.2015 57.2428H36.2847C43.1565 55.4053 49.1103 51.1004 53.0086 45.1506C53.1261 45.0043 53.2283 44.8463 53.3137 44.6791C55.8521 40.6332 57.3481 36.0212 57.6679 31.2557ZM12.3777 26.3467L16.0387 27.5393L19.5609 38.4111L17.3144 41.5174H7.71834C6.02342 38.6011 4.96482 35.3591 4.61209 32.0045L12.3777 26.3467ZM45.3816 26.3467L53.1472 32.0045C52.7945 35.3591 51.7359 38.6011 50.041 41.5174H40.4449L38.1984 38.4111L41.7207 27.5393L45.3816 26.3467ZM46.9625 13.0065L43.9949 22.1311L40.334 23.3236L31.0984 16.5842V12.7568L38.864 7.09903C41.9473 8.47955 44.7063 10.4921 46.9625 13.0065ZM18.8953 7.09903L26.6609 12.7568V16.5842L17.4254 23.3236L13.7644 22.1311L10.7969 13.0065C13.053 10.4921 15.812 8.47955 18.8953 7.09903ZM23.8875 53.249L20.9199 44.1244L23.1664 41.0182H34.593L36.8394 44.1244L33.8719 53.249C30.5808 53.9517 27.1785 53.9517 23.8875 53.249Z" fill="#01DA4C"/>
</svg>
