<svg width="50" height="46" viewBox="0 0 50 46" fill="none" xmlns="http://www.w3.org/2000/svg">
<path d="M45.981 0.279297H4.73096C3.7364 0.279297 2.78257 0.674385 2.07931 1.37765C1.37605 2.08091 0.980957 3.03474 0.980957 4.0293V34.0293C0.980957 35.0239 1.37605 35.9777 2.07931 36.6809C2.78257 37.3842 3.7364 37.7793 4.73096 37.7793H18.6763L22.145 43.5684C22.4787 44.1215 22.9497 44.5791 23.5123 44.8967C24.0748 45.2144 24.7099 45.3813 25.356 45.3813C26.002 45.3813 26.6371 45.2144 27.1996 44.8967C27.7622 44.5791 28.2332 44.1215 28.5669 43.5684L32.0356 37.7793H45.981C46.9755 37.7793 47.9293 37.3842 48.6326 36.6809C49.3359 35.9777 49.731 35.0239 49.731 34.0293V4.0293C49.731 3.03474 49.3359 2.08091 48.6326 1.37765C47.9293 0.674385 46.9755 0.279297 45.981 0.279297V0.279297ZM14.106 21.8418C13.5497 21.8418 13.0059 21.6768 12.5434 21.3678C12.0809 21.0588 11.7204 20.6195 11.5075 20.1056C11.2947 19.5917 11.239 19.0262 11.3475 18.4806C11.456 17.935 11.7239 17.4339 12.1172 17.0406C12.5106 16.6472 13.0117 16.3794 13.5573 16.2708C14.1028 16.1623 14.6683 16.218 15.1823 16.4309C15.6962 16.6438 16.1354 17.0042 16.4445 17.4668C16.7535 17.9293 16.9185 18.473 16.9185 19.0293C16.9185 19.7752 16.6221 20.4906 16.0947 21.018C15.5672 21.5455 14.8519 21.8418 14.106 21.8418ZM25.356 21.8418C24.7997 21.8418 24.2559 21.6768 23.7934 21.3678C23.3309 21.0588 22.9704 20.6195 22.7575 20.1056C22.5447 19.5917 22.489 19.0262 22.5975 18.4806C22.706 17.935 22.9739 17.4339 23.3672 17.0406C23.7606 16.6472 24.2617 16.3794 24.8073 16.2708C25.3528 16.1623 25.9183 16.218 26.4323 16.4309C26.9462 16.6438 27.3854 17.0042 27.6945 17.4668C28.0035 17.9293 28.1685 18.473 28.1685 19.0293C28.1685 19.7752 27.8721 20.4906 27.3447 21.018C26.8172 21.5455 26.1019 21.8418 25.356 21.8418ZM36.606 21.8418C36.0497 21.8418 35.5059 21.6768 35.0434 21.3678C34.5809 21.0588 34.2204 20.6195 34.0075 20.1056C33.7947 19.5917 33.739 19.0262 33.8475 18.4806C33.956 17.935 34.2239 17.4339 34.6172 17.0406C35.0106 16.6472 35.5117 16.3794 36.0573 16.2708C36.6028 16.1623 37.1683 16.218 37.6823 16.4309C38.1962 16.6438 38.6354 17.0042 38.9445 17.4668C39.2535 17.9293 39.4185 18.473 39.4185 19.0293C39.4185 19.7752 39.1221 20.4906 38.5947 21.018C38.0672 21.5455 37.3519 21.8418 36.606 21.8418Z" fill="black" fill-opacity="0.77"/>
</svg>
