<svg width="145" height="38" viewBox="0 0 145 38" fill="none" xmlns="http://www.w3.org/2000/svg">
<path d="M0 20C0 8.9543 8.95431 0 20 0H145V17.5381C145 28.5838 136.046 37.5381 125 37.5381H0V20Z" fill="#000041"/>
<path d="M19.1636 28.269V10.944H30.7636V14.219H23.0636V17.844H29.9136V21.119H23.0636V28.269H19.1636ZM38.594 10.744C41.194 10.744 43.1857 11.2107 44.569 12.144C45.9524 13.0607 46.644 14.494 46.644 16.444C46.644 17.6607 46.3607 18.6524 45.794 19.419C45.244 20.169 44.444 20.7607 43.394 21.194C43.744 21.6274 44.1107 22.1274 44.494 22.694C44.8774 23.244 45.2524 23.8274 45.619 24.444C46.0024 25.044 46.369 25.6774 46.719 26.344C47.069 26.994 47.394 27.6357 47.694 28.269H43.319C43.0024 27.7024 42.6774 27.1274 42.344 26.544C42.0274 25.9607 41.694 25.394 41.344 24.844C41.0107 24.294 40.6774 23.7774 40.344 23.294C40.0107 22.794 39.6774 22.344 39.344 21.944H37.419V28.269H33.519V11.194C34.369 11.0274 35.244 10.9107 36.144 10.844C37.0607 10.7774 37.8774 10.744 38.594 10.744ZM38.819 14.069C38.5357 14.069 38.2774 14.0774 38.044 14.094C37.8274 14.1107 37.619 14.1274 37.419 14.144V18.844H38.519C39.9857 18.844 41.0357 18.6607 41.669 18.294C42.3024 17.9274 42.619 17.3024 42.619 16.419C42.619 15.569 42.294 14.969 41.644 14.619C41.0107 14.2524 40.069 14.069 38.819 14.069ZM50.1938 28.269V10.944H61.8938V14.219H54.0938V17.619H61.0188V20.819H54.0938V24.994H62.4688V28.269H50.1938ZM65.355 28.269V10.944H77.055V14.219H69.255V17.619H76.18V20.819H69.255V24.994H77.63V28.269H65.355Z" fill="white"/>
<path d="M92.297 28.494C91.347 28.494 90.397 28.4607 89.447 28.394C88.5136 28.344 87.5386 28.2107 86.522 27.994V11.194C87.322 11.044 88.197 10.9357 89.147 10.869C90.097 10.7857 90.9803 10.744 91.797 10.744C92.897 10.744 93.9053 10.8274 94.822 10.994C95.7553 11.144 96.5553 11.4107 97.222 11.794C97.8886 12.1774 98.4053 12.6857 98.772 13.319C99.1553 13.9357 99.347 14.7024 99.347 15.619C99.347 17.0024 98.6803 18.094 97.347 18.894C98.447 19.3107 99.197 19.8774 99.597 20.594C99.997 21.3107 100.197 22.119 100.197 23.019C100.197 24.8357 99.5303 26.2024 98.197 27.119C96.8803 28.0357 94.9136 28.494 92.297 28.494ZM90.322 20.719V25.194C90.6053 25.2274 90.9136 25.2524 91.247 25.269C91.5803 25.2857 91.947 25.294 92.347 25.294C93.5136 25.294 94.4553 25.1274 95.172 24.794C95.8886 24.4607 96.247 23.844 96.247 22.944C96.247 22.144 95.947 21.5774 95.347 21.244C94.747 20.894 93.8886 20.719 92.772 20.719H90.322ZM90.322 17.744H92.222C93.422 17.744 94.2803 17.594 94.797 17.294C95.3136 16.9774 95.572 16.4774 95.572 15.794C95.572 15.094 95.3053 14.6024 94.772 14.319C94.2386 14.0357 93.4553 13.894 92.422 13.894C92.0886 13.894 91.7303 13.9024 91.347 13.919C90.9636 13.919 90.622 13.9357 90.322 13.969V17.744ZM103.319 28.269V10.944H115.019V14.219H107.219V17.619H114.144V20.819H107.219V24.994H115.594V28.269H103.319ZM131.33 10.944V14.269H126.105V28.269H122.205V14.269H116.98V10.944H131.33Z" fill="#00D349"/>
</svg>
