<svg width="21" height="21" viewBox="0 0 21 21" fill="none" xmlns="http://www.w3.org/2000/svg">
<path d="M10.5 13.125C11.9497 13.125 13.125 11.9497 13.125 10.5C13.125 9.05025 11.9497 7.875 10.5 7.875C9.05025 7.875 7.875 9.05025 7.875 10.5C7.875 11.9497 9.05025 13.125 10.5 13.125Z" fill="black" fill-opacity="0.7"/>
<path d="M14.1094 2.29688H6.89062C5.67229 2.29688 4.50385 2.78086 3.64235 3.64235C2.78086 4.50385 2.29688 5.67229 2.29688 6.89062V14.1094C2.29688 15.3277 2.78086 16.4962 3.64235 17.3576C4.50385 18.2191 5.67229 18.7031 6.89062 18.7031H14.1094C15.3277 18.7031 16.4962 18.2191 17.3576 17.3576C18.2191 16.4962 18.7031 15.3277 18.7031 14.1094V6.89062C18.7031 5.67229 18.2191 4.50385 17.3576 3.64235C16.4962 2.78086 15.3277 2.29688 14.1094 2.29688ZM10.5 14.4375C9.72124 14.4375 8.95996 14.2066 8.31244 13.7739C7.66492 13.3413 7.16024 12.7263 6.86222 12.0068C6.5642 11.2873 6.48623 10.4956 6.63816 9.73183C6.79009 8.96803 7.1651 8.26644 7.71577 7.71577C8.26644 7.1651 8.96803 6.79009 9.73183 6.63816C10.4956 6.48623 11.2873 6.5642 12.0068 6.86222C12.7263 7.16024 13.3413 7.66492 13.7739 8.31244C14.2066 8.95996 14.4375 9.72124 14.4375 10.5C14.4375 11.5443 14.0227 12.5458 13.2842 13.2842C12.5458 14.0227 11.5443 14.4375 10.5 14.4375ZM14.7656 7.21875C14.5709 7.21875 14.3806 7.16102 14.2187 7.05285C14.0569 6.94469 13.9307 6.79095 13.8562 6.61108C13.7817 6.43121 13.7622 6.23328 13.8002 6.04233C13.8381 5.85138 13.9319 5.67598 14.0696 5.53832C14.2072 5.40065 14.3826 5.3069 14.5736 5.26891C14.7645 5.23093 14.9625 5.25043 15.1423 5.32493C15.3222 5.39944 15.4759 5.52561 15.5841 5.68749C15.6923 5.84937 15.75 6.03968 15.75 6.23438C15.75 6.49545 15.6463 6.74583 15.4617 6.93043C15.2771 7.11504 15.0267 7.21875 14.7656 7.21875Z" fill="black" fill-opacity="0.7"/>
</svg>
