<svg width="21" height="21" viewBox="0 0 21 21" fill="none" xmlns="http://www.w3.org/2000/svg">
<path d="M17.3906 2.29688H3.60938C3.26128 2.29688 2.92744 2.43516 2.6813 2.6813C2.43516 2.92744 2.29688 3.26128 2.29688 3.60938V17.3906C2.29688 17.7387 2.43516 18.0726 2.6813 18.3187C2.92744 18.5648 3.26128 18.7031 3.60938 18.7031H17.3906C17.7387 18.7031 18.0726 18.5648 18.3187 18.3187C18.5648 18.0726 18.7031 17.7387 18.7031 17.3906V3.60938C18.7031 3.26128 18.5648 2.92744 18.3187 2.6813C18.0726 2.43516 17.7387 2.29688 17.3906 2.29688ZM7.875 14.4375C7.875 14.6115 7.80586 14.7785 7.68279 14.9015C7.55972 15.0246 7.3928 15.0938 7.21875 15.0938C7.0447 15.0938 6.87778 15.0246 6.75471 14.9015C6.63164 14.7785 6.5625 14.6115 6.5625 14.4375V9.1875C6.5625 9.01345 6.63164 8.84653 6.75471 8.72346C6.87778 8.60039 7.0447 8.53125 7.21875 8.53125C7.3928 8.53125 7.55972 8.60039 7.68279 8.72346C7.80586 8.84653 7.875 9.01345 7.875 9.1875V14.4375ZM7.21875 7.54688C7.02406 7.54688 6.83374 7.48914 6.67186 7.38098C6.50998 7.27281 6.38381 7.11907 6.30931 6.9392C6.2348 6.75933 6.21531 6.56141 6.25329 6.37046C6.29127 6.17951 6.38502 6.00411 6.52269 5.86644C6.66036 5.72877 6.83576 5.63502 7.02671 5.59704C7.21766 5.55906 7.41558 5.57855 7.59545 5.65306C7.77532 5.72756 7.92906 5.85373 8.03723 6.01561C8.14539 6.17749 8.20312 6.36781 8.20312 6.5625C8.20312 6.82357 8.09941 7.07395 7.91481 7.25856C7.7302 7.44316 7.47982 7.54688 7.21875 7.54688ZM15.0938 14.4375C15.0938 14.6115 15.0246 14.7785 14.9015 14.9015C14.7785 15.0246 14.6115 15.0938 14.4375 15.0938C14.2635 15.0938 14.0965 15.0246 13.9735 14.9015C13.8504 14.7785 13.7812 14.6115 13.7812 14.4375V11.4844C13.7812 11.0493 13.6084 10.632 13.3007 10.3243C12.993 10.0166 12.5757 9.84375 12.1406 9.84375C11.7055 9.84375 11.2882 10.0166 10.9805 10.3243C10.6729 10.632 10.5 11.0493 10.5 11.4844V14.4375C10.5 14.6115 10.4309 14.7785 10.3078 14.9015C10.1847 15.0246 10.0178 15.0938 9.84375 15.0938C9.6697 15.0938 9.50278 15.0246 9.37971 14.9015C9.25664 14.7785 9.1875 14.6115 9.1875 14.4375V9.1875C9.18705 9.026 9.24616 8.87 9.35354 8.74936C9.46091 8.62871 9.609 8.5519 9.76947 8.53362C9.92993 8.51534 10.0915 8.55687 10.2233 8.65027C10.355 8.74367 10.4477 8.88238 10.4836 9.03984C10.9276 8.73883 11.4453 8.56446 11.981 8.53546C12.5167 8.50646 13.0501 8.62392 13.5241 8.87523C13.998 9.12655 14.3946 9.50222 14.6711 9.9619C14.9477 10.4216 15.0938 10.9479 15.0938 11.4844V14.4375Z" fill="black" fill-opacity="0.7"/>
</svg>
