<svg width="39" height="39" viewBox="0 0 39 39" fill="none" xmlns="http://www.w3.org/2000/svg">
<path d="M38.0909 3.91042L29.0015 36.157C28.8499 36.703 28.5338 37.1891 28.0962 37.5491C27.6586 37.9092 27.1207 38.1257 26.5557 38.1692H26.3128C25.7901 38.168 25.2783 38.0192 24.8364 37.74C24.3945 37.4607 24.0404 37.0623 23.815 36.5907L17.6224 23.5116C17.5616 23.3803 17.5423 23.2336 17.5671 23.091C17.5919 22.9484 17.6596 22.8168 17.7612 22.7137L26.6598 13.8151C26.7991 13.6889 26.9113 13.5357 26.9896 13.3648C27.0679 13.1939 27.1106 13.0088 27.1153 12.8209C27.1199 12.633 27.0863 12.4461 27.0165 12.2715C26.9467 12.097 26.8422 11.9384 26.7092 11.8055C26.5763 11.6726 26.4178 11.568 26.2432 11.4982C26.0687 11.4284 25.8818 11.3948 25.6938 11.3995C25.5059 11.4041 25.3209 11.4469 25.15 11.5252C24.9791 11.6035 24.8259 11.7157 24.6996 11.855L15.801 20.7709C15.6979 20.8725 15.5663 20.9402 15.4238 20.965C15.2812 20.9898 15.1344 20.9705 15.0031 20.9097L1.99346 14.7518C1.48427 14.5113 1.05678 14.1268 0.763886 13.6458C0.470992 13.1648 0.325554 12.6086 0.34557 12.0458C0.376274 11.4663 0.588944 10.9114 0.95332 10.4598C1.3177 10.0082 1.81521 9.68305 2.37508 9.53059L34.691 0.423833C35.2563 0.262416 35.8581 0.284624 36.4099 0.487257C36.9617 0.68989 37.4349 1.06248 37.7613 1.55134C37.9803 1.89873 38.123 2.28872 38.1798 2.69543C38.2366 3.10215 38.2063 3.5163 38.0909 3.91042Z" fill="white"/>
</svg>
