<svg width="43" height="42" viewBox="0 0 43 42" fill="none" xmlns="http://www.w3.org/2000/svg">
<path d="M36.4485 31.6935L36.2987 31.6499C34.1273 31.0667 33.3942 30.5078 32.4277 30.1387C28.9977 28.8326 28.1056 27.8906 27.8775 27.4471C27.8698 27.4304 27.8634 27.4138 27.8557 27.3971L27.8274 23.4147L21.4458 23.3225L15.064 23.4148L15.0358 27.3972C15.0281 27.4139 15.0217 27.4305 15.014 27.4472C14.7858 27.8906 13.8938 28.8327 10.4651 30.1388C9.49867 30.5079 8.76422 31.0667 6.59295 31.65L6.443 31.6936C4.46656 32.346 3.13745 34.1788 3.13745 36.2476V42H21.4458H39.7542V36.2476C39.7542 34.1788 38.425 32.346 36.4485 31.6935Z" fill="#A0D468"/>
<path d="M21.4458 3.50226C15.2139 3.50226 10.1626 8.33896 10.1626 15.6711C10.1626 23.002 17.1519 29.749 21.4458 29.749C25.7396 29.749 32.7301 23.002 32.7301 15.6711C32.7301 8.33896 27.6775 3.50226 21.4458 3.50226Z" fill="#EAC6BB"/>
<path d="M32.7226 15.209C32.7265 15.3622 32.7303 15.5154 32.7303 15.6711C32.7303 16.2582 32.6829 16.8414 32.5983 17.4175C32.979 17.9789 33.0944 18.705 32.8918 19.4555C32.6496 20.343 31.9729 21.1474 30.9872 21.7191C29.726 22.4484 27.97 22.8059 25.9115 22.7508L25.8628 24.4991C26.0243 24.5042 26.1807 24.5055 26.3358 24.5055C31.4819 24.5055 33.9685 22.16 34.5799 19.9143C35.0926 18.0282 34.3466 16.1492 32.7226 15.209Z" fill="#656D78"/>
<path d="M25.2089 1.31049L22.2031 9.98022C31.5534 8.72215 33.3965 15.3321 33.3965 15.3321C37.12 1.25922 25.2089 1.31049 25.2089 1.31049Z" fill="#DA4453"/>
<path d="M33.4197 18.6704L32.5558 15.5706C32.543 15.5309 32.1713 14.3106 31.0126 13.118C29.4515 11.5106 27.2519 10.6962 24.4732 10.6962C23.7913 10.6962 23.0658 10.7468 22.3198 10.8475L20.9099 11.0371L24.586 0.43838L25.2115 0.435181C25.4165 0.435181 30.2872 0.47751 33.0916 4.12021C35.1552 6.79968 35.5423 10.6469 34.2426 15.5565L33.4197 18.6704ZM24.4732 8.94584C28.6004 8.94584 31.0293 10.5929 32.3404 11.9746C32.607 12.2553 32.839 12.5373 33.0402 12.8104C33.5504 9.56307 33.1043 7.00534 31.7047 5.18788C29.9449 2.90062 27.0647 2.35592 25.8177 2.22581L23.4759 8.97669C23.8157 8.9561 24.1477 8.94584 24.4732 8.94584Z" fill="#DA4453"/>
<path d="M30.9589 2.1725C30.8512 2.08341 28.2518 0 23.0377 0C21.2061 0 19.2541 0.259472 17.2365 0.771527C14.5616 1.44962 12.4505 2.93065 10.9625 5.1737C9.74611 7.00592 8.94497 9.35791 8.57975 12.163C7.9581 16.9502 8.75145 22.0708 9.2795 24.6964L10.2203 29.3748L11.001 24.6656C11.0061 24.6323 11.6034 21.132 13.6786 17.7013C14.8757 15.7236 16.3241 14.1528 17.9852 13.0326C20.0449 11.6444 22.4558 10.9408 25.1514 10.9408C25.9742 10.9408 26.8368 11.0062 27.7161 11.1363L28.4339 11.2421L31.4306 2.5583L30.9589 2.1725Z" fill="#ED5564"/>
<path d="M24.1785 21.3839C24.1426 21.3839 24.1054 21.3845 24.0683 21.3858C22.5186 21.4325 21.292 22.4739 21.3305 23.7095C21.3676 24.9169 22.5955 25.8654 24.0965 25.8654C24.1324 25.8654 24.1683 25.8654 24.2054 25.8628C25.755 25.8167 26.9816 24.7759 26.9444 23.5391C26.9072 22.3316 25.6793 21.3839 24.1785 21.3839Z" fill="#434A54"/>
</svg>
