<svg width="37" height="51" viewBox="0 0 37 51" fill="none" xmlns="http://www.w3.org/2000/svg">
<path d="M25.4472 14.7724C25.2336 14.7724 25.0674 14.5998 25.0674 14.3902C25.0674 14.1806 25.2336 14.0079 25.4472 14.0079C25.6608 14.0079 25.827 14.1806 25.827 14.3902C25.8389 14.5998 25.6608 14.7724 25.4472 14.7724ZM2.78931 32.6522C2.78931 24.1069 9.74453 17.1646 18.2427 17.1646C26.7409 17.1646 33.6961 24.1192 33.6961 32.6522C33.6961 41.1728 26.7409 48.1521 18.2427 48.1521C9.74453 48.1397 2.78931 41.1728 2.78931 32.6522ZM24.3078 9.00161C24.6757 9.10026 24.9012 9.47019 24.8063 9.84011C24.7113 10.21 24.3315 10.432 23.9636 10.3333C23.5956 10.2347 23.3701 9.86477 23.4651 9.49485C23.56 9.12492 23.9398 8.90297 24.3078 9.00161ZM24.9368 7.64522C25.1505 7.64522 25.3166 7.81785 25.3166 8.02748C25.3166 8.2371 25.1505 8.40973 24.9368 8.40973C24.7232 8.40973 24.557 8.2371 24.557 8.02748C24.5452 7.80552 24.7232 7.64522 24.9368 7.64522ZM24.6164 6.26417C24.83 6.26417 24.9962 6.4368 24.9962 6.64642C24.9962 6.85605 24.83 7.02868 24.6164 7.02868C24.4027 7.02868 24.2366 6.85605 24.2366 6.64642C24.2247 6.4368 24.4027 6.26417 24.6164 6.26417ZM29.364 9.88943C29.5776 9.88943 29.7438 10.0621 29.7438 10.2717C29.7438 10.4813 29.5776 10.6539 29.364 10.6539C29.1503 10.6539 28.9841 10.4813 28.9841 10.2717C28.9841 10.0621 29.1503 9.88943 29.364 9.88943ZM29.0435 8.52071C29.2571 8.52071 29.4233 8.69334 29.4233 8.90297C29.4233 9.11259 29.2571 9.28522 29.0435 9.28522C28.8299 9.28522 28.6637 9.11259 28.6637 8.90297C28.6637 8.69334 28.8299 8.52071 29.0435 8.52071ZM28.4738 7.31229C28.6874 7.31229 28.8536 7.48492 28.8536 7.69454C28.8536 7.90417 28.6756 8.0768 28.4738 8.0768C28.2601 8.0768 28.094 7.90417 28.094 7.69454C28.0821 7.48492 28.2601 7.31229 28.4738 7.31229ZM27.5599 6.2395C27.7735 6.2395 27.9397 6.41214 27.9397 6.62176C27.9397 6.83139 27.7735 7.00402 27.5599 7.00402C27.3462 7.00402 27.1801 6.83139 27.1801 6.62176C27.1801 6.41214 27.3462 6.2395 27.5599 6.2395ZM26.4442 5.42567C26.6578 5.42567 26.824 5.5983 26.824 5.80792C26.824 6.01755 26.6578 6.19018 26.4442 6.19018C26.2305 6.19018 26.0644 6.01755 26.0644 5.80792C26.0644 5.5983 26.2305 5.42567 26.4442 5.42567ZM25.2336 4.94477C25.4472 4.94477 25.6134 5.1174 25.6134 5.32702C25.6134 5.53665 25.4472 5.70928 25.2336 5.70928C25.0199 5.70928 24.8537 5.53665 24.8537 5.32702C24.8537 5.1174 25.0318 4.94477 25.2336 4.94477ZM24.011 5.05574C24.2247 5.05574 24.3909 5.22838 24.3909 5.438C24.3909 5.64762 24.2247 5.82026 24.011 5.82026C23.7974 5.82026 23.6312 5.64762 23.6312 5.438C23.6312 5.22838 23.7974 5.05574 24.011 5.05574ZM23.109 4.00762C23.3226 4.00762 23.4888 4.18025 23.4888 4.38988C23.4888 4.5995 23.3108 4.77213 23.109 4.77213C22.8954 4.77213 22.7292 4.5995 22.7292 4.38988C22.7292 4.18025 22.8954 4.00762 23.109 4.00762ZM21.934 3.23078C22.1476 3.23078 22.3138 3.40341 22.3138 3.61303C22.3138 3.82266 22.1476 3.99529 21.934 3.99529C21.7203 3.99529 21.5542 3.82266 21.5542 3.61303C21.5542 3.40341 21.7203 3.23078 21.934 3.23078ZM20.7115 2.77454C20.9251 2.77454 21.0913 2.94717 21.0913 3.15679C21.0913 3.36642 20.9251 3.53905 20.7115 3.53905C20.4978 3.53905 20.3317 3.36642 20.3317 3.15679C20.3317 2.94717 20.4978 2.77454 20.7115 2.77454ZM19.4652 2.55258C19.6789 2.55258 19.845 2.72521 19.845 2.93484C19.845 3.14446 19.6789 3.31709 19.4652 3.31709C19.2516 3.31709 19.0854 3.14446 19.0854 2.93484C19.0735 2.72521 19.2516 2.55258 19.4652 2.55258ZM7.60811 12.6762C7.27578 12.8612 6.86037 12.7379 6.67046 12.4049C6.6266 12.3254 6.59883 12.2374 6.58886 12.1463C6.57889 12.0552 6.58694 11.963 6.6125 11.8752C6.63805 11.7875 6.68059 11.7061 6.7375 11.636C6.79441 11.566 6.86449 11.5087 6.94345 11.4678C7.27578 11.2828 7.6912 11.4061 7.8811 11.7391C8.05913 12.072 7.94044 12.4912 7.60811 12.6762ZM12.5219 10.3333C12.1539 10.432 11.7741 10.21 11.6792 9.84011C11.5842 9.47019 11.8097 9.08793 12.1777 9.00161C12.5456 8.90297 12.9254 9.12492 13.0204 9.49485C13.1153 9.86477 12.8898 10.247 12.5219 10.3333ZM18.2427 9.60583C18.1539 9.60746 18.0656 9.59089 17.9829 9.55707C17.9002 9.52325 17.8248 9.47284 17.7608 9.40871C17.6969 9.34459 17.6458 9.26801 17.6103 9.18335C17.5749 9.09869 17.5559 9.0076 17.5543 8.9153C17.5543 8.53304 17.8629 8.22477 18.2427 8.22477C18.6225 8.22477 18.9311 8.53304 18.9311 8.9153C18.9311 9.29755 18.6225 9.60583 18.2427 9.60583ZM11.5605 8.40973C11.3468 8.40973 11.1807 8.2371 11.1807 8.02748C11.1807 7.81785 11.3468 7.64522 11.5605 7.64522C11.7741 7.64522 11.9403 7.81785 11.9403 8.02748C11.9403 8.2371 11.7623 8.40973 11.5605 8.40973ZM11.8809 7.02868C11.6673 7.02868 11.5011 6.85605 11.5011 6.64642C11.5011 6.4368 11.6673 6.26417 11.8809 6.26417C12.0946 6.26417 12.2608 6.4368 12.2608 6.64642C12.2608 6.85605 12.0827 7.02868 11.8809 7.02868ZM7.12149 10.6663C6.90784 10.6663 6.74168 10.4936 6.74168 10.284C6.74168 10.0744 6.90784 9.90177 7.12149 9.90177C7.33513 9.90177 7.50129 10.0744 7.50129 10.284C7.51316 10.4936 7.33513 10.6663 7.12149 10.6663ZM7.44195 9.28522C7.22831 9.28522 7.06214 9.11259 7.06214 8.90297C7.06214 8.69334 7.24018 8.52071 7.44195 8.52071C7.65559 8.52071 7.82176 8.69334 7.82176 8.90297C7.83362 9.11259 7.65559 9.28522 7.44195 9.28522ZM8.01166 8.0768C7.79802 8.0768 7.63185 7.90417 7.63185 7.69454C7.63185 7.48492 7.79802 7.31229 8.01166 7.31229C8.2253 7.31229 8.39147 7.48492 8.39147 7.69454C8.40334 7.90417 8.2253 8.0768 8.01166 8.0768ZM8.92557 7.00402C8.71193 7.00402 8.54576 6.83139 8.54576 6.62176C8.54576 6.41214 8.71193 6.2395 8.92557 6.2395C9.13921 6.2395 9.30538 6.41214 9.30538 6.62176C9.30538 6.83139 9.13921 7.00402 8.92557 7.00402ZM10.0413 6.19018C9.82761 6.19018 9.66145 6.01755 9.66145 5.80792C9.66145 5.5983 9.82761 5.42567 10.0413 5.42567C10.2549 5.42567 10.4211 5.5983 10.4211 5.80792C10.4329 6.01755 10.2549 6.19018 10.0413 6.19018ZM11.2519 5.72161C11.0382 5.72161 10.8721 5.54898 10.8721 5.33935C10.8721 5.12973 11.0382 4.9571 11.2519 4.9571C11.4655 4.9571 11.6317 5.12973 11.6317 5.33935C11.6317 5.54898 11.4655 5.72161 11.2519 5.72161ZM12.4744 5.82026C12.2608 5.82026 12.0946 5.64762 12.0946 5.438C12.0946 5.22838 12.2608 5.05574 12.4744 5.05574C12.688 5.05574 12.8542 5.22838 12.8542 5.438C12.8661 5.64762 12.688 5.82026 12.4744 5.82026ZM13.3764 4.78446C13.1628 4.78446 12.9966 4.61183 12.9966 4.40221C12.9966 4.19258 13.1747 4.01995 13.3764 4.01995C13.5901 4.01995 13.7562 4.19258 13.7562 4.40221C13.7562 4.61183 13.5901 4.78446 13.3764 4.78446ZM14.5515 3.99529C14.3378 3.99529 14.1717 3.82266 14.1717 3.61303C14.1717 3.40341 14.3378 3.23078 14.5515 3.23078C14.7651 3.23078 14.9313 3.40341 14.9313 3.61303C14.9313 3.82266 14.7651 3.99529 14.5515 3.99529ZM15.774 3.53905C15.5603 3.53905 15.3942 3.36642 15.3942 3.15679C15.3942 2.94717 15.5722 2.77454 15.774 2.77454C15.9876 2.77454 16.1538 2.94717 16.1538 3.15679C16.1538 3.36642 15.9876 3.53905 15.774 3.53905ZM18.2427 7.31229C18.0291 7.31229 17.8629 7.13966 17.8629 6.93003C17.8629 6.72041 18.0409 6.54778 18.2427 6.54778C18.4564 6.54778 18.6225 6.72041 18.6225 6.93003C18.6225 7.13966 18.4564 7.31229 18.2427 7.31229ZM18.2427 5.9189C18.0291 5.9189 17.8629 5.74627 17.8629 5.53665C17.8629 5.32702 18.0409 5.15439 18.2427 5.15439C18.4564 5.15439 18.6225 5.32702 18.6225 5.53665C18.6225 5.74627 18.4564 5.9189 18.2427 5.9189ZM18.2427 4.52552C18.0291 4.52552 17.8629 4.35289 17.8629 4.14326C17.8629 3.93364 18.0409 3.761 18.2427 3.761C18.4564 3.761 18.6225 3.93364 18.6225 4.14326C18.6225 4.35289 18.4564 4.52552 18.2427 4.52552ZM17.0321 3.31709C16.8184 3.31709 16.6404 3.14446 16.6404 2.93484C16.6404 2.72521 16.8184 2.55258 17.0321 2.55258C17.2457 2.55258 17.4119 2.72521 17.4119 2.93484C17.4119 3.15679 17.2339 3.31709 17.0321 3.31709ZM29.542 11.4678C29.8743 11.6527 29.993 12.072 29.815 12.4049C29.6369 12.7379 29.2097 12.8612 28.8773 12.6762C28.7994 12.6341 28.7304 12.5762 28.6744 12.506C28.6183 12.4358 28.5763 12.3547 28.5509 12.2673C28.5255 12.18 28.5171 12.0883 28.5263 11.9976C28.5355 11.9069 28.562 11.819 28.6043 11.7391C28.7942 11.4061 29.2097 11.2828 29.542 11.4678ZM20.6996 13.49C20.486 13.49 20.3198 13.3174 20.3198 13.1078C20.3198 12.8982 20.486 12.7255 20.6996 12.7255C20.9132 12.7255 21.0794 12.8982 21.0794 13.1078C21.0913 13.3174 20.9132 13.49 20.6996 13.49ZM11.0382 14.7724C10.8246 14.7724 10.6584 14.5998 10.6584 14.3902C10.6584 14.1806 10.8365 14.0079 11.0382 14.0079C11.2519 14.0079 11.4181 14.1806 11.4181 14.3902C11.4181 14.5998 11.2519 14.7724 11.0382 14.7724ZM15.7858 13.49C15.5722 13.49 15.406 13.3174 15.406 13.1078C15.406 12.8982 15.5841 12.7255 15.7858 12.7255C15.9995 12.7255 16.1657 12.8982 16.1657 13.1078C16.1657 13.3174 15.9995 13.49 15.7858 13.49Z" fill="white"/>
<path d="M21.0912 10.7155C21.198 10.9498 21.3167 11.1225 21.471 11.2704C21.1149 11.2211 20.7707 11.1718 20.4147 11.1348C20.6164 11.0238 20.7826 10.8758 20.925 10.6909C20.9725 10.7032 21.0319 10.7155 21.0912 10.7155ZM15.3941 10.7155C15.4534 10.7155 15.5128 10.7032 15.5721 10.6909C15.7027 10.8758 15.8807 11.0238 16.0706 11.1348C15.7146 11.1718 15.3585 11.2088 15.0143 11.2704C15.1805 11.1101 15.311 10.9252 15.3941 10.7155ZM13.3408 11.591C13.0322 11.665 12.7236 11.739 12.415 11.8253C12.5811 11.6157 12.688 11.3567 12.7117 11.0855C12.8779 11.3074 13.0915 11.48 13.3408 11.591ZM9.81567 12.7501C9.91063 12.6022 9.96997 12.4295 10.0174 12.2692L10.0649 12.2569C10.1599 12.2322 10.243 12.1952 10.3142 12.1459C10.4566 12.2446 10.6228 12.3185 10.7889 12.3679C10.4685 12.4788 10.1361 12.6145 9.81567 12.7501ZM18.2427 10.3826C18.3376 10.6416 18.5156 10.8635 18.7293 11.0361C18.5631 11.0361 18.4088 11.0238 18.2427 11.0238C18.0884 11.0238 17.9222 11.0238 17.756 11.0361C17.9815 10.8635 18.1477 10.6416 18.2427 10.3826ZM26.1711 12.1336C26.2423 12.1829 26.3373 12.2199 26.4204 12.2446L26.4679 12.2569C26.5035 12.4295 26.5747 12.5898 26.6696 12.7378C26.3492 12.6022 26.0168 12.4665 25.6845 12.3432C25.8625 12.3062 26.0287 12.2322 26.1711 12.1336ZM24.0703 11.8253C23.7617 11.739 23.4531 11.665 23.1445 11.591C23.3938 11.48 23.6074 11.3074 23.7617 11.0855C23.7973 11.3567 23.9042 11.6157 24.0703 11.8253ZM25.2691 8.81659C25.5302 8.70561 25.7201 8.47132 25.7795 8.18771C26.1949 8.28636 26.6578 8.39734 27.0376 8.55764C27.3936 8.69328 27.6785 8.89057 27.8803 9.0632C28.082 9.59343 28.2007 10.21 28.2719 10.9622C28.0227 11.0731 27.8565 11.3321 27.7616 11.591C27.6073 11.9856 27.6073 12.3925 28.0346 12.7008C27.9396 12.7084 27.8443 12.695 27.7547 12.6614C27.6651 12.6279 27.5835 12.575 27.515 12.5063C27.4466 12.4375 27.393 12.3544 27.3577 12.2626C27.3225 12.1707 27.3064 12.0721 27.3106 11.9733C27.3924 11.877 27.4531 11.7634 27.4886 11.6404C27.6073 11.1718 27.3343 10.7032 26.8714 10.5922C26.4085 10.4689 25.9456 10.7525 25.8269 11.2088C25.8151 11.2581 25.8032 11.3074 25.8032 11.3567C25.4115 11.8376 24.6282 11.591 24.5926 10.9622C25.3166 11.1101 25.6252 10.7402 25.7438 10.247C25.8507 9.84005 25.8032 9.4208 25.3403 9.17418C25.3166 9.03854 25.3047 8.91523 25.2691 8.81659Z" fill="#E62644"/>
<path d="M13.0323 7.11488C14.4091 6.35036 16.2013 6.21472 17.59 6.42435V6.523C17.4892 6.6799 17.4503 6.87099 17.4812 7.05684C17.5122 7.24269 17.6106 7.40912 17.7561 7.52179C17.495 7.60811 17.2932 7.8054 17.222 8.15067C16.6998 8.27398 16.5574 8.66856 16.5574 9.08781C16.5574 9.59338 16.7591 10.025 17.495 10.0619C17.4119 10.3456 17.1508 10.5429 16.8422 10.5429C16.5455 10.5429 16.2844 10.3456 16.2013 10.0743C16.225 10.0003 16.225 9.92631 16.225 9.85232C16.225 9.37142 15.8334 8.98917 15.3586 8.98917C14.8838 8.98917 14.4922 9.37142 14.4922 9.85232C14.4922 10.0003 14.5278 10.1483 14.599 10.2592C14.5883 10.4065 14.5332 10.5465 14.4416 10.6593C14.35 10.7722 14.2265 10.8523 14.0886 10.8881C13.7919 10.9621 13.4952 10.8388 13.3409 10.5798C14.0411 10.3579 14.1361 9.88932 14.0055 9.39608C13.8987 8.98917 13.6613 8.6439 13.1272 8.65623C13.0493 8.48237 12.9148 8.34265 12.7474 8.26165C12.8186 7.86706 12.9017 7.47247 13.0323 7.11488ZM18.8837 6.41202C20.2724 6.20239 22.0764 6.33803 23.4414 7.10255C23.5719 7.47247 23.6669 7.85473 23.7144 8.26165C23.5601 8.33563 23.4295 8.45894 23.3346 8.65623C22.8005 8.6439 22.5631 8.98917 22.4681 9.39608C22.3376 9.88932 22.4325 10.3579 23.1328 10.5798C22.9785 10.8265 22.6818 10.9621 22.385 10.8881C22.2466 10.8535 22.1224 10.7738 22.0306 10.6607C21.9387 10.5475 21.8841 10.4069 21.8747 10.2592C21.9459 10.1359 21.9815 10.0003 21.9815 9.85232C21.9815 9.37142 21.6017 8.98917 21.1151 8.98917C20.6403 8.98917 20.2486 9.37142 20.2486 9.85232C20.2486 9.92631 20.2605 10.0003 20.2724 10.0743C20.1774 10.3456 19.9282 10.5429 19.6314 10.5429C19.3228 10.5429 19.0736 10.3456 18.9786 10.0619C19.7145 10.025 19.9163 9.59338 19.9163 9.08781C19.9163 8.65623 19.7739 8.27398 19.2516 8.15067C19.2222 8.00694 19.1576 7.87353 19.0641 7.76335C18.9705 7.65318 18.8511 7.56997 18.7175 7.52179C18.8837 7.38616 19.0024 7.1642 19.0024 6.92991C19.0024 6.78194 18.9549 6.63397 18.8837 6.523V6.41202ZM9.45972 8.55759C9.83952 8.40962 10.3024 8.28631 10.7178 8.18766C10.7772 8.47127 10.9671 8.70556 11.2282 8.81653C11.1926 8.91518 11.1688 9.03849 11.1807 9.1618C10.706 9.40841 10.6704 9.82766 10.7772 10.2346C10.9077 10.7278 11.2045 11.0977 11.9285 10.9498C11.9047 11.5786 11.1095 11.8253 10.7178 11.3444C10.7178 11.295 10.706 11.2457 10.6941 11.1964C10.5754 10.7278 10.1006 10.4565 9.63775 10.5798C9.17486 10.7032 8.90187 11.1717 9.02056 11.628C9.05617 11.7513 9.11552 11.8746 9.1986 11.9609C9.21047 12.2198 9.07991 12.4665 8.84253 12.6021C8.72384 12.6638 8.59328 12.6884 8.47459 12.6884C8.90187 12.3925 8.90187 11.9856 8.74758 11.5786C8.64076 11.332 8.48646 11.0731 8.22534 10.9621C8.28469 10.2099 8.40338 9.59338 8.60515 9.06315C8.81879 8.89052 9.09178 8.69322 9.45972 8.55759ZM19.4771 12.972L18.2428 13.4283L17.0203 12.972L18.2428 12.5158L19.4771 12.972ZM10.2312 14.649L10.1244 15.0806L10.0888 15.2409L10.0057 15.1916L9.59027 14.9573L9.6971 14.5504L9.72083 14.4641L9.86326 14.5134L10.2312 14.649ZM26.2543 14.649L26.7647 14.4517L26.7884 14.538L26.8953 14.9573L26.4917 15.1792L26.4086 15.2286L26.373 15.0683L26.2543 14.649Z" fill="#E62644"/>
<path d="M24.0703 11.8254C23.9041 11.6157 23.7973 11.3568 23.7736 11.0855C23.6193 11.3075 23.3937 11.4801 23.1564 11.5911C23.4531 11.665 23.7617 11.739 24.0703 11.8254ZM26.1711 12.1336C26.0287 12.2323 25.8625 12.3063 25.6963 12.3556C26.0287 12.4789 26.361 12.6145 26.6815 12.7502C26.5876 12.6034 26.5193 12.4406 26.4797 12.2693L26.4322 12.2569C26.3373 12.2323 26.2542 12.1829 26.1711 12.1336ZM18.2426 10.3826C18.1477 10.6416 17.9815 10.8635 17.756 11.0362C17.9221 11.0362 18.0764 11.0238 18.2426 11.0238C18.4088 11.0238 18.5631 11.0238 18.7292 11.0362C18.5128 10.8684 18.3445 10.6424 18.2426 10.3826ZM9.81563 12.7502C10.1361 12.6145 10.4684 12.4789 10.8008 12.3556C10.6346 12.3063 10.4684 12.2323 10.326 12.1336C10.2548 12.1829 10.1598 12.2199 10.0767 12.2446L10.0293 12.2569C9.96993 12.4296 9.91058 12.6022 9.81563 12.7502ZM13.3407 11.5911C13.0915 11.4801 12.8778 11.3075 12.7235 11.0855C12.6879 11.3568 12.593 11.6157 12.4268 11.8254C12.7235 11.739 13.0321 11.665 13.3407 11.5911ZM15.3941 10.7156C15.311 10.9252 15.1804 11.1102 15.0142 11.2705C15.3584 11.2211 15.7145 11.1718 16.0706 11.1348C15.8688 11.0238 15.7026 10.8759 15.5721 10.6909C15.5127 10.7032 15.4534 10.7156 15.3941 10.7156ZM21.0912 10.7156C21.035 10.7143 20.9792 10.706 20.925 10.6909C20.7944 10.8759 20.6164 11.0238 20.4146 11.1348C20.7707 11.1718 21.1268 11.2088 21.471 11.2705C21.3167 11.1225 21.198 10.9499 21.103 10.7526L21.0912 10.7156ZM29.5419 11.4678C29.3819 11.3794 29.1954 11.3583 29.0209 11.4088C28.8464 11.4593 28.6972 11.5775 28.6042 11.739C28.4262 12.072 28.5449 12.4912 28.8772 12.6762C29.2095 12.8611 29.625 12.7378 29.8149 12.4049C30.0048 12.072 29.8861 11.6527 29.5419 11.4678ZM24.3077 9.00159C23.9397 8.90294 23.5599 9.1249 23.465 9.49482C23.37 9.86475 23.5955 10.247 23.9635 10.3333C24.3314 10.432 24.7112 10.21 24.8062 9.84008C24.9011 9.47016 24.6756 9.0879 24.3077 9.00159ZM24.9367 7.64519C24.7231 7.64519 24.5569 7.81783 24.5569 8.02745C24.5569 8.23707 24.7349 8.40971 24.9367 8.40971C25.1504 8.40971 25.3165 8.23707 25.3165 8.02745C25.3165 7.80549 25.1504 7.64519 24.9367 7.64519ZM24.6162 6.26414C24.4026 6.26414 24.2364 6.43677 24.2364 6.6464C24.2364 6.85602 24.4145 7.02865 24.6162 7.02865C24.8299 7.02865 24.9961 6.85602 24.9961 6.6464C24.9961 6.43677 24.8299 6.26414 24.6162 6.26414ZM29.3638 9.88941C29.1502 9.88941 28.984 10.062 28.984 10.2717C28.984 10.4813 29.1502 10.6539 29.3638 10.6539C29.5775 10.6539 29.7437 10.4813 29.7437 10.2717C29.7437 10.062 29.5775 9.88941 29.3638 9.88941ZM29.0434 8.52068C28.8297 8.52068 28.6636 8.69332 28.6636 8.90294C28.6636 9.11256 28.8297 9.2852 29.0434 9.2852C29.257 9.2852 29.4232 9.11256 29.4232 8.90294C29.4232 8.69332 29.257 8.52068 29.0434 8.52068ZM28.4737 7.31226C28.26 7.31226 28.0939 7.48489 28.0939 7.69452C28.0939 7.90414 28.2719 8.07677 28.4737 8.07677C28.6873 8.07677 28.8535 7.90414 28.8535 7.69452C28.8535 7.48489 28.6873 7.31226 28.4737 7.31226ZM27.5598 6.23948C27.3461 6.23948 27.18 6.41211 27.18 6.62173C27.18 6.83136 27.3461 7.00399 27.5598 7.00399C27.7734 7.00399 27.9396 6.83136 27.9396 6.62173C27.9396 6.41211 27.7734 6.23948 27.5598 6.23948ZM26.4441 5.42564C26.2304 5.42564 26.0643 5.59827 26.0643 5.8079C26.0643 6.01752 26.2304 6.19015 26.4441 6.19015C26.6577 6.19015 26.8239 6.01752 26.8239 5.8079C26.8239 5.59827 26.6577 5.42564 26.4441 5.42564ZM25.2334 4.94474C25.0198 4.94474 24.8536 5.11737 24.8536 5.32699C24.8536 5.53662 25.0198 5.70925 25.2334 5.70925C25.4471 5.70925 25.6132 5.53662 25.6132 5.32699C25.6251 5.11737 25.4471 4.94474 25.2334 4.94474ZM24.0109 5.05572C23.7973 5.05572 23.6311 5.22835 23.6311 5.43797C23.6311 5.6476 23.7973 5.82023 24.0109 5.82023C24.2246 5.82023 24.3907 5.6476 24.3907 5.43797C24.3907 5.22835 24.2246 5.05572 24.0109 5.05572ZM23.1089 4.00759C22.8952 4.00759 22.7291 4.18023 22.7291 4.38985C22.7291 4.59947 22.8952 4.77211 23.1089 4.77211C23.3225 4.77211 23.4887 4.59947 23.4887 4.38985C23.5006 4.18023 23.3225 4.00759 23.1089 4.00759ZM21.9339 3.23075C21.7202 3.23075 21.5541 3.40338 21.5541 3.61301C21.5541 3.82263 21.7202 3.99526 21.9339 3.99526C22.1475 3.99526 22.3137 3.82263 22.3137 3.61301C22.3137 3.40338 22.1475 3.23075 21.9339 3.23075ZM20.7114 2.77451C20.4977 2.77451 20.3315 2.94714 20.3315 3.15677C20.3315 3.36639 20.4977 3.53902 20.7114 3.53902C20.925 3.53902 21.0912 3.36639 21.0912 3.15677C21.103 2.94714 20.925 2.77451 20.7114 2.77451ZM19.4651 2.55255C19.2515 2.55255 19.0853 2.72519 19.0853 2.93481C19.0853 3.14443 19.2515 3.31707 19.4651 3.31707C19.6788 3.31707 19.8449 3.14443 19.8449 2.93481C19.8449 2.72519 19.6788 2.55255 19.4651 2.55255ZM7.608 12.6762C7.94033 12.4912 8.05902 12.072 7.88099 11.739C7.78863 11.5768 7.63946 11.458 7.4647 11.4074C7.28993 11.3568 7.10311 11.3785 6.94334 11.4678C6.611 11.6527 6.49231 12.072 6.67035 12.4049C6.84838 12.7378 7.27567 12.8611 7.608 12.6762ZM12.5218 10.3333C12.8897 10.2347 13.1152 9.86475 13.0203 9.49482C12.9253 9.1249 12.5455 8.90294 12.1776 9.00159C11.8096 9.10023 11.5841 9.47016 11.6791 9.84008C11.7859 10.21 12.1538 10.432 12.5218 10.3333ZM18.2426 9.6058C18.6224 9.6058 18.931 9.29753 18.931 8.91527C18.9295 8.82297 18.9104 8.73188 18.875 8.64722C18.8396 8.56256 18.7884 8.48598 18.7245 8.42185C18.6606 8.35773 18.5851 8.30732 18.5024 8.2735C18.4197 8.23968 18.3315 8.22311 18.2426 8.22474C18.1538 8.22311 18.0655 8.23968 17.9828 8.2735C17.9001 8.30732 17.8246 8.35773 17.7607 8.42185C17.6968 8.48598 17.6457 8.56256 17.6102 8.64722C17.5748 8.73188 17.5558 8.82297 17.5542 8.91527C17.5542 9.29753 17.8628 9.6058 18.2426 9.6058ZM11.5604 8.40971C11.774 8.40971 11.9402 8.23707 11.9402 8.02745C11.9402 7.81783 11.774 7.64519 11.5604 7.64519C11.3467 7.64519 11.1806 7.81783 11.1806 8.02745C11.1687 8.23707 11.3467 8.40971 11.5604 8.40971ZM11.8808 7.02865C12.0945 7.02865 12.2606 6.85602 12.2606 6.6464C12.2606 6.43677 12.0945 6.26414 11.8808 6.26414C11.6672 6.26414 11.501 6.43677 11.501 6.6464C11.4892 6.85602 11.6672 7.02865 11.8808 7.02865ZM7.12137 10.6663C7.33501 10.6663 7.50118 10.4936 7.50118 10.284C7.50118 10.0744 7.33501 9.90174 7.12137 9.90174C6.90773 9.90174 6.74156 10.0744 6.74156 10.284C6.74156 10.4936 6.90773 10.6663 7.12137 10.6663ZM7.44183 9.2852C7.65548 9.2852 7.82164 9.11256 7.82164 8.90294C7.81856 8.80044 7.77718 8.70322 7.70629 8.63186C7.63539 8.56051 7.54054 8.52063 7.44183 8.52068C7.22819 8.52068 7.06203 8.69332 7.06203 8.90294C7.06203 9.11256 7.22819 9.2852 7.44183 9.2852ZM8.01154 8.07677C8.22519 8.07677 8.39135 7.90414 8.39135 7.69452C8.39135 7.48489 8.22519 7.31226 8.01154 7.31226C7.7979 7.31226 7.63174 7.48489 7.63174 7.69452C7.63174 7.90414 7.80977 8.07677 8.01154 8.07677ZM8.92546 7.00399C9.1391 7.00399 9.30526 6.83136 9.30526 6.62173C9.30526 6.41211 9.1391 6.23948 8.92546 6.23948C8.71181 6.23948 8.54565 6.41211 8.54565 6.62173C8.54565 6.83136 8.71181 7.00399 8.92546 7.00399ZM10.0411 6.19015C10.2548 6.19015 10.4209 6.01752 10.4209 5.8079C10.4209 5.59827 10.2548 5.42564 10.0411 5.42564C9.8275 5.42564 9.66133 5.59827 9.66133 5.8079C9.66133 6.01752 9.83937 6.19015 10.0411 6.19015ZM11.2518 5.72158C11.4654 5.72158 11.6316 5.54895 11.6316 5.33933C11.6316 5.1297 11.4654 4.95707 11.2518 4.95707C11.0381 4.95707 10.872 5.1297 10.872 5.33933C10.872 5.54895 11.0381 5.72158 11.2518 5.72158ZM12.4743 5.82023C12.6879 5.82023 12.8541 5.6476 12.8541 5.43797C12.8541 5.22835 12.6879 5.05572 12.4743 5.05572C12.2606 5.05572 12.0945 5.22835 12.0945 5.43797C12.0945 5.6476 12.2606 5.82023 12.4743 5.82023ZM13.3763 4.78444C13.59 4.78444 13.7561 4.61181 13.7561 4.40218C13.7561 4.19256 13.59 4.01993 13.3763 4.01993C13.1627 4.01993 12.9965 4.19256 12.9965 4.40218C12.9965 4.61181 13.1627 4.78444 13.3763 4.78444ZM14.5514 3.99526C14.765 3.99526 14.9312 3.82263 14.9312 3.61301C14.9312 3.40338 14.765 3.23075 14.5514 3.23075C14.3377 3.23075 14.1715 3.40338 14.1715 3.61301C14.1715 3.82263 14.3377 3.99526 14.5514 3.99526ZM15.7739 3.53902C15.9875 3.53902 16.1537 3.36639 16.1537 3.15677C16.1537 2.94714 15.9875 2.77451 15.7739 2.77451C15.5602 2.77451 15.3941 2.94714 15.3941 3.15677C15.3941 3.36639 15.5602 3.53902 15.7739 3.53902ZM18.2426 7.31226C18.4562 7.31226 18.6224 7.13963 18.6224 6.93001C18.6224 6.72038 18.4562 6.54775 18.2426 6.54775C18.029 6.54775 17.8628 6.72038 17.8628 6.93001C17.8628 7.13963 18.029 7.31226 18.2426 7.31226ZM18.2426 5.91888C18.4562 5.91888 18.6224 5.74624 18.6224 5.53662C18.6224 5.32699 18.4562 5.15436 18.2426 5.15436C18.029 5.15436 17.8628 5.32699 17.8628 5.53662C17.8628 5.74624 18.029 5.91888 18.2426 5.91888ZM18.2426 4.52549C18.4562 4.52549 18.6224 4.35286 18.6224 4.14323C18.6224 3.93361 18.4562 3.76098 18.2426 3.76098C18.029 3.76098 17.8628 3.93361 17.8628 4.14323C17.8628 4.35286 18.029 4.52549 18.2426 4.52549ZM17.032 3.31707C17.2456 3.31707 17.4118 3.14443 17.4118 2.93481C17.4087 2.83231 17.3673 2.73509 17.2964 2.66373C17.2255 2.59238 17.1307 2.5525 17.032 2.55255C16.8183 2.55255 16.6403 2.72519 16.6403 2.93481C16.6403 3.15677 16.8183 3.31707 17.032 3.31707ZM27.5716 12.7502C27.8921 12.9228 28.1413 12.8488 28.4499 12.7378C27.9396 12.4789 27.6666 12.2446 27.904 11.6404C28.0108 11.3691 28.1413 11.1595 28.4262 11.0732C28.2482 8.71798 27.5954 7.59587 25.4589 6.52309L25.3047 6.57241C25.3047 6.59707 25.3165 6.62173 25.3165 6.65873C25.3165 6.97933 25.1385 7.13963 24.9011 7.31226C25.2809 7.38625 25.6251 7.57121 25.6251 8.02745C25.6251 8.40971 25.364 8.61933 25.0317 8.71798C25.1385 8.9276 25.1622 9.01392 25.1385 9.26053C25.5776 9.47016 25.6726 9.74144 25.5539 10.1977C25.3877 10.8389 25.0079 10.9005 24.4026 10.7402C24.37 10.9361 24.4025 11.1377 24.4948 11.3119C24.5872 11.486 24.7338 11.6223 24.9106 11.6984C25.0874 11.7744 25.2838 11.7857 25.4676 11.7304C25.6514 11.675 25.8116 11.5563 25.9218 11.3938C25.9218 11.3321 25.9337 11.2828 25.9456 11.2211C26.0405 10.8512 26.4203 10.6169 26.8001 10.7156C27.18 10.8142 27.4055 11.1965 27.2986 11.5664C27.263 11.6897 27.2037 11.7884 27.1206 11.8747C27.1087 12.2446 27.263 12.5775 27.5716 12.7502ZM17.6492 4.1309C17.6492 4.08158 17.661 4.03226 17.661 3.9706C14.8718 3.76098 12.866 5.67226 12.593 8.36038C12.8422 8.45903 12.9372 8.57001 13.044 8.81662C13.5306 8.79196 13.7443 8.98926 13.863 9.43317C14.0291 10.062 13.7205 10.3087 13.1152 10.469C13.2932 10.8759 13.6612 11.1595 14.1359 11.0362C14.5157 10.9375 14.765 10.6046 14.765 10.21C14.6943 10.1007 14.6571 9.97176 14.6582 9.84008C14.6582 9.45783 14.9668 9.13723 15.3584 9.13723C15.7383 9.13723 16.0587 9.4455 16.0587 9.84008C16.0587 9.91407 16.0468 9.98805 16.0231 10.062C16.1299 10.432 16.4385 10.6909 16.8421 10.6909C17.3287 10.6909 17.6136 10.3333 17.6848 9.88941C17.0676 9.88941 16.7115 9.72911 16.7115 9.07557C16.7115 8.607 16.8777 8.37271 17.3524 8.27407C17.4593 7.69452 17.756 7.65752 18.2307 7.58354C18.7174 7.66986 19.0022 7.69452 19.109 8.27407C19.5838 8.37271 19.75 8.607 19.75 9.07557C19.75 9.72911 19.3939 9.88941 18.7767 9.88941C18.8479 10.3333 19.1328 10.6909 19.6194 10.6909C20.0111 10.6909 20.3197 10.432 20.4384 10.062C20.415 9.99054 20.403 9.91558 20.4028 9.84008C20.4028 9.45783 20.7114 9.13723 21.103 9.13723C21.4947 9.13723 21.8033 9.4455 21.8033 9.84008C21.8033 9.97572 21.7677 10.099 21.6965 10.21C21.7084 10.6046 21.9457 10.9375 22.3255 11.0362C22.8003 11.1595 23.1682 10.8759 23.3463 10.469C22.741 10.3087 22.4442 10.062 22.5985 9.43317C22.7172 8.98926 22.9309 8.79196 23.4175 8.81662C23.5362 8.57001 23.6193 8.45903 23.8685 8.36038C23.5955 5.67226 21.6015 3.76098 18.8004 3.9706C18.8123 4.01993 18.8123 4.06925 18.8123 4.1309C18.8123 4.26654 18.7648 4.37752 18.6936 4.4885V5.16669C18.7648 5.27767 18.8123 5.38865 18.8123 5.52429C18.8123 5.65993 18.7648 5.77091 18.6936 5.88188L18.7055 6.58474C18.7648 6.68339 18.8123 6.79437 18.8123 6.91767C18.8123 7.32459 18.5156 7.43557 18.2189 7.57121C17.9221 7.43557 17.6254 7.31226 17.6254 6.91767C17.6254 6.78203 17.6729 6.67106 17.7441 6.56008V5.89421C17.67 5.79057 17.6286 5.66568 17.6254 5.53662C17.6254 5.40098 17.6729 5.29 17.7441 5.17902V4.4885C17.6824 4.38019 17.6496 4.25675 17.6492 4.1309ZM8.58126 11.6404C8.80677 12.2446 8.54565 12.4789 8.03528 12.7378C8.34388 12.8488 8.59313 12.9228 8.91359 12.7502C9.23405 12.5775 9.37648 12.2446 9.34087 11.8993C9.25719 11.814 9.1959 11.7079 9.16284 11.5911C9.12325 11.4065 9.15439 11.2132 9.24966 11.052C9.34493 10.8909 9.49684 10.7747 9.6732 10.7279C9.77484 10.7001 9.88121 10.6964 9.98442 10.7171C10.0876 10.7378 10.185 10.7824 10.2694 10.8475C10.3538 10.9126 10.4229 10.9967 10.4718 11.0934C10.5206 11.1901 10.5479 11.297 10.5515 11.4061C11.0856 12.109 12.1657 11.739 12.0707 10.7526C11.4654 10.9005 11.0856 10.8389 10.9194 10.21C10.8008 9.7661 10.8957 9.48249 11.3349 9.27287C11.323 9.02625 11.3349 8.93993 11.4417 8.73031C11.1094 8.63166 10.8482 8.42204 10.8482 8.03978C10.8482 7.57121 11.1924 7.39858 11.5722 7.32459C11.3467 7.13963 11.1687 6.99166 11.1687 6.67106C11.1687 6.6464 11.1687 6.6094 11.0144 6.56008C8.84237 7.63286 8.23706 8.71798 8.04715 11.0978C8.34388 11.1718 8.47443 11.3691 8.58126 11.6404ZM27.0494 13.8723C24.3789 12.6145 21.3879 11.8993 18.2426 11.8993C15.0973 11.8993 12.1182 12.6022 9.44769 13.8599C9.26966 13.9463 9.06788 13.8599 8.9848 13.6873C8.90172 13.5023 8.9848 13.3667 9.06788 13.2187C8.52191 13.3914 8.11837 13.3914 7.64361 13.0214C6.7653 13.6133 5.75644 12.3926 6.4211 11.8377C6.11251 11.4308 6.11251 10.9869 6.56353 10.6909C6.47825 10.5691 6.43252 10.4223 6.43297 10.2717C6.43297 9.81542 6.77717 9.63046 7.15698 9.55648C6.93147 9.38384 6.75343 9.22354 6.75343 8.90294C6.75343 8.43437 7.12137 8.23707 7.51305 8.20008C7.40623 8.02745 7.32314 7.90414 7.32314 7.69452C7.32314 7.31226 7.63174 7.00399 8.02341 7.00399C8.1421 7.00399 8.26079 7.04098 8.36761 7.07798C8.2964 6.91767 8.23706 6.79437 8.23706 6.62173C8.23706 6.23948 8.54565 5.93121 8.93732 5.93121C9.12723 5.93121 9.23405 6.00519 9.40022 6.07918C9.37296 5.99132 9.357 5.9001 9.35274 5.8079C9.35274 5.42564 9.66133 5.10504 10.053 5.10504C10.2667 5.10504 10.3853 5.19136 10.5515 5.30233C10.6346 4.93241 10.8364 4.63647 11.2518 4.63647C11.5604 4.63647 11.7384 4.8091 11.8927 5.04339C12.0589 4.85842 12.2132 4.73511 12.4743 4.73511C12.5811 4.73511 12.6761 4.75978 12.7829 4.78444C12.7187 4.66313 12.6821 4.52814 12.6761 4.38985C12.6761 4.00759 12.9846 3.69932 13.3645 3.69932C13.59 3.69932 13.7087 3.79797 13.8867 3.90895C13.8748 3.82263 13.8392 3.71165 13.8392 3.61301C13.8392 3.23075 14.1478 2.92248 14.5395 2.92248C14.765 2.92248 14.8837 3.0088 15.0499 3.1321C15.1329 2.76218 15.3347 2.46624 15.762 2.46624C16.0231 2.46624 16.1655 2.57722 16.3317 2.74985C16.4623 2.45391 16.6522 2.24428 17.0082 2.24428C17.1032 2.24428 17.1863 2.26894 17.2812 2.30594C17.4949 2.05932 17.6848 1.94834 17.9934 1.87436V1.13451H17.4118V0.690596H17.9934V0.16037H18.4562V0.690596H19.0378V1.12218H18.4562V1.86203C18.753 1.93601 18.9547 2.04699 19.1684 2.29361C19.2633 2.25661 19.3464 2.23195 19.4414 2.23195C19.7974 2.23195 19.9873 2.45391 20.1179 2.73752C20.2841 2.56489 20.4384 2.45391 20.6876 2.45391C21.1149 2.45391 21.3167 2.76218 21.3879 3.11977C21.5541 2.99646 21.6846 2.91015 21.9101 2.91015C22.2899 2.91015 22.6104 3.21842 22.6104 3.60068C22.6104 3.69932 22.5867 3.8103 22.5748 3.89662C22.7528 3.78564 22.8715 3.69932 23.097 3.69932C23.4768 3.69932 23.7973 4.00759 23.7973 4.38985C23.7973 4.53782 23.7498 4.6488 23.6905 4.78444C23.7854 4.75978 23.8922 4.73511 23.9991 4.73511C24.2602 4.73511 24.4145 4.85842 24.5806 5.04339C24.7349 4.79677 24.913 4.63647 25.2216 4.63647C25.6489 4.63647 25.8506 4.94474 25.9337 5.30233C26.0999 5.19136 26.2186 5.10504 26.4322 5.10504C26.812 5.10504 27.1325 5.41331 27.1325 5.8079C27.1325 5.89421 27.1087 5.99286 27.0969 6.07918C27.2512 5.99286 27.3699 5.93121 27.5479 5.93121C27.9277 5.93121 28.2482 6.23948 28.2482 6.62173C28.2482 6.79437 28.1888 6.91767 28.1176 7.06564C28.2363 7.02865 28.3431 6.99166 28.4737 6.99166C28.8535 6.99166 29.1739 7.29993 29.1739 7.68219C29.1739 7.89181 29.0909 8.01512 28.984 8.18775C29.3876 8.22474 29.7555 8.42204 29.7555 8.89061C29.7555 9.21121 29.5775 9.37151 29.352 9.54414C29.7318 9.63046 30.076 9.80309 30.076 10.2593C30.076 10.432 30.0285 10.5429 29.9454 10.6786C30.4083 10.9745 30.3964 11.4061 30.0879 11.813C30.4914 12.146 30.2778 12.6638 29.9454 12.9351C29.6012 13.2064 29.2452 13.2557 28.8653 12.9968C28.3906 13.3667 27.987 13.3667 27.4411 13.1941L27.5242 13.3667C27.631 13.675 27.358 13.9832 27.0494 13.8723ZM10.3616 14.5751L9.79189 14.3655L9.74442 14.2792C9.69694 14.3039 9.66133 14.3039 9.62573 14.3162C9.47143 14.3285 9.4833 14.1559 9.55451 14.1189C12.1894 12.8735 15.1211 12.1829 18.2307 12.1829C21.3404 12.1829 24.272 12.8735 26.907 14.1189C26.9782 14.1559 26.99 14.3285 26.8358 14.3162C26.8001 14.3162 26.7645 14.3039 26.7171 14.2792L26.6696 14.3655L26.0999 14.5751L26.266 15.2287L26.2186 15.3396C26.5153 15.4753 26.3135 15.6972 26.183 15.6356C23.7617 14.4888 21.0674 13.8599 18.2189 13.8599C15.3703 13.8599 12.6761 14.4888 10.2548 15.6356C10.1954 15.6602 10.1242 15.6356 10.0886 15.5616C10.053 15.4876 10.0886 15.4383 10.1361 15.389C10.1598 15.3643 10.1954 15.352 10.231 15.3396L10.1836 15.2287L10.3616 14.5751ZM13.5069 14.0942L14.7175 13.2434L13.2458 13.0831L12.0351 13.9339L13.5069 14.0942ZM25.4471 14.8834C25.7201 14.8834 25.9456 14.6614 25.9456 14.3902C25.9456 14.1189 25.7201 13.8969 25.4471 13.8969C25.1741 13.8969 24.9486 14.1189 24.9486 14.3902C24.9605 14.6614 25.1741 14.8834 25.4471 14.8834ZM15.7857 13.601C16.0587 13.601 16.2842 13.379 16.2842 13.1078C16.2842 12.8365 16.0587 12.6145 15.7857 12.6145C15.5127 12.6145 15.2872 12.8365 15.2872 13.1078C15.2872 13.379 15.5127 13.601 15.7857 13.601ZM11.0381 14.8834C11.3111 14.8834 11.5366 14.6614 11.5366 14.3902C11.5366 14.1189 11.323 13.8969 11.0381 13.8969C10.7651 13.8969 10.5396 14.1189 10.5396 14.3902C10.5396 14.6614 10.7651 14.8834 11.0381 14.8834ZM20.6995 13.601C20.9725 13.601 21.198 13.379 21.198 13.1078C21.198 12.8365 20.9725 12.6145 20.6995 12.6145C20.4265 12.6145 20.2129 12.8365 20.2129 13.1078C20.2129 13.379 20.4384 13.601 20.6995 13.601ZM22.9783 14.0942L24.4501 13.9339L23.2394 13.0831L21.7677 13.2434L22.9783 14.0942ZM19.7856 12.9721L18.2426 12.3926L16.6996 12.9721L18.2426 13.5517L19.7856 12.9721ZM2.26696 32.6522C2.26696 41.4687 9.45956 48.6823 18.2426 48.6823C27.0375 48.6823 34.2301 41.4687 34.2301 32.6522C34.2301 23.8109 27.0375 16.622 18.2426 16.622C9.44769 16.622 2.26696 23.8109 2.26696 32.6522ZM35.963 32.6522C35.963 42.4305 28.0108 50.4209 18.2426 50.4209C8.47444 50.4209 0.522217 42.4305 0.522217 32.6522C0.522217 22.8615 8.47444 14.8711 18.2426 14.8711C28.0108 14.8587 35.963 22.8491 35.963 32.6522ZM15.9163 25.0933L18.2307 27.4609L20.3909 25.1673C19.6313 24.97 18.9073 24.8221 18.112 24.7974C17.3762 24.7604 16.6284 24.933 15.9163 25.0933ZM22.0051 23.441L25.3996 19.9267C29.7911 22.4545 32.7465 27.1896 32.7465 32.6028C32.7465 36.1294 31.5003 39.3601 29.3995 41.888L27.8209 40.2973C29.6012 38.1147 30.7644 35.9445 30.7644 32.4672C30.7644 28.7556 28.8297 24.6124 25.7438 22.4669L23.7023 24.5631C24.7468 25.3523 25.5776 26.1415 26.2779 27.2512L24.7231 28.5953C24.1059 27.5102 23.3107 26.7457 22.2899 26.0428L18.2307 30.334L14.0173 25.9812C11.8334 27.5102 10.5515 29.6927 10.4922 32.4055C10.4209 36.0185 12.7473 38.5216 16.0112 39.6191V32.3685H20.9962V33.8606H17.9459V35.7965H20.9606V37.4982H17.9459V39.9397C20.1773 40.0507 22.5629 38.7559 24.0109 37.1529L25.5064 38.6696C23.5955 40.8892 20.8419 42.0113 17.9578 42.0359V44.2678H16.0231V41.8016C11.6197 40.7042 8.42696 36.8323 8.4863 32.2082C8.52191 29.0392 10.2073 26.4374 12.6523 24.5878L10.5871 22.4422C7.38249 25.0687 5.66149 28.2747 5.51906 32.4425C5.41224 36.1295 7.31127 39.0889 8.51004 40.3343L7.12137 41.7523C4.97309 39.2368 3.7031 36.1294 3.7031 32.5905C3.7031 27.2142 6.65848 22.4792 11.0144 19.9514L14.4564 23.552C15.6789 23.0834 16.9489 22.8368 18.2545 22.8368C19.5601 22.8615 20.6876 23.0957 21.8983 23.552L22.0051 23.441Z" fill="#FCBF00"/>
<path d="M36.4853 32.6521C36.4853 42.7264 28.2957 50.951 18.2426 50.951C8.17773 50.951 0 42.7264 0 32.6521C0 22.5654 8.1896 14.3284 18.2426 14.3284C28.3075 14.3284 36.4853 22.5654 36.4853 32.6521ZM35.963 32.6521C35.963 22.8614 28.0108 14.871 18.2426 14.871C8.47446 14.871 0.522235 22.8614 0.522235 32.6521C0.522235 42.4304 8.47446 50.4208 18.2426 50.4208C28.0108 50.4208 35.963 42.4304 35.963 32.6521ZM2.78921 32.6521C2.78921 41.1727 9.74444 48.1519 18.2426 48.1519C26.7408 48.1519 33.696 41.185 33.696 32.6521C33.696 24.1068 26.7408 17.1645 18.2426 17.1645C9.74444 17.1522 2.78921 24.1068 2.78921 32.6521ZM2.26698 32.6521C2.26698 23.8109 9.45958 16.622 18.2426 16.622C27.0375 16.622 34.2301 23.8109 34.2301 32.6521C34.2301 41.4686 27.0375 48.6822 18.2426 48.6822C9.44771 48.6698 2.26698 41.4686 2.26698 32.6521ZM20.1179 29.1131L28.7585 38.053C29.7437 36.4253 30.2422 34.7607 30.2422 32.4548C30.2422 28.4349 27.9871 24.7727 25.815 23.145L24.5095 24.4891C25.5421 25.3152 26.2898 26.2154 26.9663 27.3498L24.5688 29.4337C23.9991 28.2993 23.3938 27.4978 22.3612 26.7456L20.1179 29.1131ZM31.073 40.4452C29.5182 43.0963 27.1444 45.1925 24.3314 46.4503L22.9309 45.0199L20.3197 42.3441C19.7263 42.4798 19.1091 42.5537 18.48 42.5661V44.8103H15.489V42.2208C11.0025 41.0001 7.90474 36.7829 7.95222 32.2082C7.96409 31.4437 8.07091 30.7038 8.24894 29.9886L6.77719 28.4843C6.33804 29.7173 6.08879 31.0491 6.04131 32.4671C5.95823 35.3032 7.1926 38.3736 9.24594 40.3342L7.08578 42.5414C4.54582 39.6807 3.15715 36.4623 3.15715 32.5904C3.15715 26.9429 6.24309 22.0106 11.0975 19.2978L14.5751 22.9477C15.7264 22.5285 17.032 22.3188 18.2308 22.3188C19.5245 22.3312 20.6995 22.5654 21.7558 22.9477L25.2928 19.2608C30.1828 21.9859 33.2688 26.9182 33.2688 32.6028C33.2806 35.4882 32.5091 38.1023 31.073 40.4452ZM15.4772 37.3995L11.0144 32.837C11.1212 35.3895 12.6761 37.8064 15.4772 38.8792V37.3995ZM22.0051 23.4409L21.8864 23.5642C20.7235 23.0986 19.4889 22.8562 18.2426 22.8491C16.937 22.8491 15.6671 23.0957 14.4446 23.5642L11.0025 19.9636C6.64663 22.4791 3.69125 27.2142 3.69125 32.5904C3.69125 36.1417 4.96124 39.2367 7.10952 41.7522L8.49819 40.3342C7.29942 39.0888 5.40039 36.1294 5.50721 32.4425C5.64964 28.2746 7.37064 25.0686 10.5753 22.4421L12.6405 24.5877C10.1955 26.4373 8.51006 29.0391 8.47445 32.2082C8.41511 36.8322 11.596 40.7041 16.0113 41.8016V44.2677H17.9459V42.0359C20.8419 42.0112 23.5955 40.8891 25.4946 38.6695L23.9991 37.1528C22.5511 38.7558 20.1773 40.0629 17.934 39.9396V37.4981H20.9488V35.7964H17.934V33.8605H20.9844V32.3685H15.9994V39.619C12.7354 38.5216 10.3972 36.0184 10.4803 32.4055C10.5397 29.6927 11.8215 27.5101 14.0054 25.9811L18.2189 30.3339L22.2781 26.0427C23.3107 26.7456 24.094 27.5101 24.7112 28.5952L26.2661 27.2512C25.5658 26.1414 24.735 25.3522 23.6905 24.563L25.732 22.4668C28.8179 24.6124 30.7525 28.7555 30.7525 32.4671C30.7525 35.9321 29.5894 38.1146 27.809 40.2972L29.3876 41.8879C31.4884 39.3601 32.7347 36.1417 32.7347 32.6028C32.7347 27.1895 29.7793 22.4545 25.3878 19.9266L22.0051 23.4409ZM15.9163 25.0933C16.6284 24.933 17.3762 24.7603 18.1121 24.785C18.9073 24.8097 19.6313 24.9576 20.3909 25.1549L18.2308 27.4485L15.9163 25.0933ZM16.9726 25.4139L18.2189 26.6963L19.382 25.4632C18.9666 25.3769 18.5394 25.3399 18.0883 25.3276C17.8153 25.3152 17.3999 25.3522 16.9726 25.4139ZM26.2542 14.649L26.361 15.0806L26.4085 15.2286L26.4916 15.1793L26.8951 14.9573L26.7883 14.5381L26.7646 14.4517L26.2542 14.649ZM27.0494 13.8722C27.358 13.9832 27.631 13.6626 27.4886 13.3913L27.4055 13.2187C27.9515 13.3913 28.355 13.3913 28.8298 13.0214C29.2096 13.2803 29.5538 13.231 29.9098 12.9597C30.254 12.6884 30.4558 12.1705 30.0523 11.8376C30.3609 11.4307 30.3727 10.9868 29.9098 10.7032C29.9929 10.5675 30.0404 10.4566 30.0404 10.2839C30.0404 9.82768 29.6962 9.64272 29.3164 9.56873C29.5419 9.38377 29.7199 9.2358 29.7199 8.9152C29.7199 8.44663 29.352 8.24933 28.9485 8.21234C29.0553 8.03971 29.1384 7.92873 29.1384 7.70678C29.1384 7.32452 28.8298 7.01625 28.4381 7.01625C28.3194 7.01625 28.2007 7.05324 28.082 7.09024C28.1532 6.92993 28.2126 6.81896 28.2126 6.64633C28.2126 6.26407 27.904 5.9558 27.5123 5.9558C27.3224 5.9558 27.2156 6.01745 27.0613 6.10377C27.0732 6.01745 27.0969 5.9188 27.0969 5.83249C27.0953 5.73856 27.076 5.64588 27.04 5.55972C27.0039 5.47356 26.9519 5.39562 26.8869 5.33035C26.8219 5.26509 26.7451 5.21376 26.661 5.17932C26.5769 5.14488 26.487 5.128 26.3966 5.12963C26.183 5.12963 26.0643 5.21595 25.8981 5.32692C25.815 4.957 25.6133 4.66106 25.186 4.66106C24.8774 4.66106 24.6994 4.83369 24.5451 5.06798C24.3789 4.88301 24.2246 4.75971 23.9635 4.75971C23.8567 4.75971 23.7498 4.78437 23.6549 4.80903C23.7142 4.67339 23.7617 4.56241 23.7617 4.41444C23.7617 4.03219 23.4531 3.72392 23.0614 3.72392C22.8359 3.72392 22.7172 3.81023 22.5392 3.92121C22.5511 3.83489 22.5748 3.72392 22.5748 3.62527C22.5748 3.24301 22.2662 2.93474 21.8745 2.93474C21.649 2.93474 21.5303 3.02106 21.3523 3.14437C21.2692 2.77444 21.0674 2.4785 20.652 2.4785C20.3909 2.4785 20.2485 2.58948 20.0823 2.76211C19.9399 2.46617 19.7619 2.25654 19.4058 2.25654C19.299 2.25654 19.2278 2.28121 19.1328 2.3182C18.9192 2.07158 18.7293 1.9606 18.4207 1.88662V1.14677H19.0022V0.690527H18.4207V0.160301H17.9578V0.690527H17.3762V1.12211H17.9578V1.86196C17.661 1.93594 17.4711 2.04692 17.2456 2.29354C17.1591 2.25549 17.0665 2.23458 16.9726 2.23188C16.6166 2.23188 16.4267 2.45384 16.2961 2.73745C16.1299 2.56482 15.9757 2.45384 15.7264 2.45384C15.2991 2.45384 15.0973 2.76211 15.0143 3.1197C14.8481 2.9964 14.7175 2.91008 14.5039 2.91008C14.1241 2.91008 13.8036 3.21835 13.8036 3.60061C13.8036 3.69925 13.8274 3.81023 13.8511 3.89655C13.6731 3.78557 13.5425 3.68692 13.3289 3.68692C13.24 3.68529 13.1517 3.70186 13.0691 3.73568C12.9864 3.7695 12.9109 3.81991 12.847 3.88403C12.7831 3.94816 12.7319 4.02474 12.6965 4.1094C12.661 4.19406 12.642 4.28514 12.6405 4.37745C12.6405 4.52542 12.6879 4.6364 12.7473 4.77204C12.6405 4.74738 12.5455 4.72271 12.4387 4.72271C12.1776 4.72271 12.0233 4.84602 11.8571 5.03098C11.7028 4.78437 11.5248 4.62407 11.2162 4.62407C10.7889 4.62407 10.5871 4.93234 10.5159 5.28993C10.3854 5.19129 10.2548 5.10497 10.0412 5.10497C9.95075 5.10334 9.86092 5.12022 9.7768 5.15466C9.69268 5.1891 9.61591 5.24042 9.55088 5.30569C9.48585 5.37096 9.43384 5.4489 9.39781 5.53506C9.36178 5.62122 9.34243 5.7139 9.34089 5.80783C9.34089 5.89414 9.36463 5.99279 9.3765 6.07911C9.24356 5.9845 9.0866 5.93301 8.92548 5.93114C8.54567 5.93114 8.22521 6.23941 8.22521 6.62166C8.22521 6.7943 8.28455 6.9176 8.35576 7.06557C8.24894 7.04091 8.14212 7.00392 8.01156 7.00392C7.63176 7.00392 7.31129 7.31219 7.31129 7.69445C7.31129 7.90407 7.39438 8.02738 7.5012 8.20001C7.10952 8.237 6.75345 8.4343 6.75345 8.90287C6.75345 9.22347 6.93149 9.38377 7.157 9.5564C6.77719 9.64272 6.43299 9.81535 6.43299 10.2716C6.43299 10.4442 6.48047 10.5552 6.56355 10.6908C6.11253 10.9868 6.11253 11.4307 6.42112 11.8376C5.75646 12.3925 6.76532 13.6256 7.64363 13.0214C8.11838 13.3913 8.52193 13.3913 9.0679 13.2187C8.99669 13.379 8.90174 13.5146 8.98482 13.6872C9.0679 13.8722 9.26968 13.9462 9.44771 13.8599C12.1182 12.6021 15.0973 11.8993 18.2426 11.8993C21.3998 11.9116 24.3789 12.6145 27.0494 13.8722ZM10.2311 14.649L9.86313 14.5134L9.7207 14.4641L9.69696 14.5504L9.59014 14.9573L9.99368 15.1793L10.0768 15.2286L10.1124 15.0683L10.2311 14.649ZM9.99368 15.3149L9.45958 15.019L9.59014 14.4887C9.38837 14.4641 9.29341 14.2298 9.38837 14.0695C9.27897 14.0861 9.16733 14.0664 9.06931 14.0133C8.9713 13.9601 8.8919 13.8763 8.84239 13.7736C8.79492 13.6749 8.78305 13.5763 8.79492 13.4776C8.39137 13.5639 7.96409 13.4653 7.64363 13.231C6.70598 13.7982 5.60216 12.4418 6.20748 11.8129C5.93449 11.406 6.00571 10.9128 6.34991 10.6415C6.2919 10.5277 6.26328 10.4003 6.26682 10.2716C6.26682 9.914 6.49233 9.60573 6.80093 9.47009C6.66349 9.31572 6.58719 9.11315 6.58729 8.90287C6.58729 8.49595 6.87214 8.16302 7.24008 8.06437C7.18207 7.9506 7.15345 7.82314 7.157 7.69445C7.157 7.21354 7.5368 6.83129 8.01156 6.83129H8.09465C8.06515 6.70203 8.06447 6.56747 8.09267 6.4379C8.12087 6.30833 8.1772 6.18716 8.25736 6.08366C8.33752 5.98016 8.43938 5.89706 8.55518 5.84071C8.67097 5.78435 8.79763 5.75624 8.92548 5.7585C9.02043 5.7585 9.10351 5.77083 9.18659 5.7955C9.18659 5.32692 9.57827 4.94467 10.0412 4.94467C10.1836 4.94467 10.3141 4.98166 10.4328 5.04332C10.5515 4.71038 10.872 4.4761 11.2399 4.4761C11.501 4.4761 11.7503 4.59941 11.9046 4.7967C12.0589 4.66106 12.2488 4.58707 12.4743 4.58707H12.5336C12.5218 4.52542 12.5099 4.46377 12.5099 4.40211C12.5099 3.92121 12.8897 3.53895 13.3645 3.53895C13.4832 3.53895 13.59 3.56361 13.6849 3.60061C13.6968 3.13203 14.0766 2.74978 14.5395 2.74978C14.6938 2.74978 14.8362 2.78677 14.9549 2.86076C15.0736 2.52782 15.3941 2.29354 15.762 2.29354C15.9638 2.29354 16.1418 2.35519 16.2842 2.4785C16.4385 2.24421 16.6997 2.08391 17.0083 2.08391C17.0913 2.08391 17.1625 2.09624 17.2338 2.12091C17.3762 1.97294 17.5424 1.86196 17.7441 1.77564L17.8272 1.73865V1.29474H17.2456V0.530226H17.8272V0H18.6224V0.530226H19.204V1.29474H18.6224V1.73865L18.7055 1.77564C18.8954 1.84963 19.0735 1.9606 19.2159 2.12091C19.2871 2.09624 19.3583 2.08391 19.4414 2.08391C19.75 2.08391 20.0111 2.24421 20.1654 2.4785C20.3078 2.36752 20.4977 2.29354 20.6876 2.29354C21.0556 2.29354 21.376 2.52782 21.4947 2.86076C21.6134 2.78677 21.7558 2.74978 21.9101 2.74978C22.3849 2.74978 22.7647 3.13203 22.7647 3.60061C22.8597 3.56361 22.9665 3.53895 23.0852 3.53895C23.5599 3.53895 23.9397 3.92121 23.9397 4.40211C23.9397 4.46377 23.9397 4.52542 23.916 4.58707H23.9753C24.1822 4.59062 24.3822 4.66422 24.5451 4.7967C24.6994 4.59941 24.9367 4.4761 25.2097 4.4761C25.5777 4.4761 25.8981 4.71038 26.0168 5.04332C26.1355 4.98166 26.2661 4.94467 26.4085 4.94467C26.8832 4.94467 27.2631 5.32692 27.2631 5.7955C27.3479 5.77029 27.4359 5.75784 27.5242 5.7585C27.9989 5.7585 28.3787 6.14076 28.3787 6.62166C28.3787 6.69565 28.3669 6.76963 28.355 6.84362H28.4381C28.9128 6.84362 29.2927 7.22587 29.2927 7.70678C29.2927 7.84242 29.257 7.96573 29.2096 8.0767C29.5894 8.16302 29.8624 8.50828 29.8624 8.9152C29.8624 9.13716 29.7793 9.33445 29.6369 9.49475C29.9573 9.61806 30.1828 9.92633 30.1828 10.2963C30.1828 10.4319 30.1472 10.5552 30.0997 10.6662C30.4439 10.9375 30.5152 11.4307 30.2422 11.8376C30.622 12.2322 30.2896 12.8611 29.9692 13.12C29.6606 13.3666 29.2214 13.5146 28.7942 13.2557C28.4618 13.4899 28.0464 13.5886 27.6429 13.5023C27.6903 13.8475 27.3817 14.1435 27.0494 14.0942C27.1444 14.2545 27.0494 14.4887 26.8476 14.5134L26.9782 15.0436L26.4441 15.3396C26.5153 15.4259 26.5272 15.5492 26.4797 15.6602C26.4085 15.8081 26.2423 15.8945 26.088 15.8205C23.6905 14.686 21.02 14.0572 18.1833 14.0572C15.3585 14.0572 12.6879 14.686 10.2904 15.8205C10.1361 15.8945 9.96995 15.8081 9.89873 15.6602C9.9106 15.5245 9.92247 15.4012 9.99368 15.3149ZM10.3616 14.5751L10.1955 15.2286L10.2429 15.3396C10.2192 15.3519 10.1836 15.3642 10.148 15.3889C10.1005 15.4259 10.0649 15.4752 10.1005 15.5615C10.1361 15.6355 10.2073 15.6602 10.2667 15.6355C12.6879 14.4887 15.3822 13.8599 18.2308 13.8599C21.0912 13.8599 23.7736 14.4887 26.1948 15.6355C26.3135 15.6972 26.5272 15.4752 26.2305 15.3396L26.2779 15.2286L26.1118 14.5751L26.6815 14.3654L26.729 14.2791C26.7764 14.3038 26.812 14.3038 26.8476 14.3161C27.0019 14.3284 26.9901 14.1558 26.9189 14.1188C24.1938 12.8349 21.2348 12.1746 18.2426 12.1829C15.133 12.1829 12.2013 12.8734 9.5664 14.1188C9.49519 14.1558 9.48332 14.3284 9.63761 14.3161C9.67322 14.3161 9.70883 14.3038 9.7563 14.2791L9.79191 14.3654L10.3616 14.5751ZM23.3938 6.9546C22.7172 5.24061 21.1268 4.01986 19.0141 4.13083C19.0141 4.2788 18.9666 4.41444 18.8954 4.53775V5.1173C18.9666 5.24061 19.0141 5.37625 19.0141 5.52422C19.0141 5.67219 18.9666 5.82016 18.8954 5.93114V6.30106C20.3434 6.10377 22.0526 6.25174 23.3938 6.9546ZM18.8836 6.52302C18.9843 6.67992 19.0232 6.87101 18.9923 7.05686C18.9614 7.24271 18.863 7.40914 18.7174 7.52182C18.9785 7.60813 19.1803 7.80542 19.2515 8.15069C19.7737 8.274 19.9162 8.66858 19.9162 9.08783C19.9162 9.5934 19.7144 10.025 18.9785 10.062C19.0616 10.3456 19.3227 10.5429 19.6313 10.5429C19.928 10.5429 20.1891 10.3456 20.2722 10.0743C20.2485 10.0003 20.2485 9.92633 20.2485 9.85234C20.2485 9.37144 20.6402 8.98919 21.1149 8.98919C21.5897 8.98919 21.9814 9.37144 21.9814 9.85234C21.9814 10.0003 21.9458 10.136 21.8745 10.2593C21.8864 10.5552 22.0882 10.8018 22.3849 10.8881C22.6816 10.9621 22.9784 10.8388 23.1326 10.5799C22.4324 10.3579 22.3374 9.88934 22.468 9.3961C22.5748 8.98919 22.8122 8.64392 23.3344 8.65625C23.4294 8.45896 23.5599 8.33565 23.7142 8.26167C23.6668 7.85475 23.5837 7.47249 23.4412 7.10257C22.0644 6.33805 20.2722 6.20241 18.8836 6.41204V6.52302ZM17.6492 4.13083C17.6492 4.26647 17.6967 4.37745 17.7679 4.48843V5.16662C17.6967 5.2776 17.6492 5.38858 17.6492 5.52422C17.6492 5.65986 17.6967 5.77083 17.7679 5.88181V6.57234C17.6967 6.68332 17.6492 6.7943 17.6492 6.92993C17.6492 7.33685 17.9459 7.44783 18.2426 7.58347C18.5394 7.44783 18.8361 7.32452 18.8361 6.92993C18.8361 6.80663 18.8005 6.68332 18.7293 6.597L18.7174 5.89414C18.7886 5.78317 18.8361 5.67219 18.8361 5.53655C18.8361 5.40091 18.7886 5.28993 18.7174 5.17895V4.48843C18.7886 4.37745 18.8361 4.26647 18.8361 4.13083C18.8361 4.08151 18.8242 4.03219 18.8242 3.97053C21.6134 3.76091 23.6193 5.67219 23.8923 8.36031C23.643 8.45896 23.5481 8.56994 23.4412 8.81655C22.9546 8.79189 22.741 8.98919 22.6223 9.4331C22.4561 10.062 22.7647 10.3086 23.37 10.4689C23.192 10.8758 22.8241 11.1594 22.3493 11.0361C22.1697 10.9932 22.0094 10.888 21.8951 10.7378C21.7807 10.5876 21.7191 10.4014 21.7202 10.2099C21.7909 10.1006 21.8281 9.97169 21.8271 9.84001C21.8255 9.74609 21.8062 9.6534 21.7701 9.56724C21.7341 9.48109 21.6821 9.40315 21.6171 9.33788C21.552 9.27261 21.4753 9.22129 21.3911 9.18685C21.307 9.15241 21.2172 9.13552 21.1268 9.13716C21.0364 9.13552 20.9466 9.15241 20.8624 9.18685C20.7783 9.22129 20.7015 9.27261 20.6365 9.33788C20.5715 9.40315 20.5195 9.48109 20.4834 9.56724C20.4474 9.6534 20.4281 9.74609 20.4265 9.84001C20.4265 9.914 20.4384 9.98798 20.4621 10.062C20.3553 10.4319 20.0348 10.6908 19.6432 10.6908C19.1565 10.6908 18.8717 10.3332 18.8005 9.88934C19.4177 9.88934 19.7737 9.72904 19.7737 9.0755C19.7737 8.60693 19.6076 8.37264 19.1328 8.274C19.026 7.69445 18.7293 7.65745 18.2545 7.58347C17.7679 7.66978 17.483 7.69445 17.3762 8.274C16.9014 8.37264 16.7353 8.60693 16.7353 9.0755C16.7353 9.72904 17.0913 9.88934 17.7085 9.88934C17.6373 10.3332 17.3525 10.6908 16.8658 10.6908C16.6824 10.6912 16.5038 10.6302 16.3563 10.517C16.2089 10.4037 16.1004 10.2442 16.0469 10.062C16.0706 9.98798 16.0825 9.914 16.0825 9.84001C16.0809 9.74609 16.0616 9.6534 16.0256 9.56724C15.9895 9.48109 15.9375 9.40315 15.8725 9.33788C15.8075 9.27261 15.7307 9.22129 15.6466 9.18685C15.5624 9.15241 15.4726 9.13552 15.3822 9.13716C14.9905 9.13716 14.6819 9.44543 14.6819 9.84001C14.6819 9.97565 14.7175 10.099 14.7888 10.2099C14.7769 10.6045 14.5395 10.9375 14.1597 11.0361C13.6849 11.1594 13.317 10.8758 13.139 10.4689C13.7443 10.3086 14.041 10.062 13.8867 9.4331C13.768 8.98919 13.5544 8.79189 13.0678 8.81655C12.9491 8.56994 12.866 8.45896 12.6167 8.36031C12.8897 5.67219 14.8837 3.76091 17.6848 3.97053C17.661 4.03219 17.6492 4.08151 17.6492 4.13083ZM13.0321 7.1149C12.9016 7.48482 12.8066 7.86708 12.771 8.274C12.9253 8.34798 13.0559 8.47129 13.1508 8.66858C13.6849 8.65625 13.9223 9.00152 14.0291 9.40843C14.1597 9.90167 14.0647 10.3702 13.3645 10.5922C13.5188 10.8388 13.8155 10.9745 14.1122 10.9005C14.4089 10.8265 14.6107 10.5675 14.6226 10.2716C14.5515 10.1488 14.5146 10.008 14.5158 9.86468C14.5158 9.38377 14.9074 9.00152 15.3822 9.00152C15.857 9.00152 16.2486 9.38377 16.2486 9.86468C16.2486 9.93866 16.2368 10.0126 16.2249 10.0866C16.3199 10.3579 16.5691 10.5552 16.8658 10.5552C17.1744 10.5552 17.4237 10.3579 17.5186 10.0743C16.7827 10.0373 16.581 9.60573 16.581 9.10016C16.581 8.66858 16.7234 8.28633 17.2456 8.16302C17.3287 7.81776 17.5305 7.63279 17.7797 7.53415C17.693 7.4636 17.6224 7.37389 17.5732 7.27153C17.5239 7.16916 17.4972 7.05669 17.4949 6.94227C17.4949 6.7943 17.5424 6.64633 17.6136 6.53535V6.41204C16.2012 6.21475 14.4089 6.35038 13.0321 7.1149ZM17.483 4.13083C15.3585 4.00752 13.7799 5.24061 13.0915 6.9546C14.4208 6.26407 16.1418 6.09144 17.5898 6.30106V5.93114C17.5186 5.80783 17.4711 5.67219 17.4711 5.52422C17.4711 5.37625 17.5186 5.22828 17.5898 5.1173V4.53775C17.5226 4.41328 17.4859 4.27353 17.483 4.13083ZM26.1236 11.9733L26.1711 11.9363C26.2661 12.0102 26.3491 12.0596 26.4678 12.0966C26.5153 12.1089 26.5747 12.1089 26.6221 12.1212C26.6815 12.4295 26.7883 12.6761 27.0019 12.8981L26.907 13.0337C26.3966 12.8117 25.8863 12.6021 25.3521 12.4172L25.3759 12.2569C25.637 12.2322 25.91 12.1336 26.1236 11.9733ZM26.1711 12.1336C26.0287 12.2322 25.8625 12.3062 25.6963 12.3555C26.0287 12.4788 26.361 12.6145 26.6815 12.7501C26.5876 12.6033 26.5193 12.4405 26.4797 12.2692L26.4322 12.2569C26.3373 12.2322 26.2542 12.1829 26.1711 12.1336ZM18.1595 10.0496H18.3257C18.3851 10.4935 18.6699 10.8758 19.0616 11.0608L19.026 11.2211C18.7649 11.2087 18.5037 11.2087 18.2426 11.2087C17.9815 11.2087 17.7204 11.2087 17.4593 11.2211L17.4237 11.0608C17.8153 10.8635 18.1002 10.4935 18.1595 10.0496ZM18.2426 10.3826C18.1477 10.6415 17.9815 10.8635 17.756 11.0361C17.9222 11.0361 18.0765 11.0238 18.2426 11.0238C18.4088 11.0238 18.5631 11.0238 18.7293 11.0361C18.5128 10.8683 18.3446 10.6424 18.2426 10.3826ZM9.59014 13.0214L9.49519 12.8857C9.70883 12.6514 9.81565 12.4172 9.87499 12.1089C10.0768 12.0842 10.148 12.0596 10.3141 11.9363C10.5634 12.1212 10.8126 12.2322 11.1212 12.2445L11.145 12.4048C10.6109 12.5898 10.1005 12.7994 9.59014 13.0214ZM9.81565 12.7501C10.1361 12.6145 10.4684 12.4788 10.8008 12.3555C10.6346 12.3062 10.4684 12.2322 10.326 12.1336C10.2548 12.1829 10.1598 12.2199 10.0768 12.2445L10.0293 12.2569C9.96995 12.4295 9.9106 12.6021 9.81565 12.7501ZM13.6731 11.5293V11.6896C13.1627 11.8006 12.6761 11.9239 12.1776 12.0719L12.1064 11.9239C12.4268 11.6403 12.6167 11.2087 12.5574 10.7648L12.7117 10.7278C12.8778 11.1471 13.2458 11.443 13.6731 11.5293ZM13.3407 11.591C13.0915 11.48 12.8778 11.3074 12.7236 11.0854C12.6879 11.3567 12.593 11.6157 12.4268 11.8253C12.7236 11.739 13.0321 11.665 13.3407 11.591ZM14.7294 11.48L14.6701 11.332C14.9668 11.1348 15.1567 10.8758 15.2754 10.5429H15.3703C15.4653 10.5429 15.5365 10.5182 15.6315 10.4935C15.8332 10.7895 16.0706 10.9991 16.4148 11.0978L16.4029 11.2581C15.8332 11.3197 15.2754 11.3937 14.7294 11.48ZM15.3941 10.7155C15.311 10.9251 15.1804 11.1101 15.0143 11.2704C15.3585 11.2211 15.7145 11.1717 16.0706 11.1348C15.8688 11.0238 15.7027 10.8758 15.5721 10.6908C15.5128 10.7032 15.4534 10.7155 15.3941 10.7155ZM20.0823 11.2704L20.0705 11.1101C20.4147 10.9991 20.652 10.7895 20.8538 10.5059C20.9488 10.5305 21.02 10.5552 21.1149 10.5552H21.2099C21.3286 10.8881 21.5185 11.1471 21.8152 11.3444L21.7558 11.4923C21.2099 11.3937 20.652 11.3197 20.0823 11.2704ZM21.0912 10.7155C21.035 10.7142 20.9793 10.706 20.925 10.6908C20.7945 10.8758 20.6164 11.0238 20.4147 11.1348C20.7707 11.1717 21.1268 11.2087 21.471 11.2704C21.3167 11.1224 21.198 10.9498 21.1031 10.7525L21.0912 10.7155ZM24.3908 11.9239L24.3195 12.0719C23.8329 11.9239 23.3344 11.8006 22.8241 11.6896V11.5293C23.2395 11.443 23.6074 11.1471 23.7736 10.7402L23.9279 10.7772C23.8804 11.2211 24.0584 11.6526 24.3908 11.9239ZM24.0703 11.8253C23.9041 11.6157 23.7973 11.3567 23.7736 11.0854C23.6193 11.3074 23.3938 11.48 23.1564 11.591C23.4531 11.665 23.7617 11.739 24.0703 11.8253ZM24.3077 9.00152C23.9397 8.90287 23.5599 9.12482 23.465 9.49475C23.37 9.86468 23.5955 10.2469 23.9635 10.3332C24.3314 10.4319 24.7112 10.2099 24.8062 9.84001C24.9011 9.47009 24.6756 9.08783 24.3077 9.00152ZM24.3314 8.89054C24.7587 9.00152 25.0198 9.4331 24.913 9.86468C24.8062 10.2963 24.367 10.5552 23.9397 10.4442C23.8396 10.4207 23.7449 10.3768 23.6612 10.3149C23.5776 10.253 23.5066 10.1744 23.4525 10.0838C23.3984 9.99308 23.3621 9.89213 23.3459 9.78677C23.3298 9.68141 23.3339 9.57376 23.3582 9.47009C23.465 9.03851 23.9041 8.77956 24.3314 8.89054ZM24.9367 7.64512C24.7231 7.64512 24.5569 7.81776 24.5569 8.02738C24.5569 8.237 24.735 8.40964 24.9367 8.40964C25.1504 8.40964 25.3165 8.237 25.3165 8.02738C25.3165 7.80542 25.1504 7.64512 24.9367 7.64512ZM24.9367 7.53415C25.2097 7.53415 25.4352 7.7561 25.4352 8.02738C25.4352 8.29866 25.2097 8.52061 24.9367 8.52061C24.6637 8.52061 24.4382 8.29866 24.4382 8.02738C24.4382 7.7561 24.6637 7.53415 24.9367 7.53415ZM24.6163 6.26407C24.4026 6.26407 24.2365 6.4367 24.2365 6.64633C24.2365 6.85595 24.4145 7.02858 24.6163 7.02858C24.8299 7.02858 24.9961 6.85595 24.9961 6.64633C24.9961 6.4367 24.8299 6.26407 24.6163 6.26407ZM24.6163 6.15309C24.8893 6.15309 25.1148 6.37505 25.1148 6.64633C25.1148 6.9176 24.8893 7.13956 24.6163 7.13956C24.3433 7.13956 24.1178 6.9176 24.1178 6.64633C24.1178 6.37505 24.3433 6.15309 24.6163 6.15309ZM29.3639 9.88934C29.1502 9.88934 28.9841 10.062 28.9841 10.2716C28.9841 10.4812 29.1502 10.6538 29.3639 10.6538C29.5775 10.6538 29.7437 10.4812 29.7437 10.2716C29.7437 10.062 29.5775 9.88934 29.3639 9.88934ZM29.3639 9.77836C29.6369 9.77836 29.8624 10.0003 29.8624 10.2716C29.8624 10.5429 29.6369 10.7648 29.3639 10.7648C29.0909 10.7648 28.8654 10.5429 28.8654 10.2716C28.8654 10.0003 29.0909 9.77836 29.3639 9.77836ZM29.0434 8.52061C28.8298 8.52061 28.6636 8.69324 28.6636 8.90287C28.6636 9.11249 28.8298 9.28513 29.0434 9.28513C29.257 9.28513 29.4232 9.11249 29.4232 8.90287C29.4232 8.69324 29.257 8.52061 29.0434 8.52061ZM29.0434 8.40964C29.3164 8.40964 29.5419 8.63159 29.5419 8.90287C29.5419 9.17415 29.3164 9.3961 29.0434 9.3961C28.7704 9.3961 28.5449 9.17415 28.5449 8.90287C28.5568 8.63159 28.7704 8.40964 29.0434 8.40964ZM28.4737 7.31219C28.26 7.31219 28.0939 7.48482 28.0939 7.69445C28.0939 7.90407 28.2719 8.0767 28.4737 8.0767C28.6873 8.0767 28.8535 7.90407 28.8535 7.69445C28.8535 7.48482 28.6873 7.31219 28.4737 7.31219ZM28.4737 7.20121C28.7467 7.20121 28.9722 7.42317 28.9722 7.69445C28.9722 7.96573 28.7467 8.18768 28.4737 8.18768C28.2007 8.18768 27.9752 7.96573 27.9752 7.69445C27.9752 7.42317 28.2007 7.20121 28.4737 7.20121ZM27.5598 6.23941C27.3461 6.23941 27.18 6.41204 27.18 6.62166C27.18 6.83129 27.3461 7.00392 27.5598 7.00392C27.7734 7.00392 27.9396 6.83129 27.9396 6.62166C27.9396 6.41204 27.7734 6.23941 27.5598 6.23941ZM27.5598 6.12843C27.8328 6.12843 28.0583 6.35038 28.0583 6.62166C28.0583 6.89294 27.8446 7.1149 27.5598 7.1149C27.2868 7.1149 27.0613 6.89294 27.0613 6.62166C27.0732 6.35038 27.2868 6.12843 27.5598 6.12843ZM26.4441 5.42557C26.2305 5.42557 26.0643 5.5982 26.0643 5.80783C26.0643 6.01745 26.2305 6.19008 26.4441 6.19008C26.6577 6.19008 26.8239 6.01745 26.8239 5.80783C26.8239 5.5982 26.6577 5.42557 26.4441 5.42557ZM26.4441 5.31459C26.7171 5.31459 26.9426 5.53655 26.9426 5.80783C26.9426 6.07911 26.7171 6.30106 26.4441 6.30106C26.1711 6.30106 25.9456 6.07911 25.9456 5.80783C25.9456 5.53655 26.1711 5.31459 26.4441 5.31459ZM25.2335 4.94467C25.0198 4.94467 24.8537 5.1173 24.8537 5.32692C24.8537 5.53655 25.0198 5.70918 25.2335 5.70918C25.4471 5.70918 25.6133 5.53655 25.6133 5.32692C25.6251 5.1173 25.4471 4.94467 25.2335 4.94467ZM25.2335 4.83369C25.5064 4.83369 25.732 5.05565 25.732 5.32692C25.732 5.5982 25.5064 5.82016 25.2335 5.82016C24.9605 5.82016 24.735 5.5982 24.735 5.32692C24.7468 5.05565 24.9605 4.83369 25.2335 4.83369ZM24.011 5.05565C23.7973 5.05565 23.6311 5.22828 23.6311 5.4379C23.6311 5.64753 23.7973 5.82016 24.011 5.82016C24.2246 5.82016 24.3908 5.64753 24.3908 5.4379C24.3908 5.22828 24.2246 5.05565 24.011 5.05565ZM24.011 4.94467C24.2839 4.94467 24.5095 5.16662 24.5095 5.4379C24.5095 5.70918 24.2839 5.93114 24.011 5.93114C23.738 5.93114 23.5125 5.70918 23.5125 5.4379C23.5125 5.16662 23.738 4.94467 24.011 4.94467ZM23.1089 4.00752C22.8953 4.00752 22.7291 4.18016 22.7291 4.38978C22.7291 4.59941 22.8953 4.77204 23.1089 4.77204C23.3226 4.77204 23.4887 4.59941 23.4887 4.38978C23.5006 4.18016 23.3226 4.00752 23.1089 4.00752ZM23.1089 3.90888C23.3819 3.90888 23.6074 4.13083 23.6074 4.40211C23.6074 4.67339 23.3819 4.89535 23.1089 4.89535C22.8359 4.89535 22.6104 4.67339 22.6104 4.40211C22.6223 4.13083 22.8359 3.90888 23.1089 3.90888ZM21.9339 3.23068C21.7202 3.23068 21.5541 3.40331 21.5541 3.61294C21.5541 3.82256 21.7202 3.99519 21.9339 3.99519C22.1475 3.99519 22.3137 3.82256 22.3137 3.61294C22.3137 3.40331 22.1475 3.23068 21.9339 3.23068ZM21.9339 3.1197C22.2069 3.1197 22.4324 3.34166 22.4324 3.61294C22.4324 3.88422 22.2069 4.10617 21.9339 4.10617C21.6609 4.10617 21.4354 3.88422 21.4354 3.61294C21.4473 3.34166 21.6609 3.1197 21.9339 3.1197ZM20.7114 2.77444C20.4977 2.77444 20.3316 2.94707 20.3316 3.1567C20.3316 3.36632 20.4977 3.53895 20.7114 3.53895C20.925 3.53895 21.0912 3.36632 21.0912 3.1567C21.1031 2.94707 20.925 2.77444 20.7114 2.77444ZM20.7114 2.66346C20.9844 2.66346 21.2099 2.88542 21.2099 3.1567C21.2099 3.42797 20.9844 3.64993 20.7114 3.64993C20.4384 3.64993 20.2129 3.42797 20.2129 3.1567C20.2247 2.88542 20.4384 2.66346 20.7114 2.66346ZM19.4651 2.55248C19.2515 2.55248 19.0853 2.72512 19.0853 2.93474C19.0853 3.14437 19.2515 3.317 19.4651 3.317C19.6788 3.317 19.8449 3.14437 19.8449 2.93474C19.8449 2.72512 19.6788 2.55248 19.4651 2.55248ZM19.4651 2.44151C19.7381 2.44151 19.9636 2.66346 19.9636 2.93474C19.9636 3.20602 19.7381 3.42797 19.4651 3.42797C19.1921 3.42797 18.9785 3.20602 18.9785 2.93474C18.9666 2.66346 19.1921 2.44151 19.4651 2.44151ZM7.60802 12.6761C7.94035 12.4911 8.05904 12.0719 7.881 11.739C7.78865 11.5767 7.63948 11.4579 7.46471 11.4073C7.28995 11.3568 7.10313 11.3784 6.94336 11.4677C6.61102 11.6526 6.49233 12.0719 6.67037 12.4048C6.8484 12.7378 7.27569 12.8611 7.60802 12.6761ZM7.65549 12.7748C7.26382 12.9844 6.78906 12.8487 6.57542 12.4542C6.52491 12.3617 6.49311 12.2596 6.48195 12.1539C6.47079 12.0483 6.4805 11.9414 6.51051 11.8398C6.54051 11.7382 6.59017 11.6441 6.65643 11.5631C6.7227 11.4822 6.80418 11.4161 6.89588 11.369C7.28756 11.1594 7.77418 11.2951 7.97596 11.6896C8.1896 12.0719 8.04717 12.5651 7.65549 12.7748ZM12.5218 10.3332C12.8897 10.2346 13.1152 9.86468 13.0203 9.49475C12.9253 9.12482 12.5455 8.90287 12.1776 9.00152C11.8096 9.10016 11.5841 9.47009 11.6791 9.84001C11.7859 10.2099 12.1538 10.4319 12.5218 10.3332ZM12.5574 10.4442C12.3544 10.4995 12.1386 10.4698 11.9566 10.3614C11.7745 10.253 11.6408 10.0746 11.5841 9.86468C11.4773 9.4331 11.7266 9.00152 12.1657 8.89054C12.593 8.77956 13.0321 9.03851 13.139 9.47009C13.2458 9.90167 12.9847 10.3332 12.5574 10.4442ZM18.2426 9.60573C18.6224 9.60573 18.931 9.29746 18.931 8.9152C18.9295 8.8229 18.9104 8.73181 18.875 8.64715C18.8396 8.56249 18.7884 8.48591 18.7245 8.42178C18.6606 8.35766 18.5851 8.30725 18.5024 8.27343C18.4198 8.23961 18.3315 8.22304 18.2426 8.22467C18.1538 8.22304 18.0655 8.23961 17.9828 8.27343C17.9001 8.30725 17.8247 8.35766 17.7607 8.42178C17.6968 8.48591 17.6457 8.56249 17.6102 8.64715C17.5748 8.73181 17.5558 8.8229 17.5542 8.9152C17.5542 9.29746 17.8628 9.60573 18.2426 9.60573ZM18.2426 9.71671C18.1398 9.71834 18.0376 9.6989 17.9419 9.6595C17.8463 9.6201 17.7591 9.56151 17.6852 9.48709C17.6114 9.41266 17.5524 9.32384 17.5116 9.22572C17.4708 9.12759 17.449 9.02208 17.4474 8.9152C17.4474 8.47129 17.8035 8.1137 18.2426 8.1137C18.6818 8.1137 19.0379 8.47129 19.0379 8.9152C19.0497 9.35911 18.6818 9.71671 18.2426 9.71671ZM11.5604 8.40964C11.774 8.40964 11.9402 8.237 11.9402 8.02738C11.9402 7.81776 11.774 7.64512 11.5604 7.64512C11.3467 7.64512 11.1806 7.81776 11.1806 8.02738C11.1687 8.237 11.3467 8.40964 11.5604 8.40964ZM11.5604 8.52061C11.2874 8.52061 11.0738 8.29866 11.0738 8.02738C11.0738 7.7561 11.2993 7.53415 11.5604 7.53415C11.8334 7.53415 12.0589 7.7561 12.0589 8.02738C12.047 8.29866 11.8334 8.52061 11.5604 8.52061ZM11.8809 7.02858C12.0945 7.02858 12.2607 6.85595 12.2607 6.64633C12.2607 6.4367 12.0945 6.26407 11.8809 6.26407C11.6672 6.26407 11.501 6.4367 11.501 6.64633C11.4892 6.85595 11.6672 7.02858 11.8809 7.02858ZM11.8809 7.13956C11.6079 7.13956 11.3824 6.9176 11.3824 6.64633C11.3824 6.37505 11.6079 6.15309 11.8809 6.15309C12.1538 6.15309 12.3793 6.37505 12.3793 6.64633C12.3675 6.9176 12.142 7.13956 11.8809 7.13956ZM7.12139 10.6662C7.33503 10.6662 7.5012 10.4935 7.5012 10.2839C7.5012 10.0743 7.33503 9.90167 7.12139 9.90167C6.90775 9.90167 6.74158 10.0743 6.74158 10.2839C6.74158 10.4935 6.90775 10.6662 7.12139 10.6662ZM7.12139 10.7772C6.8484 10.7772 6.62289 10.5552 6.62289 10.2839C6.62289 10.0126 6.8484 9.79069 7.12139 9.79069C7.39438 9.79069 7.60802 10.0126 7.60802 10.2839C7.61989 10.5552 7.39438 10.7772 7.12139 10.7772ZM7.44185 9.28513C7.65549 9.28513 7.82166 9.11249 7.82166 8.90287C7.81858 8.80037 7.7772 8.70315 7.70631 8.63179C7.63541 8.56044 7.54056 8.52056 7.44185 8.52061C7.22821 8.52061 7.06205 8.69324 7.06205 8.90287C7.06205 9.11249 7.22821 9.28513 7.44185 9.28513ZM7.44185 9.3961C7.16887 9.3961 6.94336 9.17415 6.94336 8.90287C6.94336 8.63159 7.16887 8.40964 7.44185 8.40964C7.71484 8.40964 7.94035 8.63159 7.94035 8.90287C7.94035 9.17415 7.71484 9.3961 7.44185 9.3961ZM8.01156 8.0767C8.22521 8.0767 8.39137 7.90407 8.39137 7.69445C8.39137 7.48482 8.22521 7.31219 8.01156 7.31219C7.79792 7.31219 7.63176 7.48482 7.63176 7.69445C7.63176 7.90407 7.80979 8.0767 8.01156 8.0767ZM8.01156 8.18768C7.73858 8.18768 7.51307 7.96573 7.51307 7.69445C7.51307 7.42317 7.73858 7.20121 8.01156 7.20121C8.28455 7.20121 8.51006 7.42317 8.51006 7.69445C8.51006 7.96573 8.28455 8.18768 8.01156 8.18768ZM8.92548 7.00392C9.13912 7.00392 9.30528 6.83129 9.30528 6.62166C9.30528 6.41204 9.13912 6.23941 8.92548 6.23941C8.71183 6.23941 8.54567 6.41204 8.54567 6.62166C8.54567 6.83129 8.71183 7.00392 8.92548 7.00392ZM8.92548 7.1149C8.65249 7.1149 8.42698 6.89294 8.42698 6.62166C8.42698 6.35038 8.65249 6.12843 8.92548 6.12843C9.19846 6.12843 9.42397 6.35038 9.42397 6.62166C9.42397 6.89294 9.19846 7.1149 8.92548 7.1149ZM10.0412 6.19008C10.2548 6.19008 10.421 6.01745 10.421 5.80783C10.421 5.5982 10.2548 5.42557 10.0412 5.42557C9.82752 5.42557 9.66135 5.5982 9.66135 5.80783C9.66135 6.01745 9.83939 6.19008 10.0412 6.19008ZM10.0412 6.30106C9.76817 6.30106 9.54266 6.07911 9.54266 5.80783C9.54266 5.53655 9.76817 5.31459 10.0412 5.31459C10.3141 5.31459 10.5397 5.53655 10.5397 5.80783C10.5397 6.07911 10.3141 6.30106 10.0412 6.30106ZM11.2518 5.72151C11.4654 5.72151 11.6316 5.54888 11.6316 5.33926C11.6316 5.12963 11.4654 4.957 11.2518 4.957C11.0382 4.957 10.872 5.12963 10.872 5.33926C10.872 5.54888 11.0382 5.72151 11.2518 5.72151ZM11.2518 5.83249C10.9788 5.83249 10.7533 5.61053 10.7533 5.33926C10.7533 5.06798 10.9788 4.84602 11.2518 4.84602C11.5248 4.84602 11.7503 5.06798 11.7503 5.33926C11.7384 5.61053 11.5248 5.83249 11.2518 5.83249ZM12.4743 5.82016C12.6879 5.82016 12.8541 5.64753 12.8541 5.4379C12.8541 5.22828 12.6879 5.05565 12.4743 5.05565C12.2607 5.05565 12.0945 5.22828 12.0945 5.4379C12.0945 5.64753 12.2607 5.82016 12.4743 5.82016ZM12.4743 5.93114C12.2013 5.93114 11.9758 5.70918 11.9758 5.4379C11.9758 5.16662 12.2013 4.94467 12.4743 4.94467C12.7473 4.94467 12.9728 5.16662 12.9728 5.4379C12.9728 5.70918 12.7473 5.93114 12.4743 5.93114ZM13.3763 4.78437C13.59 4.78437 13.7562 4.61174 13.7562 4.40211C13.7562 4.19249 13.59 4.01986 13.3763 4.01986C13.1627 4.01986 12.9965 4.19249 12.9965 4.40211C12.9965 4.61174 13.1627 4.78437 13.3763 4.78437ZM13.3763 4.89535C13.1034 4.89535 12.8778 4.67339 12.8778 4.40211C12.8778 4.13083 13.1034 3.90888 13.3763 3.90888C13.6493 3.90888 13.8748 4.13083 13.8748 4.40211C13.8748 4.67339 13.6493 4.89535 13.3763 4.89535ZM14.5514 3.99519C14.765 3.99519 14.9312 3.82256 14.9312 3.61294C14.9312 3.40331 14.765 3.23068 14.5514 3.23068C14.3377 3.23068 14.1716 3.40331 14.1716 3.61294C14.1716 3.82256 14.3377 3.99519 14.5514 3.99519ZM14.5514 4.10617C14.2784 4.10617 14.0529 3.88422 14.0529 3.61294C14.0529 3.34166 14.2784 3.1197 14.5514 3.1197C14.8244 3.1197 15.0499 3.34166 15.0499 3.61294C15.0499 3.88422 14.8244 4.10617 14.5514 4.10617ZM15.7739 3.53895C15.9875 3.53895 16.1537 3.36632 16.1537 3.1567C16.1537 2.94707 15.9875 2.77444 15.7739 2.77444C15.5602 2.77444 15.3941 2.94707 15.3941 3.1567C15.3941 3.36632 15.5602 3.53895 15.7739 3.53895ZM15.7739 3.64993C15.5009 3.64993 15.2754 3.42797 15.2754 3.1567C15.2754 2.88542 15.5009 2.66346 15.7739 2.66346C16.0469 2.66346 16.2724 2.88542 16.2724 3.1567C16.2724 3.42797 16.0469 3.64993 15.7739 3.64993ZM18.2426 7.31219C18.4563 7.31219 18.6224 7.13956 18.6224 6.92993C18.6224 6.72031 18.4563 6.54768 18.2426 6.54768C18.029 6.54768 17.8628 6.72031 17.8628 6.92993C17.8628 7.13956 18.029 7.31219 18.2426 7.31219ZM18.2426 7.42317C17.9696 7.42317 17.7441 7.20121 17.7441 6.92993C17.7441 6.65866 17.9696 6.4367 18.2426 6.4367C18.5156 6.4367 18.7411 6.65866 18.7411 6.92993C18.7411 7.20121 18.5156 7.42317 18.2426 7.42317ZM18.2426 5.91881C18.4563 5.91881 18.6224 5.74617 18.6224 5.53655C18.6224 5.32692 18.4563 5.15429 18.2426 5.15429C18.029 5.15429 17.8628 5.32692 17.8628 5.53655C17.8628 5.74617 18.029 5.91881 18.2426 5.91881ZM18.2426 6.02978C17.9696 6.02978 17.7441 5.80783 17.7441 5.53655C17.7441 5.26527 17.9696 5.04332 18.2426 5.04332C18.5156 5.04332 18.7411 5.26527 18.7411 5.53655C18.7411 5.80783 18.5156 6.02978 18.2426 6.02978ZM18.2426 4.52542C18.4563 4.52542 18.6224 4.35279 18.6224 4.14316C18.6224 3.93354 18.4563 3.76091 18.2426 3.76091C18.029 3.76091 17.8628 3.93354 17.8628 4.14316C17.8628 4.35279 18.029 4.52542 18.2426 4.52542ZM18.2426 4.62407C17.9696 4.62407 17.7441 4.40211 17.7441 4.13083C17.7441 3.85955 17.9696 3.6376 18.2426 3.6376C18.5156 3.6376 18.7411 3.85955 18.7411 4.13083C18.7411 4.41444 18.5156 4.62407 18.2426 4.62407ZM17.032 3.317C17.2456 3.317 17.4118 3.14437 17.4118 2.93474C17.4087 2.83224 17.3673 2.73502 17.2964 2.66366C17.2255 2.59231 17.1307 2.55243 17.032 2.55248C16.8183 2.55248 16.6403 2.72512 16.6403 2.93474C16.6403 3.1567 16.8183 3.317 17.032 3.317ZM17.032 3.44031C16.759 3.44031 16.5335 3.21835 16.5335 2.94707C16.5335 2.67579 16.759 2.45384 17.032 2.45384C17.305 2.45384 17.5305 2.67579 17.5305 2.94707C17.5186 3.21835 17.305 3.44031 17.032 3.44031ZM29.5419 11.4677C29.3819 11.3793 29.1954 11.3582 29.0209 11.4087C28.8464 11.4592 28.6972 11.5774 28.6042 11.739C28.4262 12.0719 28.5449 12.4911 28.8772 12.6761C29.2096 12.8611 29.625 12.7378 29.8149 12.4048C30.0048 12.0719 29.8861 11.6526 29.5419 11.4677ZM29.6012 11.369C29.9929 11.5787 30.1235 12.0719 29.9098 12.4542C29.8029 12.6437 29.6295 12.783 29.426 12.8428C29.2224 12.9025 29.0045 12.8782 28.8179 12.7748C28.7268 12.727 28.6461 12.6603 28.5808 12.5789C28.5155 12.4975 28.4668 12.4031 28.4379 12.3015C28.409 12.1998 28.4004 12.0931 28.4127 11.9879C28.425 11.8827 28.4579 11.7812 28.5093 11.6896C28.6162 11.5 28.7896 11.3608 28.9932 11.301C29.1967 11.2413 29.4146 11.2656 29.6012 11.369ZM8.58127 11.6403C8.47445 11.369 8.34389 11.1594 8.05904 11.0731C8.24894 8.69324 8.85426 7.60813 11.0025 6.52302C11.1925 6.597 11.1806 6.62166 11.1806 6.64633C11.1806 6.96693 11.3586 7.12723 11.5841 7.29986C11.2043 7.38618 10.8601 7.55881 10.8601 8.02738C10.8601 8.40964 11.1212 8.61926 11.4536 8.71791C11.3467 8.92753 11.323 9.01385 11.3467 9.26046C10.9076 9.47009 10.8126 9.7537 10.9195 10.1976C11.0856 10.8265 11.4654 10.9005 12.0708 10.7402C12.1034 10.9361 12.0709 11.1377 11.9785 11.3118C11.8862 11.4859 11.7396 11.6223 11.5628 11.6983C11.386 11.7744 11.1895 11.7856 11.0057 11.7303C10.8219 11.6749 10.6617 11.5562 10.5515 11.3937C10.5515 11.332 10.5397 11.2827 10.5278 11.2211C10.4328 10.8635 10.053 10.6415 9.67322 10.7278C9.30528 10.8265 9.0679 11.2087 9.16286 11.5787C9.19846 11.702 9.25781 11.8006 9.34089 11.8869C9.3765 12.2445 9.2222 12.5651 8.91361 12.7378C8.59314 12.9104 8.34389 12.8364 8.0353 12.7254C8.54567 12.4788 8.80679 12.2445 8.58127 11.6403ZM8.61688 9.06317C8.40324 9.5934 8.29642 10.2099 8.22521 10.9621C8.47445 11.0731 8.64062 11.332 8.73557 11.591C8.88987 11.9856 8.88987 12.3925 8.46259 12.7008C8.59314 12.7131 8.71183 12.6884 8.83052 12.6145C9.0679 12.4788 9.19846 12.2322 9.18659 11.9733C9.1045 11.8725 9.04383 11.7548 9.00856 11.628C8.88987 11.1594 9.17472 10.6908 9.62574 10.5799C10.0886 10.4566 10.5515 10.7402 10.6821 11.1964C10.694 11.2457 10.7058 11.2951 10.7058 11.3444C11.0975 11.8253 11.8809 11.5787 11.9165 10.9498C11.1925 11.0978 10.8839 10.7278 10.7652 10.2346C10.6583 9.82768 10.7058 9.40843 11.1687 9.16182C11.1687 9.02618 11.1806 8.9152 11.2162 8.81655C11.0898 8.76228 10.9782 8.67653 10.8913 8.56685C10.8043 8.45718 10.7447 8.32696 10.7177 8.18768C10.3023 8.274 9.83939 8.3973 9.45958 8.55761C9.09164 8.69324 8.81866 8.89054 8.61688 9.06317ZM11.0144 6.69565C9.81565 7.32452 9.11538 7.96572 8.69996 8.85355C8.91361 8.69324 9.15099 8.55761 9.4121 8.45896C9.80378 8.29866 10.2785 8.17535 10.694 8.08903V8.02738C10.694 7.66979 10.9195 7.34918 11.2281 7.22587C11.1007 7.07963 11.0253 6.89254 11.0144 6.69565ZM27.5716 12.7501C27.4261 12.6697 27.3073 12.5453 27.2311 12.3935C27.1548 12.2416 27.1246 12.0693 27.1444 11.8993C27.2274 11.8129 27.2868 11.7143 27.3224 11.591C27.3436 11.5011 27.3476 11.4078 27.334 11.3163C27.3204 11.2248 27.2896 11.1371 27.2433 11.058C27.1969 10.979 27.1361 10.9102 27.0641 10.8556C26.9921 10.8011 26.9105 10.7619 26.8239 10.7402C26.7223 10.7123 26.6159 10.7086 26.5127 10.7293C26.4095 10.75 26.3121 10.7946 26.2277 10.8598C26.1434 10.9249 26.0742 11.0089 26.0253 11.1056C25.9765 11.2023 25.9493 11.3092 25.9456 11.4184C25.4115 12.1212 24.3314 11.7513 24.4264 10.7648C25.0317 10.9128 25.4115 10.8511 25.5777 10.2223C25.6963 9.77836 25.5895 9.49475 25.1622 9.28513C25.1741 9.03851 25.1622 8.95219 25.0554 8.74257C25.3878 8.64392 25.6489 8.4343 25.6489 8.05204C25.6489 7.58347 25.3047 7.41084 24.9249 7.33685C25.1504 7.15189 25.3403 7.00392 25.3403 6.68332C25.3403 6.65866 25.3403 6.62166 25.3284 6.597L25.4827 6.54768C27.6191 7.62046 28.2719 8.74257 28.4618 11.0978C28.1651 11.1841 28.0345 11.3937 27.9396 11.665C27.7141 12.2692 27.9752 12.5035 28.4856 12.7624C28.1414 12.8487 27.8921 12.9227 27.5716 12.7501ZM25.7794 8.18768C25.7201 8.47129 25.5302 8.70558 25.2691 8.81655C25.3047 8.9152 25.3284 9.03851 25.3165 9.16182C25.7913 9.40843 25.8269 9.82768 25.7201 10.2346C25.5895 10.7278 25.2928 11.0978 24.5688 10.9498C24.6044 11.5787 25.3878 11.8253 25.7794 11.3444C25.7794 11.2951 25.7913 11.2457 25.8032 11.1964C25.9219 10.7402 26.3966 10.4566 26.8476 10.5799C27.3105 10.7032 27.5835 11.1717 27.4648 11.628C27.4292 11.7513 27.3699 11.8746 27.2868 11.9609C27.2631 12.3802 27.6073 12.7131 28.0108 12.6884C27.5835 12.3925 27.5835 11.9856 27.7378 11.5787C27.8328 11.3197 27.9871 11.0608 28.2482 10.9498C28.1888 10.1976 28.0701 9.58107 27.8565 9.05084C27.6547 8.87821 27.3699 8.68091 27.0138 8.54528C26.6577 8.40964 26.183 8.28633 25.7794 8.18768ZM25.4708 6.67099C25.459 6.88061 25.3759 7.07791 25.2453 7.21354C25.5658 7.33685 25.7913 7.64512 25.7913 8.01505V8.0767C26.2186 8.17535 26.6696 8.28633 27.0732 8.44663C27.358 8.55761 27.5954 8.69324 27.7853 8.84122C27.3699 7.96573 26.6696 7.32452 25.4708 6.67099ZM22.9784 14.0942L21.7677 13.2433L23.2395 13.083L24.4501 13.9339L22.9784 14.0942ZM20.6995 13.6009C20.4265 13.6009 20.2129 13.379 20.2129 13.1077C20.2129 12.8364 20.4384 12.6145 20.6995 12.6145C20.9725 12.6145 21.198 12.8364 21.198 13.1077C21.198 13.379 20.9725 13.6009 20.6995 13.6009ZM20.6995 13.4899C20.9131 13.4899 21.0793 13.3173 21.0793 13.1077C21.0793 12.8981 20.9131 12.7254 20.6995 12.7254C20.4859 12.7254 20.3197 12.8981 20.3197 13.1077C20.3197 13.3173 20.4977 13.4899 20.6995 13.4899ZM11.0382 14.7724C11.2518 14.7724 11.418 14.5997 11.418 14.3901C11.418 14.1805 11.2518 14.0078 11.0382 14.0078C10.8245 14.0078 10.6583 14.1805 10.6583 14.3901C10.6583 14.5997 10.8245 14.7724 11.0382 14.7724ZM11.0382 14.8833C10.7652 14.8833 10.5397 14.6614 10.5397 14.3901C10.5397 14.1188 10.7652 13.8969 11.0382 13.8969C11.3111 13.8969 11.5367 14.1188 11.5367 14.3901C11.5248 14.6614 11.3111 14.8833 11.0382 14.8833ZM15.7857 13.4899C15.9994 13.4899 16.1656 13.3173 16.1656 13.1077C16.1625 13.0052 16.1211 12.908 16.0502 12.8366C15.9793 12.7653 15.8845 12.7254 15.7857 12.7254C15.5721 12.7254 15.4059 12.8981 15.4059 13.1077C15.3941 13.3173 15.5721 13.4899 15.7857 13.4899ZM15.7857 13.6009C15.5128 13.6009 15.2873 13.379 15.2873 13.1077C15.2873 12.8364 15.5128 12.6145 15.7857 12.6145C16.0587 12.6145 16.2842 12.8364 16.2842 13.1077C16.2724 13.379 16.0587 13.6009 15.7857 13.6009ZM25.4471 14.7724C25.6607 14.7724 25.8269 14.5997 25.8269 14.3901C25.8269 14.1805 25.6607 14.0078 25.4471 14.0078C25.2335 14.0078 25.0673 14.1805 25.0673 14.3901C25.0673 14.5997 25.2335 14.7724 25.4471 14.7724ZM25.4471 14.8833C25.1741 14.8833 24.9486 14.6614 24.9486 14.3901C24.9486 14.1188 25.1741 13.8969 25.4471 13.8969C25.7201 13.8969 25.9456 14.1188 25.9456 14.3901C25.9456 14.6614 25.7201 14.8833 25.4471 14.8833ZM13.5069 14.0942L12.0351 13.9339L13.2458 13.083L14.7175 13.2433L13.5069 14.0942ZM19.477 12.972L18.2426 12.5158L17.0201 12.972L18.2426 13.4283L19.477 12.972ZM19.7856 12.972L18.2426 13.5516L16.6997 12.972L18.2426 12.3925L19.7856 12.972Z" fill="#004996"/>
</svg>
