<svg width="45" height="45" viewBox="0 0 45 45" fill="none" xmlns="http://www.w3.org/2000/svg">
<g clip-path="url(#clip0_61_216)">
<path d="M22.9665 0.286804C22.9665 0.286804 17.9088 6.35577 6.27686 6.35577V20.834C6.27686 28.3945 9.56017 35.6856 15.5047 40.3571C17.6084 42.0109 20.0898 43.4334 22.9665 44.2868C25.8432 43.4334 28.3239 42.0109 30.4283 40.3571C36.3729 35.6856 39.6562 28.3945 39.6562 20.834V6.35577C28.0242 6.35577 22.9665 0.286804 22.9665 0.286804Z" fill="#88C057"/>
<path d="M6.27686 6.35577V20.834C6.27686 28.3945 9.56017 35.6856 15.5047 40.3571C17.6091 42.0109 20.0898 43.4334 22.9665 44.2868V0.286804C22.9665 0.286804 17.9088 6.35577 6.27686 6.35577Z" fill="#7CAA50"/>
<path d="M32.07 20.011H30.1181C29.1243 20.011 28.7101 19.1894 29.4126 18.4869L30.7675 17.132C31.0315 16.868 31.0315 16.4409 30.7675 16.1769L29.0408 14.4503C28.7768 14.1863 28.3497 14.1863 28.0857 14.4503L26.7308 15.8052C26.0276 16.5069 24.4838 16.0092 24.4838 15.0162V13.0999C24.4838 12.7267 24.1811 12.4247 23.8086 12.4247H22.1245C21.752 12.4247 21.4493 12.7274 21.4493 13.0999V15.0162C21.4493 16.0092 19.8327 16.5069 19.1302 15.8044L17.7753 14.4495C17.5113 14.1855 17.0842 14.1855 16.8202 14.4495L15.0936 16.1761C14.8296 16.4401 14.8296 16.8672 15.0936 17.1312L16.4485 18.4861C17.151 19.1886 16.7368 20.0102 15.743 20.0102H13.8631C13.4899 20.0102 13.1045 20.6922 13.1045 21.0647V23.0454C13.1045 23.4187 13.4899 23.8041 13.8631 23.8041H15.743C16.736 23.8041 17.1502 25.3843 16.4485 26.0867L15.0936 27.4416C14.8296 27.7056 14.8296 28.1327 15.0936 28.3967L16.8202 30.1234C17.0842 30.3874 17.5113 30.3874 17.7753 30.1234L19.1302 28.7685C19.8327 28.0667 21.4493 28.88 21.4493 29.873V31.3903C21.4493 31.7635 21.3363 32.1489 21.7095 32.1489H24.1515C24.5248 32.1489 24.4838 31.7635 24.4838 31.3903V29.873C24.4838 28.88 26.0276 28.0667 26.7301 28.7692L28.085 30.1241C28.349 30.3881 28.7761 30.3881 29.0401 30.1241L30.7667 28.3975C31.0307 28.1335 31.0307 27.7064 30.7667 27.4424L29.4118 26.0875C28.7101 25.3843 29.1243 24.5627 30.1181 24.5627H32.07C32.4433 24.5627 32.8286 23.8807 32.8286 23.5082V21.0654C32.8286 20.693 32.4433 20.011 32.07 20.011ZM22.9301 25.3213C21.2544 25.3213 19.8957 23.9626 19.8957 22.2868C19.8957 20.611 21.2544 19.2523 22.9301 19.2523C24.6059 19.2523 25.9646 20.611 25.9646 22.2868C25.9646 23.9626 24.6059 25.3213 22.9301 25.3213Z" fill="#ECF0F1"/>
<path d="M22.9666 25.3175C22.9544 25.3175 22.943 25.3213 22.9301 25.3213C21.2544 25.3213 19.8957 23.9626 19.8957 22.2868C19.8957 20.611 21.2544 19.2523 22.9301 19.2523C22.9423 19.2523 22.9537 19.2561 22.9666 19.2561V12.4247H22.1245C21.752 12.4247 21.4493 12.7274 21.4493 13.0999V15.0162C21.4493 16.0092 19.8327 16.5069 19.1302 15.8044L17.7753 14.4495C17.5113 14.1855 17.0842 14.1855 16.8202 14.4495L15.0936 16.1761C14.8296 16.4401 14.8296 16.8672 15.0936 17.1312L16.4485 18.4861C17.151 19.1886 16.7368 20.0102 15.743 20.0102H13.8631C13.4899 20.0102 13.1045 20.6922 13.1045 21.0647V23.0454C13.1045 23.4187 13.4899 23.8041 13.8631 23.8041H15.743C16.736 23.8041 17.1502 25.3843 16.4485 26.0867L15.0936 27.4416C14.8296 27.7056 14.8296 28.1327 15.0936 28.3967L16.8202 30.1234C17.0842 30.3874 17.5113 30.3874 17.7753 30.1234L19.1302 28.7685C19.8327 28.0667 21.4493 28.88 21.4493 29.873V31.3903C21.4493 31.7635 21.3363 32.1489 21.7095 32.1489H22.9666V25.3175Z" fill="#DCDFE0"/>
</g>
<defs>
<clipPath id="clip0_61_216">
<rect width="44" height="44" fill="white" transform="translate(0.966553 0.286804)"/>
</clipPath>
</defs>
</svg>
