<svg width="22" height="22" viewBox="0 0 22 22" fill="none" xmlns="http://www.w3.org/2000/svg">
<path d="M3.4375 9.85703V4.8125C3.4375 4.63016 3.50993 4.4553 3.63886 4.32636C3.7678 4.19743 3.94266 4.125 4.125 4.125H17.875C18.0573 4.125 18.2322 4.19743 18.3611 4.32636C18.4901 4.4553 18.5625 4.63016 18.5625 4.8125V9.85703C18.5625 17.0758 12.4352 19.4648 11.2148 19.8687C11.0762 19.9201 10.9238 19.9201 10.7852 19.8687C9.56484 19.4648 3.4375 17.0758 3.4375 9.85703Z" stroke="#121E67" stroke-width="2" stroke-linecap="round" stroke-linejoin="round"/>
<path d="M11 8.25V11.6875" stroke="#121E67" stroke-width="2" stroke-linecap="round" stroke-linejoin="round"/>
<path d="M11 15.8125C11.5695 15.8125 12.0312 15.3508 12.0312 14.7812C12.0312 14.2117 11.5695 13.75 11 13.75C10.4305 13.75 9.96875 14.2117 9.96875 14.7812C9.96875 15.3508 10.4305 15.8125 11 15.8125Z" fill="#121E67"/>
</svg>
