<svg width="21" height="21" viewBox="0 0 21 21" fill="none" xmlns="http://www.w3.org/2000/svg">
<path d="M20.1549 6.3739L17.6776 8.84305C17.1854 14.577 12.3456 19.0313 6.56235 19.0313C5.3729 19.0313 4.38852 18.8427 3.64204 18.4735C3.04321 18.17 2.79712 17.8501 2.73149 17.7516C2.6772 17.6692 2.64221 17.5755 2.62914 17.4776C2.61607 17.3798 2.62525 17.2802 2.656 17.1864C2.68675 17.0926 2.73827 17.0069 2.80674 16.9357C2.8752 16.8646 2.95884 16.8098 3.05141 16.7755C3.06782 16.7673 5.00376 16.029 6.25884 14.6098C5.48048 14.0556 4.79634 13.3798 4.23266 12.6083C3.10884 11.0825 1.91938 8.43289 2.63306 4.47898C2.65549 4.36144 2.70925 4.25213 2.78867 4.16261C2.86808 4.07309 2.97019 4.00668 3.08423 3.97039C3.19862 3.93293 3.32112 3.92766 3.43831 3.95515C3.5555 3.98264 3.66287 4.04183 3.74868 4.12625C3.77329 4.15906 6.50493 6.84969 9.8436 7.71922V7.21883C9.84682 6.69851 9.9525 6.18393 10.1546 5.70445C10.3567 5.22498 10.6513 4.79001 11.0215 4.42438C11.3917 4.05875 11.8303 3.76961 12.3122 3.57349C12.7941 3.37736 13.31 3.27809 13.8303 3.28133C14.5132 3.29107 15.182 3.47753 15.7714 3.82255C16.3608 4.16757 16.8508 4.65939 17.1936 5.25008H19.6874C19.8169 5.24967 19.9437 5.28763 20.0517 5.35916C20.1597 5.43069 20.2442 5.53259 20.2944 5.65203C20.3417 5.77325 20.3537 5.90537 20.329 6.03312C20.3043 6.16087 20.244 6.27902 20.1549 6.3739Z" fill="black" fill-opacity="0.7"/>
</svg>
