<svg width="51" height="51" viewBox="0 0 51 51" fill="none" xmlns="http://www.w3.org/2000/svg">
<path fill-rule="evenodd" clip-rule="evenodd" d="M22.2048 6.78444C20.9726 7.03606 19.6619 7.58798 19.6619 7.58798C20.3109 6.70401 21.6282 5.62107 21.6282 5.62107C21.2658 4.94003 20.9448 3.93171 20.9448 3.93171C20.9448 3.93171 22.4683 4.01531 23.6608 4.4024C23.6608 4.4024 25.6867 3.29194 27.7859 3.25781C27.7859 3.25781 26.2558 4.14126 25.6057 4.96385C25.7782 5.0546 27.0019 5.42078 27.955 5.98249C27.955 5.98249 26.232 6.03117 24.6508 6.2476C24.6508 6.2476 24.0942 7.03289 23.6235 8.82015C23.6232 8.82015 22.8125 7.92718 22.2048 6.78444Z" fill="#0E0D0D"/>
<path fill-rule="evenodd" clip-rule="evenodd" d="M30.3903 8.26427C29.3471 7.10381 27.9548 5.98251 27.9548 5.98251C29.2354 6.00076 31.1359 6.75641 31.1359 6.75641C31.5074 6.05421 31.7675 5.08795 31.7675 5.08795C31.7675 5.08795 32.4946 6.31853 32.8248 7.67928C32.8248 7.67928 34.3342 8.5831 35.4732 10.0957C35.4732 10.0957 34.2847 9.8478 33.4097 9.85204C33.4071 10.0473 33.7307 11.6528 33.6603 12.7566C33.6603 12.7566 32.6914 11.1821 31.7823 9.87056C31.7823 9.87056 30.321 9.89702 28.7856 10.3166C28.7859 10.3166 29.6458 9.3234 30.3903 8.26427ZM32.0622 15.8284C32.8316 14.5312 33.6606 12.7569 33.6606 12.7569C33.9148 13.9436 33.9376 15.4575 33.9376 15.4575C34.7009 15.2966 36.0521 14.6484 36.0521 14.6484C36.0521 14.6484 35.4502 16.2518 34.1008 17.4813C34.1008 17.4813 34.2374 18.442 34.2532 19.7096C34.2532 19.7096 33.2989 19.2844 32.5075 18.809C32.339 18.9071 31.3825 19.5577 29.7667 19.8922C29.7667 19.8922 30.4509 18.8233 31.0169 17.7792C31.0169 17.7792 29.8903 17.0371 28.9978 15.8208C28.9978 15.8205 30.733 16.0396 32.0622 15.8284Z" fill="#0E0D0D"/>
<path fill-rule="evenodd" clip-rule="evenodd" d="M26.6194 13.1813C27.7997 14.6434 28.9975 15.8208 28.9975 15.8208C27.0407 15.53 25.4518 14.9813 25.4518 14.9813C24.657 16.2555 23.7897 17.7369 23.7897 17.7369C23.7897 17.7369 23.3047 16.1298 23.2227 14.3058C23.2227 14.3058 22.2398 13.9618 20.4282 13.2485C20.4282 13.2485 21.6778 12.4727 23.1902 12.0497C23.1018 11.8753 23.3336 9.70679 23.6236 8.82043C23.6236 8.82043 24.5054 10.25 25.2235 11.3009C25.2235 11.3009 26.629 10.8241 28.7861 10.3167C28.7858 10.3167 27.6055 11.8145 26.6194 13.1813ZM15.875 18.7116C15.7561 18.488 15.6454 18.2603 15.5429 18.0287C15.5636 17.2532 15.6329 16.2544 15.8313 15.4797C15.8313 15.4797 15.2627 15.0852 14.6748 14.5725C14.6682 14.4833 14.6605 14.3933 14.6555 14.3031C14.9931 14.1772 15.7099 13.924 16.3359 13.779C16.4076 13.5967 16.7973 12.3407 17.5506 11.4742C17.5506 11.4742 17.6014 12.328 17.8062 13.4647C17.8062 13.4647 18.9952 13.1953 20.4279 13.248C20.4279 13.248 19.1003 14.2936 18.2642 15.3559C18.5674 16.5807 19.1775 17.7562 19.1775 17.7562C18.2658 17.2403 17.3013 16.5568 17.3013 16.5568C16.9627 16.9595 16.2819 18.0459 15.875 18.7116ZM23.4598 24.2729C23.3122 24.2463 23.1653 24.216 23.0193 24.1821C22.5216 23.6485 21.7625 22.7772 21.1828 21.8615C21.1828 21.8615 19.0444 21.689 17.5376 21.0291C17.5376 21.0291 18.7838 20.7949 20.1522 20.0893C20.0639 19.9149 19.5421 18.9529 19.1772 17.7567C19.1772 17.7567 20.4843 18.8127 21.4527 19.4308C21.4527 19.4308 22.6832 18.7227 23.7895 17.7369C23.7895 17.7369 23.509 19.0995 23.3537 20.6558C24.0684 21.0639 24.789 21.4617 25.5153 21.8488C24.3996 22.0112 23.3013 21.9771 23.3013 21.9771C23.2579 22.8412 23.3741 23.7495 23.4598 24.2729ZM32.7628 21.4942C32.7628 21.4942 31.288 21.884 29.8487 21.9379C29.8487 21.9379 29.8378 20.9561 29.7664 19.8922C29.7664 19.8922 29.002 20.977 28.0043 22.0202C26.8261 22.0033 25.5153 21.849 25.5153 21.849C25.9648 22.3065 26.4272 22.7511 26.902 23.1823C26.0146 23.9366 25.1944 24.4406 25.1944 24.4406C25.3108 24.4422 25.4293 24.443 25.5466 24.4414C28.3477 24.3957 30.8792 23.2807 32.7628 21.4942Z" fill="#0E0D0D"/>
<path fill-rule="evenodd" clip-rule="evenodd" d="M14.7851 11.9309C14.7851 11.9309 15.573 10.9482 16.4927 10.1502C16.4927 10.1502 16.8002 10.718 17.5505 11.4744C17.5505 11.4744 17.5561 10.55 17.6635 9.09955C18.5038 8.3566 19.6619 7.58798 19.6619 7.58798C18.7014 7.52687 17.9847 7.5737 17.9847 7.5737C18.2075 6.47303 18.7107 5.29193 18.7107 5.29193C16.6687 6.91118 15.2314 9.2583 14.7851 11.9309ZM35.408 40.3897C34.0314 40.3897 33.1953 39.2364 33.1953 37.9717C33.1953 36.6575 34.17 35.7052 35.4422 35.7052C36.8519 35.7052 37.7014 36.8244 37.7014 38.0545C37.7014 39.5118 36.6447 40.3897 35.408 40.3897ZM35.331 36.3678C34.4743 36.3678 34.2185 37.1832 34.2185 37.7357C34.2185 38.5434 34.578 39.7253 35.5662 39.7253C36.2711 39.7253 36.6788 39.098 36.6788 38.3445C36.6788 37.5433 36.3682 36.3678 35.331 36.3678ZM26.9842 39.7335C26.9842 39.982 27.0318 40.0714 27.4332 40.1489V40.3209C26.9977 40.3003 26.7273 40.2796 26.4725 40.2796C26.2161 40.2796 25.9471 40.3003 25.6431 40.3209V40.1473C25.9119 40.0997 25.9611 39.982 25.9611 39.6568V36.2781C25.9611 36.0839 25.878 35.9934 25.6431 35.9865V35.7941H27.688C28.967 35.7941 29.4306 36.4024 29.4306 37.2049C29.4306 38.0621 28.7805 38.5879 27.8891 38.5879C27.5507 38.5879 27.0535 38.4143 27.0535 38.2691C27.0535 38.2071 27.0948 38.2071 27.157 38.2071C27.2192 38.2071 27.3083 38.2278 27.3983 38.2278C28.1238 38.2278 28.4079 37.8201 28.4079 37.2464C28.4079 36.6236 28.0203 36.4027 27.4115 36.4027L26.9842 36.4487V39.7335ZM30.7664 36.2355C30.7664 36.0426 30.6839 35.9518 30.4487 35.9455V35.7656C30.7524 35.7862 31.0212 35.8068 31.2776 35.8068C31.534 35.8068 31.8031 35.7862 32.1066 35.7656V35.9455C31.8724 35.9516 31.7888 36.0426 31.7888 36.2355V39.8573C31.7888 40.0515 31.8724 40.141 32.1066 40.1489V40.3209C31.8033 40.3003 31.5335 40.2796 31.2776 40.2796C31.0212 40.2796 30.7527 40.3003 30.4487 40.3209V40.1489C30.6839 40.1412 30.7664 40.0518 30.7664 39.8573V36.2355ZM39.0873 36.2323C39.0873 36.0394 39.0037 35.9487 38.7685 35.9423V35.7608C39.0728 35.7809 39.3426 35.8037 39.5985 35.8037C39.785 35.8037 39.9922 35.8037 40.2073 35.7608L42.1147 38.8527H42.1282V36.3294C42.1282 35.9693 41.9004 35.9423 41.7138 35.9423V35.7608C41.9416 35.7809 42.1623 35.8037 42.3774 35.8037C42.6052 35.8037 42.8333 35.7809 43.0553 35.7608V35.9423C42.8195 35.9484 42.7365 36.0394 42.7365 36.2323V40.3209H42.0036L39.7091 36.7517H39.6956V39.7571C39.6956 40.1172 39.9223 40.1442 40.1099 40.1442V40.3177C39.8821 40.2971 39.6604 40.2749 39.4464 40.2749C39.2186 40.2749 38.9899 40.2971 38.7685 40.3177V40.1442C39.0037 40.1381 39.0873 40.0471 39.0873 39.8542V36.2323ZM44.4679 38.749C44.6094 39.5248 45.1185 39.888 45.8808 39.888C46.2993 39.888 46.905 39.7671 46.905 39.2332C46.905 38.8064 46.4636 38.6932 46.1366 38.5929L45.6307 38.4431C44.9052 38.2296 44.1798 37.9238 44.1798 37.0845C44.1798 35.9823 45.2468 35.6478 46.3067 35.6478C46.7563 35.6478 47.2177 35.7259 47.6307 35.8756C47.6307 36.3884 47.659 36.8213 47.6871 37.1914H47.5093C47.36 36.5366 46.8272 36.2307 46.1869 36.2307C45.8297 36.2307 45.2333 36.3455 45.2333 36.8358C45.2333 37.2279 45.5738 37.3406 45.8659 37.4256L46.6126 37.6404C47.3309 37.8455 48.0001 38.11 48.0001 39.0342C48.0001 39.9722 47.0539 40.4709 45.8942 40.4709C45.3749 40.4709 44.8272 40.3868 44.3507 40.2145C44.3507 39.6523 44.3295 39.1628 44.2933 38.749H44.4679ZM8.53272 36.2355C8.53272 36.0426 8.45017 35.9518 8.21416 35.9455V35.7656C8.51843 35.7862 8.78831 35.8068 9.04416 35.8068C9.30001 35.8068 9.56883 35.7862 9.87336 35.7656V35.9455C9.63841 35.9516 9.55639 36.0426 9.55639 36.2355L9.5556 37.6039L11.228 37.6055V36.2355C11.228 36.0426 11.146 35.9518 10.9111 35.9455V35.7656C11.2145 35.7862 11.4847 35.8068 11.74 35.8068C11.9956 35.8068 12.2657 35.7862 12.5684 35.7656V35.9455C12.3343 35.9516 12.2512 36.0426 12.2512 36.2355V39.8573C12.2512 40.0515 12.334 40.141 12.5684 40.1473V40.3241C12.2655 40.304 11.9956 40.2828 11.7392 40.2828C11.4847 40.2828 11.2145 40.304 10.9103 40.3241V40.1473C11.146 40.1412 11.228 40.0518 11.228 39.8573V38.2677H9.5556V39.8573C9.5556 40.0515 9.63841 40.141 9.87363 40.1473V40.3241C9.56936 40.304 9.30027 40.2828 9.04442 40.2828C8.78884 40.2828 8.5187 40.304 8.21443 40.3241V40.1473C8.44938 40.1412 8.53298 40.0518 8.53298 39.8573V36.2355H8.53272ZM15.1272 38.3429C15.3063 37.8539 15.5275 37.3073 15.6863 36.7548H15.7005C15.8389 37.4525 15.9564 37.8955 16.1014 38.3429H15.1272ZM13.4537 40.3212C13.6961 40.3005 13.9315 40.2799 14.1728 40.2799C14.4078 40.2799 14.6501 40.3005 14.8848 40.3212V40.1476C14.6562 40.133 14.5597 40.0521 14.5597 39.9264C14.5597 39.8576 14.5803 39.7811 14.6155 39.684L14.9187 38.8686H16.2662L16.4877 39.5409C16.5229 39.6303 16.557 39.7893 16.557 39.8851C16.557 40.0444 16.467 40.1 16.2112 40.1476V40.3212C16.5083 40.3005 16.8054 40.2799 17.1031 40.2799C17.3923 40.2799 17.6902 40.3005 17.9807 40.3212V40.1476C17.7738 40.0934 17.6693 40.0029 17.5659 39.6986L16.294 35.7661C16.0794 35.7867 15.8582 35.8074 15.6439 35.8074C15.4304 35.8074 15.2153 35.7867 14.9946 35.7661V35.946C15.1809 35.946 15.2576 36.0561 15.2576 36.1265C15.2576 36.1947 15.2082 36.2918 15.1677 36.3953L13.8127 39.8296C13.7437 40.0111 13.6537 40.1211 13.4529 40.1479V40.3212H13.4537ZM19.3759 36.8855C19.383 36.6927 19.3957 36.4985 19.3957 36.223C19.3957 36.0077 19.3478 35.9807 19.0854 35.9455V35.7656C19.2923 35.7862 19.5415 35.8068 19.791 35.8068C20.0394 35.8068 20.2887 35.7862 20.5371 35.7656L21.7468 38.9699L22.8308 35.7656C23.0739 35.7862 23.3089 35.8068 23.5507 35.8068C23.792 35.8068 24.0341 35.7862 24.2691 35.7656V35.9455C24.0278 35.9661 23.9926 36.0426 23.9926 36.2291C23.9926 36.4233 24.0201 36.7339 24.0405 36.9681L24.2627 39.9198C24.2765 40.0997 24.4762 40.1264 24.6149 40.1471V40.3206C24.317 40.3 24.0137 40.2794 23.7164 40.2794C23.4121 40.2794 23.1152 40.3 22.8305 40.3206V40.1471C23.17 40.1058 23.26 40.0436 23.26 39.7264C23.26 39.5594 23.2385 39.2488 23.2187 39.021L23.0591 36.9617H23.0456L21.8915 40.359H21.311L19.9905 36.9205H19.9759L19.9212 38.9445C19.9148 39.3046 19.9003 39.4912 19.9003 39.6774C19.9003 40.0232 19.9347 40.0997 20.3498 40.1471V40.3206C20.0733 40.3 19.8175 40.2794 19.5547 40.2794C19.2999 40.2794 19.0433 40.3 18.8292 40.3206V40.1471C19.0991 40.1264 19.2097 40.0645 19.2235 39.7745L19.3759 36.8855ZM7.17303 40.068C6.69995 40.4312 6.02156 40.5765 5.57865 40.5765C3.93082 40.5765 2.99976 39.2985 2.99976 37.9881C2.99976 36.6482 3.93082 35.3515 5.7165 35.3536C6.34171 35.3536 6.79017 35.4724 6.96586 35.5412C6.96586 36.0651 6.9939 36.5702 7.0328 37.0702H6.83277C6.71106 36.4315 6.26498 36.0926 5.62416 36.0926C4.75527 36.0926 4.08375 36.7773 4.08375 37.9338C4.08375 38.8051 4.80024 39.7912 5.80778 39.7912C6.23481 39.7912 6.84891 39.557 7.2614 39.2099L7.17303 40.068ZM14.6554 42.8201C14.6554 42.6709 14.5909 42.6005 14.4102 42.5958V42.4489C14.6451 42.4664 14.8528 42.481 15.0497 42.481C15.2743 42.481 15.6003 42.4664 15.7545 42.4489V42.5958C15.4823 42.6066 15.445 42.7405 15.445 42.8887V45.5025H16.4316C16.7843 45.5025 16.9285 45.3419 17.0187 44.9355H17.1923C17.1277 45.2826 17.069 45.6253 17.0634 45.9727H14.4102V45.8258C14.5909 45.8211 14.6554 45.7509 14.6554 45.6009V42.8201ZM18.0514 42.8376C18.0514 42.6884 17.9868 42.618 17.8061 42.6132V42.468H20.5017C20.5047 42.7415 20.5188 43.0148 20.544 43.2871H20.398C20.3448 42.9937 20.2702 42.8918 19.9823 42.8918H18.8404V43.9237H19.55C19.7894 43.9237 19.827 43.8425 19.8587 43.6515H20.0045C19.9855 43.8203 19.9748 43.9901 19.9725 44.16C19.9725 44.3031 19.9884 44.5373 20.0045 44.6664H19.8587C19.8267 44.4735 19.7894 44.3941 19.55 44.3941H18.8404V45.5025H20.0405C20.3289 45.5025 20.4189 45.4054 20.5101 44.9577H20.6879C20.6499 45.2948 20.6286 45.6335 20.6242 45.9727H17.8061V45.8258C17.9868 45.8211 18.0514 45.7509 18.0514 45.6009V42.8376ZM21.328 45.8277C21.4822 45.8054 21.5518 45.7208 21.6052 45.5821L22.6517 42.9384C22.6837 42.8567 22.721 42.7839 22.721 42.7312C22.721 42.677 22.6617 42.5913 22.5178 42.5913V42.446C22.6882 42.4622 22.8541 42.478 23.0194 42.478C23.1851 42.478 23.3555 42.4619 23.5214 42.446L24.503 45.4821C24.5837 45.7147 24.663 45.7851 24.8231 45.8279V45.9732C24.5985 45.9571 24.3699 45.9412 24.1455 45.9412C23.9161 45.9412 23.6867 45.9573 23.4573 45.9732V45.8279C23.655 45.7896 23.724 45.7467 23.724 45.6258C23.724 45.5509 23.697 45.4279 23.6706 45.3596L23.4997 44.8434H22.4593L22.2244 45.4707C22.1974 45.544 22.1812 45.603 22.1812 45.6573C22.1812 45.7512 22.2561 45.8166 22.4321 45.8279V45.9732C22.2506 45.9571 22.0643 45.9412 21.8825 45.9412C21.6952 45.9412 21.5148 45.9573 21.3274 45.9732V45.8277H21.328ZM23.3713 44.4386C23.26 44.0928 23.1684 43.7523 23.0615 43.2138H23.0512C22.9287 43.639 22.7575 44.0613 22.6189 44.4386H23.3713ZM27.6777 44.7238C27.6777 44.5103 27.5811 44.5005 27.3417 44.496V44.3161C27.5602 44.3336 27.7793 44.3497 28.0031 44.3497C28.2439 44.3497 28.4786 44.3336 28.7183 44.3161V44.4846C28.5312 44.4899 28.4357 44.5373 28.4357 44.7781V45.9729H28.1256L28.0031 45.6144C27.6671 45.9295 27.3142 46.0412 26.9519 46.0412C25.9484 46.0412 25.3081 45.2144 25.3081 44.2542C25.3081 43.0961 26.0823 42.395 27.2348 42.395C27.6033 42.395 28.0002 42.4638 28.287 42.6434C28.287 42.9048 28.2979 43.2062 28.3196 43.5737H28.1656C28.0968 43.0993 27.6457 42.8651 27.2033 42.8651C26.4606 42.8651 26.0984 43.4321 26.0984 44.1203C26.0984 44.7828 26.472 45.5295 27.0906 45.5295C27.47 45.5295 27.6777 45.3533 27.6777 45.1077V44.7238ZM29.7915 42.8201C29.7915 42.6709 29.7269 42.6005 29.5464 42.5958V42.4489C29.75 42.4697 29.9546 42.4804 30.1592 42.481C30.4373 42.481 30.6564 42.4664 30.8699 42.4489V42.5958C30.6394 42.6066 30.5815 42.6484 30.5815 42.8567V44.8508C30.5815 45.4549 30.8326 45.5708 31.2647 45.5708C31.6967 45.5708 31.9478 45.4438 31.9478 44.8508V42.8567C31.9478 42.6484 31.8893 42.6066 31.6589 42.5958V42.4489C31.8735 42.4664 32.0915 42.481 32.3696 42.481C32.5934 42.481 32.8125 42.4664 32.9829 42.4489V42.5958C32.8019 42.6005 32.7373 42.6707 32.7373 42.8201V44.74C32.7373 45.7274 32.2251 46.0412 31.2647 46.0412C30.3034 46.0412 29.7915 45.7274 29.7915 44.8148V42.8201ZM34.1121 42.8376C34.1121 42.6884 34.0491 42.618 33.8671 42.6132V42.468H36.5635C36.569 42.7609 36.5791 42.9987 36.6053 43.2871H36.4595C36.4063 42.9937 36.3314 42.8918 36.043 42.8918H34.9029V43.9084H35.6115C35.8512 43.9084 35.889 43.8282 35.9216 43.6361H36.0663C36.0478 43.8043 36.0371 43.9733 36.0343 44.1425C36.0343 44.2873 36.0512 44.5214 36.0663 44.6505H35.9216C35.889 44.4576 35.8512 44.3783 35.6115 44.3783H34.9029V45.5028H36.1018C36.3902 45.5028 36.4812 45.4057 36.5719 44.958H36.7492C36.7109 45.295 36.6896 45.6338 36.6852 45.9729H33.8668V45.8261C34.0489 45.8213 34.1118 45.7512 34.1118 45.6012V42.8376H34.1121ZM20.4334 34.4998C21.6074 33.1552 23.3338 32.3061 25.2599 32.3061C27.239 32.3061 29.0093 33.2044 30.1852 34.6157L30.4958 34.3241C29.2438 32.8353 27.3668 31.8907 25.2687 31.8907C23.225 31.8907 21.392 32.7874 20.1405 34.2114L20.4334 34.4998ZM24.7128 31.1036L22.8379 31.4936L22.3657 29.2224L24.2148 28.8385L24.3016 29.2539L23.0864 29.5071L23.1851 29.9836L24.3447 29.7418L24.4313 30.1588L23.2713 30.3993L23.3851 30.9459L24.626 30.6874L24.7128 31.1036ZM28.2902 29.6381L27.1718 29.4023L27.066 29.9072L28.1833 30.1445L28.0957 30.5604L26.9787 30.3231L26.7818 31.2565L26.1481 31.1211L26.6262 28.8531L28.3786 29.2224L28.2902 29.6381ZM30.9935 33.5198L30.4373 32.9943L30.5251 32.4956L29.5708 31.8325L29.1485 32.0987L28.517 31.7452L30.7701 30.4027L31.3861 30.8295L30.9935 33.5198ZM30.8022 31.0398L29.9505 31.5762L30.627 32.0463L30.8022 31.0398ZM20.6893 32.5898C20.2736 32.9194 19.5687 33.1888 19.0533 32.5832L18.3088 31.6293L18.8065 31.2362L19.5367 32.1741C19.8003 32.4847 20.1318 32.4241 20.3958 32.217C20.6594 32.0103 20.7948 31.7008 20.5546 31.3716L19.8233 30.4347L20.321 30.0432L21.0658 30.997C21.5103 31.6068 21.2348 32.1561 20.6893 32.5898Z" fill="#0E0D0D"/>
<path fill-rule="evenodd" clip-rule="evenodd" d="M33.2761 31.255C31.2777 29.1539 28.4551 27.8429 25.327 27.8429C22.1612 27.8429 19.3082 29.1843 17.3069 31.3296L16.9685 30.9859C19.0709 28.7846 22.035 27.413 25.3195 27.413C28.5779 27.413 31.5198 28.7637 33.619 30.9332L33.2761 31.255ZM37.6364 47.7422C37.5224 47.7425 37.4095 47.7203 37.3041 47.6769C37.1987 47.6335 37.1029 47.5697 37.0222 47.4892C36.9414 47.4087 36.8774 47.3131 36.8336 47.2078C36.7899 47.1026 36.7673 46.9897 36.7673 46.8757C36.7679 46.6455 36.8597 46.4249 37.0226 46.2622C37.1855 46.0995 37.4062 46.008 37.6364 46.0076V46.0907C37.4288 46.0915 37.23 46.1745 37.0835 46.3217C36.937 46.4688 36.8549 46.6681 36.8551 46.8757C36.8544 47.0837 36.9363 47.2834 37.0828 47.431C37.2293 47.5786 37.4285 47.662 37.6364 47.6628V47.7422Z" fill="#0E0D0D"/>
<path fill-rule="evenodd" clip-rule="evenodd" d="M37.2786 46.3579H37.6289C37.7628 46.3579 37.8408 46.377 37.9069 46.4283C37.9385 46.452 37.9642 46.4828 37.9819 46.5182C37.9995 46.5535 38.0088 46.5925 38.0088 46.632C38.0088 46.7535 37.9215 46.849 37.781 46.8776C37.8498 46.8982 37.8808 46.9159 37.9101 46.9508C37.9469 46.9953 37.9628 47.0419 37.9903 47.1866L38.0059 47.2646C38.0162 47.3221 38.0194 47.3318 38.039 47.3649H37.9345C37.9133 47.3205 37.9085 47.303 37.8966 47.2347C37.8599 47.0276 37.8554 47.013 37.804 46.9641C37.7643 46.9257 37.7101 46.913 37.5953 46.913H37.3746V47.3652H37.2786V46.3579ZM37.632 46.8344C37.804 46.8344 37.9085 46.758 37.9085 46.6318C37.9085 46.4995 37.8072 46.4296 37.6156 46.4296H37.3733V46.8342H37.632V46.8344Z" fill="#0E0D0D"/>
<path fill-rule="evenodd" clip-rule="evenodd" d="M37.6362 47.7422C38.1162 47.7422 38.5075 47.3567 38.5075 46.8757C38.5075 46.3947 38.1162 46.0076 37.6362 46.0076V46.0907C38.0672 46.0907 38.4138 46.442 38.4165 46.8757C38.4165 47.3117 38.0672 47.6628 37.6362 47.6628V47.7422Z" fill="#0E0D0D"/>
</svg>
