<svg width="79" height="79" viewBox="0 0 79 79" fill="none" xmlns="http://www.w3.org/2000/svg">
<path fill-rule="evenodd" clip-rule="evenodd" d="M34.396 10.5092C32.4874 10.899 30.457 11.7539 30.457 11.7539C31.4624 10.3846 33.503 8.70715 33.503 8.70715C32.9415 7.65221 32.4444 6.09029 32.4444 6.09029C32.4444 6.09029 34.8043 6.2198 36.6514 6.8194C36.6514 6.8194 39.7896 5.09929 43.0413 5.04642C43.0413 5.04642 40.6712 6.41489 39.6642 7.6891C39.9314 7.82967 41.8269 8.3969 43.3032 9.267C43.3032 9.267 40.6343 9.34241 38.1851 9.67766C38.1851 9.67766 37.3227 10.8941 36.5936 13.6626C36.5932 13.6626 35.3375 12.2794 34.396 10.5092Z" fill="#171717"/>
<path fill-rule="evenodd" clip-rule="evenodd" d="M47.0754 12.8015C45.4593 11.0039 43.3027 9.267 43.3027 9.267C45.2864 9.29528 48.2303 10.4658 48.2303 10.4658C48.8057 9.37807 49.2086 7.88132 49.2086 7.88132C49.2086 7.88132 50.3348 9.7875 50.8463 11.8953C50.8463 11.8953 53.1845 13.2954 54.9489 15.6384C54.9489 15.6384 53.1079 15.2544 51.7525 15.261C51.7484 15.5634 52.2496 18.0504 52.1406 19.7603C52.1406 19.7603 50.6398 17.3213 49.2315 15.2897C49.2315 15.2897 46.968 15.3307 44.5896 15.9807C44.5901 15.9807 45.9221 14.4421 47.0754 12.8015ZM49.6652 24.5185C50.857 22.5091 52.141 19.7607 52.141 19.7607C52.5349 21.5988 52.5701 23.9439 52.5701 23.9439C53.7525 23.6948 55.8456 22.6906 55.8456 22.6906C55.8456 22.6906 54.9132 25.1743 52.823 27.0788C52.823 27.0788 53.0345 28.567 53.0591 30.5306C53.0591 30.5306 51.5808 29.8719 50.3549 29.1354C50.0939 29.2875 48.6123 30.2953 46.1093 30.8134C46.1093 30.8134 47.1692 29.1576 48.0459 27.5403C48.0459 27.5403 46.3007 26.3907 44.9183 24.5067C44.9183 24.5063 47.6061 24.8456 49.6652 24.5185Z" fill="#171717"/>
<path fill-rule="evenodd" clip-rule="evenodd" d="M41.234 20.4181C43.0623 22.6829 44.9177 24.5067 44.9177 24.5067C41.8865 24.0562 39.4254 23.2062 39.4254 23.2062C38.1942 25.18 36.8507 27.4748 36.8507 27.4748C36.8507 27.4748 36.0995 24.9854 35.9724 22.1599C35.9724 22.1599 34.4499 21.6271 31.6436 20.5222C31.6436 20.5222 33.5793 19.3205 35.922 18.6651C35.7851 18.3951 36.1442 15.036 36.5933 13.663C36.5933 13.663 37.9594 15.8774 39.0717 17.5053C39.0717 17.5053 41.2488 16.7667 44.5902 15.9807C44.5898 15.9807 42.7615 18.3008 41.234 20.4181ZM24.5906 28.9846C24.4066 28.6383 24.235 28.2855 24.0763 27.9268C24.1082 26.7256 24.2156 25.1784 24.523 23.9784C24.523 23.9784 23.6423 23.3673 22.7316 22.573C22.7213 22.4349 22.7094 22.2955 22.7017 22.1558C23.2246 21.9607 24.3349 21.5685 25.3046 21.3439C25.4157 21.0615 26.0194 19.116 27.1862 17.7737C27.1862 17.7737 27.2649 19.0963 27.5821 20.857C27.5821 20.857 29.4239 20.4398 31.6432 20.5213C31.6432 20.5213 29.5866 22.141 28.2915 23.7866C28.7612 25.6837 29.7063 27.5047 29.7063 27.5047C28.294 26.7055 26.8001 25.6468 26.8001 25.6468C26.2755 26.2706 25.221 27.9535 24.5906 28.9846ZM36.3396 37.5991C36.1111 37.558 35.8835 37.5111 35.6573 37.4586C34.8863 36.6319 33.7105 35.2823 32.8125 33.8638C32.8125 33.8638 29.5002 33.5966 27.1661 32.5745C27.1661 32.5745 29.0965 32.2117 31.2162 31.1187C31.0793 30.8486 30.2711 29.3584 29.7059 27.5055C29.7059 27.5055 31.7305 29.1412 33.2306 30.0986C33.2306 30.0986 35.1368 29.0018 36.8503 27.4748C36.8503 27.4748 36.4159 29.5855 36.1753 31.9962C37.2824 32.6284 38.3987 33.2445 39.5237 33.8442C37.7954 34.0958 36.0942 34.0429 36.0942 34.0429C36.0269 35.3815 36.2069 36.7885 36.3396 37.5991ZM50.7502 33.295C50.7502 33.295 48.4657 33.8987 46.2362 33.9823C46.2362 33.9823 46.2194 32.4613 46.1087 30.8133C46.1087 30.8133 44.9247 32.4937 43.3791 34.1097C41.5541 34.0835 39.5237 33.8446 39.5237 33.8446C40.22 34.5532 40.9363 35.2419 41.6717 35.9098C40.2971 37.0782 39.0266 37.859 39.0266 37.859C39.2069 37.8614 39.3905 37.8627 39.5721 37.8602C43.9111 37.7893 47.8325 36.0622 50.7502 33.295Z" fill="#171717"/>
<path fill-rule="evenodd" clip-rule="evenodd" d="M22.9027 18.4811C22.9027 18.4811 24.1232 16.959 25.5478 15.7229C25.5478 15.7229 26.0241 16.6024 27.1864 17.7741C27.1864 17.7741 27.195 16.3421 27.3614 14.0954C28.663 12.9445 30.4569 11.7539 30.4569 11.7539C28.9692 11.6593 27.8589 11.7318 27.8589 11.7318C28.204 10.0268 28.9835 8.1973 28.9835 8.1973C25.8204 10.7055 23.5941 14.3413 22.9027 18.4811ZM54.848 62.5644C52.7156 62.5644 51.4205 60.7779 51.4205 58.8188C51.4205 56.7831 52.9304 55.3081 54.9009 55.3081C57.0845 55.3081 58.4006 57.0418 58.4006 58.9471C58.4006 61.2045 56.7636 62.5644 54.848 62.5644ZM54.7288 56.3344C53.4017 56.3344 53.0054 57.5975 53.0054 58.4533C53.0054 59.7045 53.5623 61.5353 55.0931 61.5353C56.1849 61.5353 56.8165 60.5635 56.8165 59.3963C56.8165 58.1553 56.3353 56.3344 54.7288 56.3344ZM41.7994 61.548C41.7994 61.9328 41.8732 62.0714 42.4949 62.1915V62.4579C41.8203 62.4259 41.4014 62.3939 41.0067 62.3939C40.6096 62.3939 40.1928 62.4259 39.7219 62.4579V62.189C40.1383 62.1152 40.2145 61.9328 40.2145 61.4291V56.1954C40.2145 55.8946 40.0858 55.7544 39.7219 55.7438V55.4458H42.8896C44.8708 55.4458 45.5888 56.3881 45.5888 57.6311C45.5888 58.959 44.5818 59.7734 43.2011 59.7734C42.6769 59.7734 41.9068 59.5045 41.9068 59.2795C41.9068 59.1836 41.9707 59.1836 42.067 59.1836C42.1633 59.1836 42.3014 59.2156 42.4408 59.2156C43.5646 59.2156 44.0048 58.584 44.0048 57.6955C44.0048 56.7307 43.4043 56.3885 42.4613 56.3885L41.7994 56.4598V61.548ZM47.6581 56.1294C47.6581 55.8307 47.5302 55.6901 47.1659 55.6802V55.4016C47.6364 55.4335 48.0528 55.4655 48.4499 55.4655C48.8471 55.4655 49.2639 55.4335 49.734 55.4016V55.6802C49.3713 55.6897 49.2418 55.8307 49.2418 56.1294V61.7398C49.2418 62.0406 49.3713 62.1792 49.734 62.1915V62.4579C49.2643 62.4259 48.8463 62.3939 48.4499 62.3939C48.0528 62.3939 47.6368 62.4259 47.1659 62.4579V62.1915C47.5302 62.1796 47.6581 62.041 47.6581 61.7398V56.1294ZM60.5473 56.1245C60.5473 55.8257 60.4178 55.6852 60.0534 55.6753V55.3942C60.5248 55.4253 60.9428 55.4606 61.3391 55.4606C61.6281 55.4606 61.949 55.4606 62.2822 55.3942L65.2368 60.1836H65.2577V56.2749C65.2577 55.7171 64.9048 55.6753 64.6158 55.6753V55.3942C64.9687 55.4253 65.3105 55.4606 65.6437 55.4606C65.9966 55.4606 66.3499 55.4253 66.6938 55.3942V55.6753C66.3286 55.6848 66.1999 55.8257 66.1999 56.1245V62.4579H65.0646L61.5104 56.9291H61.4896V61.5845C61.4896 62.1423 61.8408 62.1841 62.1314 62.1841V62.4529C61.7785 62.421 61.435 62.3865 61.1035 62.3865C60.7506 62.3865 60.3965 62.421 60.0534 62.4529V62.1841C60.4178 62.1746 60.5473 62.0337 60.5473 61.7349V56.1245ZM68.8819 60.023C69.1012 61.2246 69.8897 61.7873 71.0705 61.7873C71.7189 61.7873 72.657 61.6 72.657 60.773C72.657 60.1119 71.9734 59.9365 71.4668 59.7812L70.6832 59.5492C69.5594 59.2184 68.4356 58.7447 68.4356 57.4446C68.4356 55.7372 70.0885 55.2192 71.7303 55.2192C72.4267 55.2192 73.1414 55.3401 73.7812 55.5721C73.7812 56.3663 73.8251 57.0368 73.8685 57.6102H73.5931C73.3619 56.5958 72.5365 56.1221 71.5447 56.1221C70.9914 56.1221 70.0676 56.2999 70.0676 57.0594C70.0676 57.6668 70.5951 57.8414 71.0475 57.9729L72.2041 58.3057C73.3168 58.6233 74.3533 59.0332 74.3533 60.4648C74.3533 61.9177 72.8877 62.6902 71.0914 62.6902C70.2869 62.6902 69.4385 62.5599 68.7004 62.2931C68.7004 61.4222 68.6676 60.664 68.6114 60.023H68.8819ZM13.2176 56.1294C13.2176 55.8307 13.0898 55.6901 12.7242 55.6802V55.4016C13.1955 55.4335 13.6136 55.4655 14.0099 55.4655C14.4062 55.4655 14.8226 55.4335 15.2943 55.4016V55.6802C14.9304 55.6897 14.8033 55.8307 14.8033 56.1294L14.8021 58.2492L17.3927 58.2516V56.1294C17.3927 55.8307 17.2657 55.6901 16.9017 55.6802V55.4016C17.3718 55.4335 17.7903 55.4655 18.1858 55.4655C18.5817 55.4655 19.0001 55.4335 19.469 55.4016V55.6802C19.1063 55.6897 18.9776 55.8307 18.9776 56.1294V61.7398C18.9776 62.0406 19.1059 62.1792 19.469 62.189V62.4628C18.9997 62.4316 18.5817 62.3988 18.1845 62.3988C17.7903 62.3988 17.3718 62.4316 16.9005 62.4628V62.189C17.2657 62.1796 17.3927 62.041 17.3927 61.7398V59.2775H14.8021V61.7398C14.8021 62.0406 14.9304 62.1792 15.2947 62.189V62.4628C14.8234 62.4316 14.4066 62.3988 14.0103 62.3988C13.6144 62.3988 13.1959 62.4316 12.7246 62.4628V62.189C13.0885 62.1796 13.2181 62.041 13.2181 61.7398V56.1294H13.2176ZM23.4326 59.3939C23.7101 58.6365 24.0527 57.7897 24.2986 56.934H24.3207C24.5351 58.0147 24.7171 58.7008 24.9417 59.3939H23.4326ZM20.8403 62.4583C21.2158 62.4263 21.5805 62.3943 21.9543 62.3943C22.3182 62.3943 22.6937 62.4263 23.0572 62.4583V62.1894C22.7031 62.1669 22.5535 62.0415 22.5535 61.8468C22.5535 61.7402 22.5855 61.6218 22.64 61.4714L23.1097 60.2082H25.197L25.54 61.2496C25.5945 61.3882 25.6474 61.6345 25.6474 61.7828C25.6474 62.0296 25.5081 62.1156 25.1117 62.1894V62.4583C25.572 62.4263 26.0323 62.3943 26.4933 62.3943C26.9413 62.3943 27.4028 62.4263 27.8528 62.4583V62.1894C27.5323 62.1054 27.3704 61.9652 27.2101 61.4939L25.24 55.4024C24.9076 55.4343 24.565 55.4663 24.233 55.4663C23.9023 55.4663 23.5691 55.4343 23.2273 55.4024V55.6811C23.5158 55.6811 23.6347 55.8516 23.6347 55.9606C23.6347 56.0663 23.558 56.2167 23.4953 56.377L21.3965 61.6968C21.2895 61.9779 21.1502 62.1484 20.8391 62.1898V62.4583H20.8403ZM30.0139 57.1364C30.025 56.8377 30.0446 56.5368 30.0446 56.1102C30.0446 55.7766 29.9704 55.7348 29.5639 55.6802V55.4016C29.8844 55.4335 30.2705 55.4655 30.6569 55.4655C31.0418 55.4655 31.4279 55.4335 31.8127 55.4016L33.6865 60.3652L35.3656 55.4016C35.7423 55.4335 36.1062 55.4655 36.4808 55.4655C36.8546 55.4655 37.2296 55.4335 37.5936 55.4016V55.6802C37.2198 55.7122 37.1653 55.8307 37.1653 56.1196C37.1653 56.4204 37.2079 56.9016 37.2395 57.2643L37.5837 61.8365C37.605 62.1152 37.9145 62.1566 38.1292 62.1886V62.4574C37.6677 62.4255 37.1981 62.3935 36.7374 62.3935C36.2661 62.3935 35.8062 62.4255 35.3652 62.4574V62.1886C35.8911 62.1246 36.0304 62.0283 36.0304 61.5369C36.0304 61.2783 35.9972 60.7972 35.9665 60.4443L35.7193 57.2545H35.6984L33.9107 62.5169H33.0115L30.966 57.1905H30.9434L30.8586 60.3258C30.8487 60.8836 30.8262 61.1726 30.8262 61.4611C30.8262 61.9968 30.8795 62.1152 31.5225 62.1886V62.4574C31.0942 62.4255 30.6979 62.3935 30.2909 62.3935C29.8963 62.3935 29.4987 62.4255 29.1672 62.4574V62.1886C29.5852 62.1566 29.7565 62.0607 29.7778 61.6115L30.0139 57.1364ZM11.1115 62.066C10.3786 62.6288 9.32781 62.8538 8.64173 62.8538C6.08922 62.8538 4.64697 60.8742 4.64697 58.8442C4.64697 56.7688 6.08922 54.7601 8.85526 54.7634C9.82372 54.7634 10.5184 54.9474 10.7905 55.054C10.7905 55.8655 10.834 56.6479 10.8942 57.4225H10.5844C10.3959 56.4331 9.70486 55.9081 8.71222 55.9081C7.36629 55.9081 6.32611 56.9688 6.32611 58.7602C6.32611 60.1098 7.43596 61.6373 8.99665 61.6373C9.65814 61.6373 10.6094 61.2746 11.2483 60.7369L11.1115 62.066ZM22.7019 66.3292C22.7019 66.0981 22.6019 65.9891 22.3219 65.9817V65.7542C22.6859 65.7813 23.0076 65.8038 23.3125 65.8038C23.6605 65.8038 24.1654 65.7813 24.4043 65.7542V65.9817C23.9826 65.9985 23.9248 66.2059 23.9248 66.4354V70.4842H25.4531C25.9995 70.4842 26.2228 70.2355 26.3626 69.606H26.6314C26.5314 70.1437 26.4405 70.6744 26.4319 71.2125H22.3219V70.9851C22.6019 70.9777 22.7019 70.8691 22.7019 70.6367V66.3292ZM27.9622 66.3563C27.9622 66.1251 27.8622 66.0161 27.5823 66.0087V65.7837H31.7578C31.7625 66.2074 31.7844 66.6307 31.8234 67.0526H31.5971C31.5147 66.5981 31.3992 66.4403 30.9533 66.4403H29.1844V68.0387H30.2836C30.6545 68.0387 30.7127 67.9129 30.7619 67.617H30.9877C30.9582 67.8786 30.9416 68.1415 30.9381 68.4047C30.9381 68.6264 30.9627 68.9891 30.9877 69.1891H30.7619C30.7123 68.8904 30.6545 68.7674 30.2836 68.7674H29.1844V70.4842H31.0434C31.4902 70.4842 31.6295 70.3338 31.7709 69.6404H32.0463C31.9874 70.1625 31.9544 70.6872 31.9475 71.2125H27.5823V70.9851C27.8622 70.9777 27.9622 70.8691 27.9622 70.6367V66.3563ZM33.0377 70.9879C33.2767 70.9535 33.3845 70.8224 33.4672 70.6076L35.0882 66.5124C35.1378 66.3858 35.1956 66.2731 35.1956 66.1915C35.1956 66.1075 35.1038 65.9747 34.8808 65.9747V65.7497C35.1447 65.7747 35.4017 65.7993 35.6579 65.7993C35.9144 65.7993 36.1784 65.7743 36.4353 65.7497L37.9559 70.4527C38.0809 70.8129 38.2038 70.922 38.4518 70.9884V71.2134C38.1038 71.1884 37.7497 71.1638 37.4022 71.1638C37.0468 71.1638 36.6915 71.1888 36.3362 71.2134V70.9884C36.6423 70.9289 36.7493 70.8625 36.7493 70.6752C36.7493 70.5592 36.7075 70.3687 36.6665 70.2629L36.4017 69.4633H34.7902L34.4263 70.4351C34.3845 70.5486 34.3595 70.64 34.3595 70.724C34.3595 70.8695 34.4755 70.9707 34.748 70.9884V71.2134C34.4669 71.1884 34.1783 71.1638 33.8968 71.1638C33.6066 71.1638 33.3271 71.1888 33.0369 71.2134V70.9879H33.0377ZM36.203 68.8363C36.0304 68.3006 35.8886 67.7731 35.723 66.9391H35.707C35.5173 67.5977 35.2521 68.2518 35.0374 68.8363H36.203ZM42.8736 69.2781C42.8736 68.9473 42.724 68.9322 42.3531 68.9252V68.6465C42.6916 68.6736 43.031 68.6986 43.3777 68.6986C43.7507 68.6986 44.1142 68.6736 44.4855 68.6465V68.9076C44.1957 68.9158 44.0478 68.9891 44.0478 69.3621V71.213H43.5675L43.3777 70.6576C42.8572 71.1457 42.3105 71.3187 41.7494 71.3187C40.1948 71.3187 39.203 70.0379 39.203 68.5506C39.203 66.7567 40.4022 65.6706 42.1875 65.6706C42.7584 65.6706 43.3732 65.7772 43.8175 66.0555C43.8175 66.4604 43.8343 66.9272 43.8679 67.4965H43.6293C43.5228 66.7616 42.824 66.3989 42.1387 66.3989C40.9883 66.3989 40.4272 67.2772 40.4272 68.3432C40.4272 69.3695 41.0059 70.5261 41.9641 70.5261C42.5519 70.5261 42.8736 70.2531 42.8736 69.8728V69.2781ZM46.1478 66.3292C46.1478 66.0981 46.0478 65.9891 45.7683 65.9817V65.7542C46.0837 65.7865 46.4005 65.803 46.7175 65.8038C47.1483 65.8038 47.4876 65.7813 47.8184 65.7542V65.9817C47.4614 65.9985 47.3716 66.0632 47.3716 66.3858V69.4748C47.3716 70.4105 47.7606 70.59 48.4299 70.59C49.0991 70.59 49.4881 70.3933 49.4881 69.4748V66.3858C49.4881 66.0632 49.3975 65.9985 49.0405 65.9817V65.7542C49.3729 65.7813 49.7106 65.8038 50.1414 65.8038C50.4881 65.8038 50.8274 65.7813 51.0914 65.7542V65.9817C50.8111 65.9891 50.711 66.0977 50.711 66.3292V69.3031C50.711 70.8326 49.9176 71.3187 48.4299 71.3187C46.9409 71.3187 46.1478 70.8326 46.1478 69.4191V66.3292ZM52.8406 66.3563C52.8406 66.1251 52.7431 66.0161 52.4611 66.0087V65.7837H56.6378C56.6464 66.2374 56.662 66.6059 56.7026 67.0526H56.4767C56.3944 66.5981 56.2784 66.4403 55.8316 66.4403H54.0656V68.0149H55.1632C55.5345 68.0149 55.5931 67.8908 55.6435 67.5932H55.8677C55.8391 67.8538 55.8225 68.1155 55.8181 68.3776C55.8181 68.6018 55.8443 68.9645 55.8677 69.1645H55.6435C55.5931 68.8658 55.5345 68.7428 55.1632 68.7428H54.0656V70.4847H55.9226C56.3694 70.4847 56.5103 70.3342 56.6509 69.6408H56.9255C56.8663 70.1629 56.8332 70.6876 56.8263 71.213H52.4607V70.9855C52.7426 70.9781 52.8402 70.8695 52.8402 70.6371V66.3563H52.8406ZM31.652 53.4409C33.4705 51.358 36.1448 50.0428 39.1284 50.0428C42.1941 50.0428 44.9363 51.4343 46.7577 53.6204L47.2388 53.1687C45.2995 50.8625 42.392 49.3994 39.142 49.3994C35.9763 49.3994 33.1369 50.7883 31.1983 52.9941L31.652 53.4409ZM38.2809 48.1801L35.3767 48.7842L34.6451 45.2661L37.5095 44.6714L37.644 45.3149L35.7616 45.7071L35.9144 46.4452L37.7108 46.0706L37.8448 46.7165L36.048 47.0891L36.2243 47.9358L38.1464 47.5354L38.2809 48.1801ZM43.8224 45.91L42.09 45.5448L41.926 46.3268L43.6568 46.6944L43.5211 47.3387L41.7908 46.9711L41.4859 48.417L40.5043 48.2071L41.2449 44.694L43.9593 45.2661L43.8224 45.91ZM48.0098 51.9228L47.1483 51.1088L47.2843 50.3363L45.806 49.3092L45.1519 49.7215L44.1736 49.174L47.6638 47.0944L48.618 47.7555L48.0098 51.9228ZM47.7134 48.0813L46.3941 48.9121L47.4421 49.6404L47.7134 48.0813ZM32.0484 50.4822C31.4045 50.9929 30.3127 51.4101 29.5143 50.4719L28.361 48.9945L29.1319 48.3854L30.2631 49.8383C30.6713 50.3195 31.1848 50.2256 31.5938 49.9047C32.002 49.5846 32.2119 49.1051 31.8398 48.5953L30.7069 47.144L31.4779 46.5374L32.6316 48.0149C33.3201 48.9596 32.8935 49.8105 32.0484 50.4822Z" fill="#171717"/>
<path fill-rule="evenodd" clip-rule="evenodd" d="M51.5454 48.4145C48.4499 45.16 44.0777 43.1292 39.2321 43.1292C34.3283 43.1292 29.9089 45.2071 26.8089 48.5301L26.2847 47.9977C29.5413 44.5878 34.1328 42.4632 39.2206 42.4632C44.2678 42.4632 48.8249 44.5554 52.0766 47.9162L51.5454 48.4145ZM58.2997 73.9536C58.1231 73.954 57.9482 73.9196 57.7849 73.8524C57.6216 73.7851 57.4732 73.6863 57.3482 73.5617C57.2231 73.437 57.1239 73.2889 57.0561 73.1258C56.9884 72.9628 56.9534 72.7879 56.9533 72.6113C56.9543 72.2547 57.0965 71.913 57.3488 71.661C57.6012 71.409 57.9431 71.2672 58.2997 71.2666V71.3953C57.9781 71.3965 57.6701 71.5252 57.4432 71.7532C57.2163 71.9811 57.0891 72.2897 57.0894 72.6113C57.0883 72.9335 57.2152 73.2429 57.4421 73.4715C57.6691 73.7002 57.9775 73.8293 58.2997 73.8306V73.9536Z" fill="#171717"/>
<path fill-rule="evenodd" clip-rule="evenodd" d="M57.7456 71.8093H58.2882C58.4956 71.8093 58.6165 71.8388 58.719 71.9183C58.7679 71.9551 58.8076 72.0028 58.835 72.0575C58.8624 72.1123 58.8767 72.1727 58.8768 72.2339C58.8768 72.422 58.7415 72.57 58.5239 72.6142C58.6305 72.6462 58.6784 72.6736 58.7239 72.7277C58.7809 72.7966 58.8055 72.8687 58.8481 73.0929L58.8723 73.2138C58.8883 73.3028 58.8932 73.3179 58.9235 73.3691H58.7616C58.7288 73.3003 58.7214 73.2732 58.703 73.1675C58.646 72.8466 58.6391 72.8241 58.5596 72.7482C58.4981 72.6888 58.4141 72.6691 58.2362 72.6691H57.8944V73.3696H57.7456V71.8093ZM58.2932 72.5474C58.5596 72.5474 58.7214 72.429 58.7214 72.2335C58.7214 72.0285 58.5645 71.9203 58.2677 71.9203H57.8923V72.547H58.2932V72.5474Z" fill="#171717"/>
<path fill-rule="evenodd" clip-rule="evenodd" d="M58.2998 73.9536C59.0433 73.9536 59.6494 73.3564 59.6494 72.6113C59.6494 71.8662 59.0433 71.2666 58.2998 71.2666V71.3953C58.9674 71.3953 59.5043 71.9396 59.5084 72.6113C59.5084 73.2868 58.9674 73.8306 58.2998 73.8306V73.9536Z" fill="#171717"/>
</svg>
