<svg width="35" height="34" viewBox="0 0 35 34" fill="none" xmlns="http://www.w3.org/2000/svg">
<path d="M31.8966 0.666351H3.41895C2.73234 0.666351 2.07385 0.95044 1.58834 1.45612C1.10283 1.9618 0.830078 2.64765 0.830078 3.3628V24.9343C0.830078 25.6495 1.10283 26.3353 1.58834 26.841C2.07385 27.3467 2.73234 27.6308 3.41895 27.6308H13.0463L15.441 31.7934C15.6714 32.1912 15.9966 32.5202 16.385 32.7486C16.7733 32.977 17.2118 33.097 17.6578 33.097C18.1038 33.097 18.5422 32.977 18.9306 32.7486C19.319 32.5202 19.6441 32.1912 19.8745 31.7934L22.2692 27.6308H31.8966C32.5832 27.6308 33.2417 27.3467 33.7272 26.841C34.2127 26.3353 34.4855 25.6495 34.4855 24.9343V3.3628C34.4855 2.64765 34.2127 1.9618 33.7272 1.45612C33.2417 0.95044 32.5832 0.666351 31.8966 0.666351V0.666351ZM9.89114 16.1709C9.50712 16.1709 9.13172 16.0523 8.81242 15.8301C8.49311 15.6079 8.24425 15.292 8.09729 14.9225C7.95033 14.553 7.91188 14.1463 7.98679 13.754C8.06171 13.3617 8.24664 13.0014 8.51818 12.7186C8.78973 12.4357 9.1357 12.2431 9.51234 12.1651C9.88899 12.0871 10.2794 12.1271 10.6342 12.2802C10.989 12.4332 11.2922 12.6925 11.5056 13.025C11.7189 13.3576 11.8328 13.7486 11.8328 14.1486C11.8328 14.6849 11.6282 15.1993 11.2641 15.5786C10.9 15.9578 10.4061 16.1709 9.89114 16.1709ZM17.6578 16.1709C17.2737 16.1709 16.8983 16.0523 16.579 15.8301C16.2597 15.6079 16.0109 15.292 15.8639 14.9225C15.717 14.553 15.6785 14.1463 15.7534 13.754C15.8283 13.3617 16.0133 13.0014 16.2848 12.7186C16.5564 12.4357 16.9023 12.2431 17.279 12.1651C17.6556 12.0871 18.046 12.1271 18.4008 12.2802C18.7556 12.4332 19.0588 12.6925 19.2722 13.025C19.4856 13.3576 19.5994 13.7486 19.5994 14.1486C19.5994 14.6849 19.3949 15.1993 19.0307 15.5786C18.6666 15.9578 18.1727 16.1709 17.6578 16.1709ZM25.4244 16.1709C25.0404 16.1709 24.665 16.0523 24.3457 15.8301C24.0264 15.6079 23.7775 15.292 23.6305 14.9225C23.4836 14.553 23.4451 14.1463 23.52 13.754C23.595 13.3617 23.7799 13.0014 24.0514 12.7186C24.323 12.4357 24.669 12.2431 25.0456 12.1651C25.4222 12.0871 25.8126 12.1271 26.1674 12.2802C26.5222 12.4332 26.8255 12.6925 27.0388 13.025C27.2522 13.3576 27.3661 13.7486 27.3661 14.1486C27.3661 14.6849 27.1615 15.1993 26.7974 15.5786C26.4332 15.9578 25.9394 16.1709 25.4244 16.1709Z" fill="#5C5C5C"/>
</svg>
