<svg width="35" height="35" viewBox="0 0 35 35" fill="none" xmlns="http://www.w3.org/2000/svg">
<path d="M34.8801 20.6268C34.8803 22.1301 34.4613 23.6055 33.6675 24.8967C32.8737 26.188 31.7347 27.247 30.371 27.9617C29.0072 28.6764 27.4696 29.0201 25.921 28.9565C24.3723 28.8929 22.8701 28.4243 21.5736 27.6004L23.3423 33.0671C23.406 33.2583 23.4212 33.4616 23.3867 33.6597C23.3521 33.8578 23.2689 34.045 23.1439 34.2053C23.0235 34.3685 22.8647 34.5015 22.6808 34.5935C22.4968 34.6855 22.293 34.7337 22.086 34.7343H13.2922C13.0852 34.7337 12.8814 34.6855 12.6974 34.5935C12.5135 34.5015 12.3548 34.3685 12.2343 34.2053C12.1093 34.045 12.0261 33.8578 11.9915 33.6597C11.957 33.4616 11.9722 33.2583 12.0359 33.0671L13.8046 27.6004C12.3356 28.5387 10.6038 29.0146 8.84563 28.9631C4.26687 28.8348 0.514593 25.1155 0.498063 20.6588C0.49589 19.562 0.716496 18.4755 1.14729 17.4613C1.57808 16.4472 2.21061 15.5253 3.00878 14.7482C3.80695 13.9711 4.75512 13.3541 5.79915 12.9324C6.84318 12.5107 7.96263 12.2926 9.09358 12.2905L9.75478 12.3226C9.25205 11.135 9.0317 9.85279 9.11011 8.57126C9.18596 7.35962 9.53373 6.17866 10.1291 5.11092C10.7245 4.04318 11.5532 3.11443 12.5571 2.38958C13.5611 1.66474 14.7162 1.16128 15.9417 0.914402C17.1671 0.667524 18.4334 0.683183 19.652 0.960284C20.8706 1.23739 22.0121 1.76924 22.9967 2.51868C23.9813 3.26812 24.7852 4.21706 25.3523 5.29917C25.9195 6.38129 26.2361 7.57047 26.28 8.78359C26.324 9.99672 26.0943 11.2045 25.6069 12.3226C26.7912 12.2195 27.9847 12.3582 29.1104 12.7298C30.2361 13.1014 31.2691 13.6975 32.1427 14.4799C33.0164 15.2622 33.7113 16.2134 34.1828 17.2721C34.6543 18.3308 34.8918 19.4736 34.8801 20.6268Z" fill="white"/>
</svg>
